<?xml version="1.0" standalone="no"?>
<!DOCTYPE svg PUBLIC "-//W3C//DTD SVG 20010904//EN"
 "http://www.w3.org/TR/2001/REC-SVG-20010904/DTD/svg10.dtd">
<svg version="1.0" xmlns="http://www.w3.org/2000/svg"
 width="820.000000pt" height="1280.000000pt" viewBox="0 0 820.000000 1280.000000"
 preserveAspectRatio="xMidYMid meet">
<g transform="translate(0.000000,1280.000000) scale(0.100000,-0.100000)"
fill="#000000" stroke="none">
<path d="M1502 12778 c-71 -77 -51 -251 42 -357 103 -118 139 -171 170 -246
18 -44 44 -101 59 -125 14 -25 32 -76 40 -115 9 -38 29 -96 46 -128 21 -40 29
-66 25 -85 -3 -17 4 -53 19 -93 13 -35 28 -84 32 -107 3 -23 21 -60 39 -84 18
-24 39 -60 45 -81 25 -75 94 -177 121 -177 14 0 13 43 -2 75 -10 21 -9 29 6
43 15 15 18 15 27 2 5 -8 7 -31 4 -50 -2 -19 -5 -45 -5 -57 0 -13 -12 -28 -35
-42 -29 -17 -35 -26 -35 -54 0 -19 9 -54 19 -78 11 -24 27 -91 36 -149 9 -58
21 -121 27 -140 7 -19 12 -57 13 -85 3 -184 79 -398 170 -485 25 -24 53 -57
61 -72 16 -32 26 -34 48 -13 13 14 19 13 51 -10 21 -13 53 -27 74 -30 20 -4
77 -15 126 -25 140 -30 245 -40 435 -41 196 0 256 -7 253 -29 -1 -8 -16 -53
-33 -100 -46 -122 -64 -190 -52 -202 12 -12 55 58 73 120 13 46 38 64 138 104
46 18 81 44 81 61 0 6 -29 8 -76 4 -72 -5 -76 -5 -60 11 13 13 36 16 114 16
53 0 117 -4 142 -8 l46 -8 37 47 c20 26 34 52 31 56 -3 5 -53 9 -112 8 -59 0
-150 7 -202 16 -100 18 -110 21 -110 35 0 16 153 110 179 110 13 0 33 7 43 17
17 15 23 14 103 -18 61 -24 97 -46 128 -77 l42 -43 -19 -32 c-124 -214 -145
-259 -133 -291 10 -24 35 -8 43 27 3 18 13 40 22 50 9 10 39 59 66 109 28 50
63 100 77 110 34 26 130 36 147 16 8 -11 13 -77 16 -215 2 -110 6 -206 10
-212 12 -20 45 7 51 42 3 17 2 97 -4 177 -6 88 -6 151 0 161 11 22 34 29 93
31 74 1 122 -43 137 -125 4 -23 18 -71 30 -105 36 -102 74 -95 63 11 l-7 58
39 -3 c37 -3 39 -5 42 -40 3 -35 6 -38 45 -48 115 -30 170 -64 188 -118 16
-51 38 -75 56 -61 7 6 13 18 13 26 0 25 23 8 32 -23 5 -16 15 -74 23 -129 7
-55 17 -108 20 -117 13 -33 -5 -38 -50 -16 -42 21 -45 21 -89 4 -57 -22 -68
-41 -67 -123 0 -61 40 -233 63 -277 21 -39 101 -116 121 -116 16 0 18 -4 13
-27 -17 -66 -18 -85 -7 -111 10 -23 7 -39 -19 -104 -41 -107 -105 -199 -168
-242 -53 -37 -82 -45 -82 -23 0 6 41 52 90 100 50 49 99 106 110 127 23 45 26
98 7 125 -19 24 -37 11 -37 -27 0 -45 -36 -113 -78 -148 -34 -28 -43 -31 -97
-28 -57 3 -60 2 -63 -22 -2 -14 -8 -29 -13 -35 -14 -14 -11 -51 6 -65 25 -21
17 -33 -18 -27 -81 14 -111 23 -114 34 -7 19 43 63 70 63 25 0 47 17 47 36 0
18 -85 56 -117 52 -22 -2 -29 -9 -31 -31 -3 -22 -7 -27 -20 -22 -9 4 -30 11
-47 16 -16 5 -43 15 -60 23 -85 42 -151 66 -179 67 -17 1 -42 4 -56 8 -14 4
-43 4 -65 0 -22 -4 -65 -10 -97 -13 -48 -6 -66 -15 -128 -63 -41 -32 -86 -78
-105 -107 l-32 -51 -114 3 c-133 4 -178 14 -216 47 l-28 24 50 -16 c28 -8 59
-19 70 -24 23 -11 57 1 140 51 28 17 70 39 95 50 76 34 93 44 104 62 19 31 -4
37 -99 23 -49 -7 -102 -16 -116 -20 -23 -6 -35 2 -98 65 -39 39 -75 68 -81 65
-5 -3 -10 -21 -10 -40 0 -26 11 -45 48 -87 65 -73 83 -99 42 -61 -19 17 -48
33 -65 35 -30 3 -30 4 -43 88 -19 131 -32 186 -47 206 -13 18 -15 18 -31 2
-15 -14 -15 -25 -5 -105 7 -48 16 -106 22 -128 6 -24 6 -52 0 -70 l-8 -30 -11
25 c-5 15 -13 57 -17 95 -4 39 -14 89 -22 113 -8 23 -11 47 -8 53 4 5 10 31
14 57 6 45 9 48 61 75 67 34 139 103 177 171 24 44 28 62 28 131 0 93 -15 143
-57 191 -34 39 -49 41 -116 16 -26 -10 -53 -17 -60 -14 -18 6 -14 87 9 177 12
44 29 119 39 167 10 49 25 99 34 113 38 58 -5 78 -48 22 -15 -19 -26 -37 -26
-40 0 -3 -4 -17 -10 -32 l-10 -26 -39 21 c-22 11 -48 20 -58 20 -23 0 -65 -29
-58 -40 2 -4 34 -16 70 -25 63 -18 65 -19 65 -51 0 -59 -18 -83 -63 -86 -52
-4 -58 -23 -11 -38 36 -12 36 -13 30 -54 -3 -22 -11 -95 -17 -161 -5 -66 -15
-142 -21 -170 -12 -64 -15 -183 -5 -213 7 -18 3 -25 -23 -40 -66 -36 -69 -44
-18 -39 35 3 48 1 52 -10 3 -8 6 -71 6 -139 0 -92 -3 -124 -12 -124 -7 0 -28
-9 -47 -21 -25 -15 -31 -23 -22 -32 8 -8 14 -8 23 1 7 7 22 12 34 12 18 0 22
-7 27 -42 7 -60 72 -195 116 -242 l23 -24 -26 -38 c-44 -64 -28 -74 31 -20 37
32 40 33 155 40 64 3 123 9 132 12 24 9 20 -25 -8 -67 -13 -19 -29 -53 -35
-75 -15 -57 -36 -81 -88 -104 -49 -21 -83 -47 -83 -62 0 -13 21 -9 77 14 29
12 55 20 57 17 8 -8 -35 -224 -47 -236 -7 -7 -39 -23 -72 -37 -32 -13 -61 -29
-63 -35 -5 -16 46 -13 95 5 24 9 45 15 47 13 2 -2 7 -27 11 -56 6 -48 5 -51
-13 -46 -25 6 -35 -10 -43 -72 -4 -27 -17 -77 -29 -110 -19 -51 -21 -73 -16
-147 3 -49 2 -88 -3 -88 -36 0 -149 175 -191 295 -18 50 -19 66 -10 95 14 44
9 182 -6 187 -14 5 -34 -48 -34 -88 0 -16 -5 -29 -10 -29 -14 0 -96 129 -92
144 2 6 5 40 8 75 l4 64 -23 -21 c-32 -31 -43 -28 -72 18 -38 61 -51 119 -38
177 6 26 10 49 9 51 -10 10 -37 -15 -48 -44 -14 -41 -30 -43 -57 -8 -15 20
-21 41 -21 80 0 59 -4 62 -39 38 -22 -16 -24 -15 -59 20 -22 22 -37 46 -38 63
-1 16 -6 27 -12 26 -6 -1 -41 12 -79 29 -76 35 -139 40 -273 21 -137 -21 -179
-22 -173 -5 8 18 -34 51 -64 52 -30 0 -29 -8 4 -42 32 -33 30 -36 -55 -68 -68
-26 -82 -25 -142 6 -31 16 -57 23 -68 19 -14 -6 -11 -12 25 -44 l42 -38 -32
-16 c-18 -8 -58 -25 -89 -37 l-57 -21 -20 20 c-14 14 -34 21 -60 21 -55 0 -59
-15 -9 -35 l42 -17 -24 -18 c-14 -10 -57 -35 -96 -56 -69 -36 -74 -37 -148
-31 -66 5 -77 3 -86 -12 -13 -25 -4 -31 46 -31 24 0 45 -4 49 -9 5 -9 -52 -61
-109 -97 -19 -12 -56 -21 -100 -24 -72 -5 -99 -24 -52 -36 14 -3 26 -11 26
-17 0 -20 -112 -126 -127 -120 -12 5 -13 -1 -8 -29 8 -43 -8 -61 -98 -109
-104 -54 -117 -66 -111 -98 4 -18 -2 -46 -14 -73 -17 -40 -25 -46 -66 -57 -25
-6 -46 -15 -46 -20 0 -11 25 -21 51 -21 22 0 22 -2 8 -55 -24 -94 -29 -99
-122 -119 -45 -10 -21 -29 28 -23 23 4 45 4 48 1 7 -7 -47 -117 -65 -131 -7
-7 -36 -13 -63 -15 -64 -4 -65 -13 -6 -45 8 -4 -40 -70 -75 -103 -23 -23 -38
-31 -41 -22 -7 18 -23 15 -23 -6 0 -10 -18 -36 -40 -57 -22 -21 -40 -47 -40
-57 0 -10 -25 -43 -55 -73 -42 -43 -55 -62 -55 -85 0 -22 -10 -39 -41 -67 -51
-47 -64 -70 -49 -89 18 -21 5 -56 -44 -115 -52 -64 -96 -145 -96 -177 0 -68
55 -126 99 -103 23 13 26 27 11 65 -13 35 5 34 22 -1 7 -14 26 -36 41 -47 l29
-21 30 34 31 35 -21 14 c-28 18 -28 40 -1 68 22 23 38 79 39 131 0 25 5 33 29
41 32 11 63 61 76 120 4 19 26 55 50 82 24 27 46 58 50 69 3 12 15 21 25 21
10 0 36 21 57 46 21 26 51 59 66 73 16 14 41 37 55 50 l25 24 26 -32 c14 -17
34 -31 44 -31 21 0 21 7 2 53 -17 40 -20 123 -6 132 5 3 17 30 25 60 16 54 36
72 69 60 24 -10 29 12 11 46 -15 30 -15 34 4 73 11 23 24 54 28 69 5 24 11 28
30 23 33 -9 38 9 17 53 -19 38 -19 39 0 80 21 44 139 182 166 193 41 17 93 3
61 -17 -23 -14 -42 -85 -46 -170 -6 -105 1 -124 43 -109 27 9 28 12 34 100 10
129 47 210 106 228 19 6 22 3 25 -26 2 -25 8 -33 23 -33 12 0 21 8 23 20 11
65 36 105 80 130 25 14 46 24 46 23 1 -2 7 -16 14 -31 15 -36 34 -30 43 11 4
21 25 48 59 79 63 57 70 61 70 35 0 -20 29 -52 48 -52 15 0 15 9 0 64 -12 44
-11 45 22 72 18 16 53 41 78 57 l45 28 26 -25 c15 -14 30 -26 34 -26 4 0 7 24
7 53 0 28 4 57 8 62 4 6 42 28 84 50 67 34 81 38 98 27 29 -18 38 -15 42 15 4
35 41 54 109 55 58 0 92 -22 163 -106 34 -39 38 -50 29 -65 -10 -15 -7 -22 15
-38 26 -19 112 -167 112 -192 0 -7 -8 -10 -19 -6 -11 3 -24 -1 -32 -11 -11
-14 -10 -18 6 -30 71 -48 108 -81 135 -122 37 -56 37 -65 3 -82 -28 -13 -27
-13 31 -25 63 -13 73 -21 111 -95 13 -25 35 -56 49 -69 36 -34 34 -58 -6 -69
-17 -4 -34 -14 -36 -21 -3 -10 8 -11 51 -6 51 7 56 5 81 -22 41 -43 50 -62 31
-69 -28 -11 -16 -33 23 -40 33 -6 71 -29 156 -95 16 -13 37 -42 48 -66 13 -31
32 -50 65 -70 44 -26 145 -66 208 -83 46 -12 85 -29 85 -36 0 -24 -51 -79
-115 -123 -41 -28 -77 -56 -80 -61 -11 -18 25 -10 76 16 28 14 53 24 55 22 1
-2 -3 -22 -11 -43 -8 -22 -14 -49 -15 -60 -1 -29 -24 -55 -57 -64 -18 -5 -29
-15 -31 -29 -3 -19 1 -22 27 -22 31 0 31 0 25 -42 -11 -68 -21 -87 -51 -93
-73 -15 -104 -28 -146 -60 -78 -60 -157 -40 -157 40 0 51 -34 40 -42 -13 -3
-24 -3 -24 -47 10 -24 18 -55 41 -69 50 -35 23 -61 75 -62 121 0 44 -21 50
-46 12 l-16 -25 -73 51 c-65 44 -74 55 -80 89 -4 21 -2 55 4 76 6 21 9 40 6
42 -12 12 -46 -14 -57 -44 -6 -18 -16 -34 -21 -34 -4 0 -28 16 -52 36 -37 32
-42 40 -32 55 9 15 5 30 -23 84 -19 35 -38 65 -42 65 -18 0 -7 -78 13 -104 12
-15 20 -29 18 -31 -2 -2 -44 24 -94 57 -82 54 -91 63 -97 98 -9 51 -36 102
-51 97 -21 -6 -19 -46 2 -81 12 -18 21 -36 21 -39 0 -4 -23 7 -50 23 -69 41
-144 64 -185 57 -46 -8 -85 -35 -85 -61 0 -29 -27 -76 -73 -125 l-37 -41 -42
21 c-22 11 -58 27 -79 35 -36 12 -40 11 -49 -6 -13 -25 7 -45 54 -54 18 -4 39
-13 46 -21 14 -17 3 -37 -58 -113 -33 -40 -39 -43 -69 -37 -35 6 -103 -10
-103 -25 0 -11 26 -20 61 -20 l29 0 -38 -58 c-68 -105 -94 -133 -153 -163 -32
-15 -61 -33 -64 -39 -12 -19 5 -25 37 -12 18 6 33 10 35 8 2 -2 -8 -23 -22
-47 -13 -24 -25 -51 -25 -59 0 -27 -50 -114 -78 -137 -25 -21 -26 -24 -9 -37
15 -12 16 -19 6 -63 -14 -60 -5 -117 22 -144 10 -10 19 -25 19 -32 0 -37 -84
-205 -120 -242 -47 -48 -49 -55 -15 -55 31 0 31 -8 -1 -84 -16 -37 -43 -76
-68 -99 -37 -34 -39 -39 -23 -48 24 -14 18 -37 -40 -158 -33 -70 -42 -96 -32
-102 13 -8 13 -6 -22 -164 -21 -96 -21 -112 -5 -138 14 -21 27 -26 88 -31 92
-10 98 -4 102 100 4 90 29 250 41 262 4 4 10 1 13 -7 2 -7 17 -28 33 -45 21
-24 30 -28 40 -19 16 16 -6 69 -45 106 l-29 28 17 82 c25 115 43 156 73 163
16 4 30 0 44 -12 18 -16 21 -16 35 -2 15 15 13 20 -25 60 l-41 45 44 114 c74
190 82 209 93 220 18 18 30 3 43 -53 22 -93 73 -138 100 -88 10 19 4 38 -30
90 -6 8 -14 27 -20 43 -6 17 -17 27 -30 27 -11 0 -20 2 -20 5 0 14 124 265
131 265 5 0 21 -24 36 -52 l28 -53 3 43 c2 24 -4 65 -13 91 -15 47 -15 50 6
90 11 22 24 41 29 41 4 0 24 -13 45 -30 61 -49 73 -23 24 54 -27 44 -29 50
-15 65 9 10 16 23 16 30 0 7 10 35 21 62 21 47 48 64 64 39 10 -16 45 -12 45
5 0 8 -9 29 -20 47 -11 18 -20 40 -20 48 1 13 48 111 109 225 11 21 21 47 21
57 0 43 59 8 141 -84 86 -96 86 -95 54 -120 -39 -30 -18 -42 39 -23 l48 16 76
-69 c42 -38 85 -73 95 -78 15 -9 8 -16 -48 -52 -36 -22 -65 -46 -65 -52 0 -22
49 -8 94 26 l47 35 47 -39 c26 -21 68 -53 95 -71 26 -17 47 -39 47 -47 0 -8
-14 -23 -31 -32 -17 -9 -41 -25 -53 -34 l-21 -17 28 -1 c15 0 44 11 65 24 59
37 75 39 114 12 19 -13 52 -29 72 -36 20 -6 36 -16 36 -21 0 -5 -18 -21 -40
-35 -22 -15 -40 -30 -40 -35 0 -22 27 -17 80 15 56 35 90 45 90 28 0 -30 179
-57 325 -49 84 4 106 2 137 -14 21 -11 45 -19 55 -19 28 0 133 38 180 66 48
28 66 30 83 9 8 -10 31 -15 66 -15 60 0 73 -13 77 -77 2 -36 1 -38 -38 -46
-65 -14 -90 -30 -93 -60 -4 -34 -27 -44 -114 -52 -40 -4 -88 -1 -132 9 -47 10
-75 12 -87 5 -28 -15 -12 -36 33 -42 60 -8 69 -23 25 -42 -97 -40 -210 -64
-384 -79 -99 -9 -196 -21 -214 -27 -19 -5 -68 -14 -110 -18 -57 -6 -100 -19
-175 -54 -111 -50 -153 -64 -236 -77 -34 -5 -66 -17 -79 -29 -12 -11 -51 -32
-86 -46 -55 -22 -73 -24 -127 -19 -73 7 -94 -6 -46 -31 17 -9 28 -20 26 -24
-3 -5 -34 -25 -68 -46 -47 -28 -83 -41 -141 -50 -45 -7 -86 -20 -95 -29 -15
-15 -13 -16 31 -16 26 0 47 -4 47 -9 0 -19 -88 -84 -160 -118 -89 -43 -109
-58 -103 -81 2 -10 -9 -36 -25 -58 -17 -23 -49 -72 -72 -110 -39 -64 -41 -72
-35 -120 3 -29 13 -60 20 -70 17 -22 19 -75 5 -124 -6 -19 -19 -107 -30 -195
-21 -170 -28 -203 -54 -253 -9 -17 -16 -43 -16 -58 0 -24 3 -26 29 -21 36 7
41 -2 48 -101 6 -68 4 -73 -20 -96 -24 -22 -57 -130 -44 -143 13 -12 47 10 47
31 0 25 24 64 32 50 3 -5 13 -74 23 -153 17 -129 17 -144 3 -152 -19 -11 -35
-49 -47 -112 -7 -38 -6 -50 5 -54 23 -9 44 17 44 53 0 18 4 35 9 38 12 8 18
-19 33 -136 9 -74 9 -105 0 -136 -17 -57 -15 -83 8 -89 10 -3 22 -13 25 -22 3
-9 25 -48 50 -85 29 -45 46 -83 50 -114 4 -26 17 -81 31 -122 39 -123 74 -263
74 -297 0 -22 -5 -33 -17 -35 -12 -2 -25 -30 -43 -95 -29 -99 -27 -123 8 -104
20 10 32 40 47 114 8 42 22 32 29 -20 12 -85 79 -390 102 -463 8 -25 17 -70
21 -101 5 -47 2 -62 -21 -105 -42 -79 -31 -114 17 -52 l25 31 17 -33 c19 -36
33 -161 41 -345 2 -60 6 -116 9 -122 2 -8 22 -13 45 -13 54 0 59 -19 17 -61
-44 -44 -74 -131 -58 -166 13 -27 60 -50 111 -53 59 -3 67 -1 83 24 17 25 14
39 -30 136 -38 85 -38 89 -3 119 33 27 33 27 26 95 -6 49 -12 69 -24 73 -10 3
-25 13 -34 21 -11 9 -27 12 -43 8 -31 -8 -34 14 -6 51 40 49 55 197 26 252 -9
18 -22 73 -28 122 -10 79 -9 90 6 107 24 26 22 35 -22 107 -38 63 -93 213
-107 290 l-7 40 22 -27 c22 -28 51 -37 51 -17 0 18 -21 52 -56 92 -29 31 -34
45 -34 85 0 26 -4 63 -10 81 -13 45 -6 49 30 23 58 -43 67 -21 17 41 -51 63
-84 127 -92 176 -11 66 -52 181 -80 223 -29 43 -31 77 -10 118 12 23 22 30 45
30 31 0 46 -18 120 -142 19 -32 40 -60 48 -63 18 -7 42 12 42 34 0 20 -88 170
-136 231 -39 49 -40 60 -13 217 l11 62 43 -6 c54 -7 69 11 33 41 -34 29 -74
103 -82 151 -4 22 -16 77 -28 123 -16 67 -18 89 -9 109 10 22 7 29 -22 63 -20
23 -45 73 -62 122 -15 46 -33 90 -40 98 -17 21 -33 138 -45 310 -5 80 -14 158
-19 173 -21 56 19 157 67 169 7 2 22 -19 35 -51 23 -57 49 -83 67 -65 6 6 1
29 -15 69 -40 98 -33 125 43 176 26 18 64 47 85 66 51 46 71 44 62 -4 -7 -45
12 -80 39 -70 11 5 16 19 16 49 0 64 17 116 41 123 12 4 37 18 56 31 20 13 39
24 42 24 3 0 14 -14 23 -30 26 -46 47 -39 45 14 -2 37 3 50 27 75 15 16 40 32
55 36 14 4 35 15 46 24 11 10 41 26 67 36 26 10 53 24 59 31 6 8 17 14 24 14
7 0 29 11 49 25 20 14 48 25 62 25 14 0 34 5 46 11 11 6 22 9 24 6 10 -10
-115 -238 -159 -290 -46 -54 -49 -60 -37 -82 11 -21 10 -36 -14 -112 -14 -49
-33 -124 -41 -168 -20 -107 -31 -131 -71 -156 -33 -20 -61 -56 -51 -65 3 -3
22 2 42 10 21 9 39 16 41 16 2 0 4 -63 4 -140 0 -127 -2 -142 -20 -160 -11
-11 -26 -20 -33 -20 -23 0 -91 -55 -110 -89 -16 -28 -16 -32 -3 -37 10 -4 36
12 72 45 85 78 89 74 90 -72 2 -145 19 -339 41 -457 l15 -85 -24 -15 c-33 -21
-108 -91 -108 -100 0 -25 35 -14 78 26 54 47 72 54 72 26 0 -9 11 -38 25 -64
14 -26 25 -56 25 -67 0 -11 14 -57 31 -103 54 -145 54 -136 17 -205 -18 -34
-30 -65 -26 -68 15 -16 46 8 62 48 16 40 17 41 32 22 8 -11 27 -44 41 -72 27
-52 27 -53 10 -89 -10 -20 -16 -38 -14 -40 2 -2 19 1 38 6 38 12 35 14 89 -69
l28 -45 -34 -68 c-33 -65 -43 -108 -26 -108 13 0 38 31 61 78 12 23 26 42 31
42 5 0 19 -18 30 -39 11 -22 24 -42 30 -46 5 -3 17 -21 26 -41 22 -46 83 -93
141 -107 25 -7 49 -18 51 -26 4 -11 -1 -12 -19 -7 -69 21 -72 21 -66 -10 3
-19 -4 -49 -23 -91 -33 -72 -39 -96 -25 -102 6 -3 25 20 43 50 19 32 40 54 50
54 22 0 82 -90 82 -124 0 -15 -9 -44 -20 -66 -42 -82 -7 -117 39 -39 22 36 41
45 41 18 0 -9 27 -43 60 -75 33 -32 60 -64 60 -71 0 -6 -12 -49 -27 -95 -15
-45 -24 -85 -20 -89 12 -12 34 15 57 69 12 29 24 54 26 56 3 3 36 -26 74 -64
67 -67 83 -96 59 -111 -16 -9 -69 -129 -69 -155 0 -14 5 -19 18 -17 11 2 29
33 52 90 38 94 50 113 50 80 0 -12 9 -30 20 -39 28 -24 25 -41 -15 -97 -32
-46 -37 -66 -14 -66 6 0 23 14 39 31 15 17 33 28 39 25 5 -4 24 -27 40 -52 76
-112 84 -151 67 -320 -8 -71 -11 -133 -7 -137 4 -4 18 1 31 11 18 14 26 37 36
93 l12 74 1 -56 c1 -30 7 -63 14 -73 17 -24 48 -17 63 13 l12 24 4 -23 c5 -39
31 -47 75 -24 l38 20 5 99 c5 109 31 184 60 175 23 -6 79 -4 87 4 4 4 -5 17
-19 29 -14 12 -31 33 -38 45 -10 21 -8 27 22 55 18 18 54 57 80 87 l46 54 42
-38 c58 -52 73 -36 37 36 -15 29 -27 64 -27 76 0 39 41 105 99 160 l56 54 22
-26 c32 -37 47 -34 39 9 -3 19 -9 51 -12 70 -5 27 -2 36 10 41 9 4 35 37 57
75 23 38 45 72 49 74 5 3 22 -6 38 -20 16 -14 35 -25 41 -25 15 0 13 40 -4 70
-8 14 -14 34 -15 46 0 46 94 184 126 184 7 0 24 -20 38 -44 24 -41 52 -63 64
-51 6 5 -2 29 -39 121 -12 30 -10 34 27 80 21 26 47 56 57 66 9 10 17 22 17
28 0 17 41 33 53 21 15 -15 47 -14 47 2 0 6 -9 26 -19 43 -18 30 -18 33 -1 83
19 57 73 131 95 131 22 0 28 19 15 50 -11 25 -8 35 19 87 18 33 53 83 78 112
39 44 53 74 94 193 27 78 49 143 49 145 0 2 22 -8 50 -22 27 -14 52 -25 55
-25 14 0 1 27 -34 69 -50 60 -55 78 -40 148 7 32 13 83 13 115 1 31 4 60 9 64
4 4 23 0 42 -9 39 -19 75 -22 75 -7 0 5 -20 23 -45 40 -56 39 -63 62 -67 245
l-3 140 25 -2 c14 -1 40 -5 58 -9 18 -3 32 -2 32 3 0 6 -27 33 -59 61 -63 56
-66 62 -75 197 -2 28 -9 62 -16 76 -9 20 -9 32 -1 47 6 11 11 30 11 42 0 15 5
20 18 17 45 -13 91 -17 96 -8 3 5 -6 28 -21 51 -25 38 -30 41 -67 38 -37 -3
-40 -1 -52 32 -7 19 -13 54 -13 77 -1 23 -12 68 -26 99 -28 63 -31 86 -12 83
27 -3 57 1 57 9 0 5 -27 21 -61 37 -61 28 -79 50 -79 98 0 13 -16 47 -35 77
-19 30 -31 58 -27 62 15 15 128 49 184 55 37 4 81 0 125 -10 113 -27 174 -36
271 -43 84 -6 97 -10 140 -40 54 -39 87 -45 77 -14 -6 19 -2 20 63 20 l70 0
37 -49 c50 -69 103 -86 71 -22 -9 16 -16 32 -16 36 0 16 247 -10 267 -29 6 -6
16 -49 22 -96 6 -47 18 -125 27 -174 l16 -89 -31 -29 c-17 -16 -31 -33 -31
-37 0 -18 15 -20 36 -6 31 20 36 9 37 -79 2 -62 -2 -80 -26 -124 -16 -29 -27
-60 -25 -69 2 -13 8 -12 34 10 l31 27 7 -38 c3 -20 6 -101 6 -179 0 -116 -3
-147 -17 -172 -21 -36 -17 -43 37 -50 11 -2 41 -61 55 -108 23 -74 19 -98 -20
-142 -19 -21 -35 -41 -35 -45 0 -16 39 -3 66 23 l30 29 28 -55 c16 -30 44 -66
62 -80 44 -33 49 -54 26 -100 -20 -38 -95 -228 -107 -271 -7 -25 18 -41 42
-26 13 8 81 172 105 253 12 41 23 31 35 -29 8 -44 9 -45 51 -48 34 -3 47 2 67
22 24 24 25 31 25 133 0 125 -19 262 -48 348 -11 33 -25 94 -31 136 -6 41 -13
83 -17 92 -9 25 9 21 63 -13 51 -32 73 -38 73 -17 0 16 -40 54 -100 94 -49 33
-63 65 -75 173 -3 30 -13 79 -21 108 -16 55 -9 82 22 82 23 0 16 13 -20 42
-21 17 -40 45 -50 74 -22 67 -21 94 5 94 31 0 18 22 -24 43 -30 15 -37 24 -37
49 0 38 -49 161 -99 247 -22 36 -50 91 -64 121 -24 57 -55 87 -142 143 -39 26
-50 38 -50 59 1 26 0 26 -75 24 -71 -1 -200 28 -200 45 0 3 10 18 21 33 30 38
18 42 -36 11 l-46 -27 -124 11 c-69 6 -135 11 -147 11 -20 0 -21 1 -3 20 15
17 16 20 3 20 -9 0 -32 -7 -51 -15 -38 -16 -151 -19 -221 -7 l-39 7 35 35 c19
19 43 41 52 49 10 7 15 15 12 18 -10 10 -48 -10 -92 -48 -25 -21 -54 -44 -65
-50 -28 -14 -406 -15 -489 -1 -36 7 -101 12 -145 12 -91 0 -198 28 -203 53 -2
10 13 24 40 39 37 19 40 23 21 26 -13 2 -52 -7 -88 -19 l-65 -22 -79 23 c-53
15 -89 20 -111 15 l-32 -7 21 28 c32 45 42 88 24 113 -17 25 -74 55 -120 66
-28 6 -33 11 -33 36 0 23 5 30 28 35 15 4 32 11 39 16 8 7 23 1 46 -16 79 -60
158 -68 296 -30 32 9 69 13 88 9 19 -3 60 -1 91 6 49 10 64 19 110 66 68 70
128 97 193 89 53 -7 62 3 33 35 -15 17 -14 21 10 63 32 55 37 58 106 72 l55
11 -37 16 c-21 10 -38 23 -38 30 0 7 26 43 57 80 45 52 64 67 85 67 31 0 45
17 29 33 -18 18 -13 42 20 86 18 26 47 50 73 61 54 24 56 28 46 55 -7 19 -2
31 28 65 19 24 51 49 69 56 20 9 30 19 27 27 -8 22 82 133 130 161 25 14 54
42 66 61 12 19 23 35 26 35 2 0 10 -13 19 -30 9 -16 22 -30 29 -30 15 0 46
-42 46 -63 0 -7 15 -31 33 -53 18 -21 44 -55 57 -74 13 -19 71 -84 130 -145
59 -60 131 -141 160 -180 30 -38 74 -91 98 -118 45 -50 81 -117 82 -153 0 -22
-60 -84 -81 -84 -16 0 -129 80 -129 91 0 6 8 6 21 -1 54 -29 66 26 19 85 -17
21 -33 50 -37 64 -3 14 -28 59 -55 99 -51 76 -92 107 -108 83 -5 -9 -15 10
-30 55 -25 78 -59 142 -137 259 -77 116 -92 135 -114 135 -26 0 -26 -49 0 -82
26 -33 28 -46 12 -96 -17 -50 -7 -66 20 -33 11 14 23 20 27 15 5 -5 21 -26 36
-48 l29 -38 -32 -25 c-31 -25 -65 -76 -55 -85 5 -6 67 23 90 43 12 10 18 9 32
-5 13 -12 17 -34 17 -81 0 -61 1 -64 21 -59 15 4 27 -2 43 -22 27 -34 26 -36
-5 -83 -28 -44 -44 -121 -25 -121 7 0 26 23 43 50 17 28 34 50 38 50 3 0 22
-37 41 -82 58 -138 56 -128 35 -143 -11 -8 -16 -21 -13 -30 7 -18 28 -20 45
-3 16 16 62 -9 62 -35 0 -10 -15 -37 -34 -59 -26 -30 -36 -53 -41 -93 -13 -97
36 -131 65 -45 21 63 25 67 83 96 29 15 62 35 74 47 27 24 23 26 57 -40 20
-41 33 -54 58 -61 34 -9 33 -7 78 -107 17 -38 48 -99 70 -135 21 -36 48 -94
59 -128 11 -35 30 -79 41 -97 11 -18 20 -43 20 -56 1 -13 7 -35 14 -48 10 -17
11 -32 3 -56 -8 -26 -4 -43 22 -102 32 -73 37 -93 24 -93 -11 1 -62 83 -75
122 -6 18 -19 45 -29 59 -11 15 -34 67 -53 115 -29 75 -114 261 -223 482 -26
53 -67 95 -87 89 -22 -7 -17 -48 9 -78 24 -29 25 -33 10 -55 -9 -15 -13 -34
-9 -49 4 -15 2 -25 -5 -25 -6 0 -11 -14 -11 -31 0 -43 32 -36 41 9 10 51 24
58 39 22 11 -26 10 -43 -4 -106 -19 -87 -21 -150 -5 -160 17 -10 27 13 39 88
7 38 15 68 19 68 3 0 14 -15 23 -32 39 -76 46 -105 41 -172 -6 -72 7 -88 27
-33 l12 32 29 -63 c29 -62 29 -64 14 -109 -17 -51 -12 -127 8 -120 7 2 15 23
20 46 7 34 11 40 22 31 8 -6 19 -28 26 -48 47 -147 156 -265 167 -184 2 13 14
27 27 32 43 16 44 35 9 149 -19 58 -34 111 -34 117 0 7 10 14 23 18 21 6 21 6
-10 31 -20 16 -30 31 -26 40 3 8 0 15 -6 15 -13 0 -42 61 -35 72 3 5 16 8 30
8 39 0 28 17 -20 29 -51 13 -80 46 -92 105 -7 38 -6 39 19 32 54 -13 30 31
-33 62 -14 7 -40 34 -57 59 -30 44 -32 48 -16 65 10 12 24 16 39 12 20 -5 24
-2 24 15 0 27 -26 38 -51 23 -28 -18 -37 -15 -53 17 -14 26 -14 30 4 46 28 25
25 35 -9 35 -34 0 -54 17 -82 71 -16 32 -25 39 -48 39 l-29 0 14 38 c17 49 17
106 0 140 -7 15 -17 42 -21 60 -6 30 -5 32 22 32 15 0 35 4 43 10 11 7 9 11
-13 19 -16 6 -39 11 -53 11 -37 0 -77 24 -108 64 -26 34 -26 36 -7 36 12 0 21
6 21 14 0 16 -21 26 -55 26 -16 0 -30 11 -44 33 -11 18 -31 43 -45 56 -14 14
-26 28 -26 32 0 13 68 39 104 39 20 0 36 4 36 9 0 13 -68 19 -134 11 -56 -6
-62 -5 -90 21 l-31 27 23 25 23 24 -23 7 c-13 3 -33 6 -44 6 -12 0 -32 9 -45
20 l-24 19 55 1 c105 1 98 32 -11 46 -69 8 -89 21 -130 84 -21 33 -46 56 -71
67 -26 12 -40 26 -43 43 -14 64 -21 74 -54 84 -23 7 -47 6 -77 -2 -24 -7 -57
-12 -73 -12 -22 0 -34 -9 -54 -39 -23 -34 -176 -182 -196 -189 -5 -2 -13 14
-18 35 -10 45 -36 52 -41 11 -2 -15 1 -44 7 -64 8 -28 7 -45 -4 -71 -15 -36
-111 -153 -125 -153 -4 0 -10 18 -14 40 -4 25 -12 40 -20 40 -21 0 -29 -35
-21 -96 6 -47 3 -60 -18 -97 -14 -23 -34 -50 -45 -60 -17 -16 -21 -16 -32 -2
-7 8 -21 15 -32 15 -17 0 -19 -5 -14 -27 19 -84 19 -90 -9 -137 l-28 -47 -18
30 c-10 17 -26 31 -34 31 -20 0 -19 -39 1 -68 23 -34 3 -73 -76 -150 -60 -60
-67 -63 -100 -58 -19 4 -72 9 -117 13 l-83 6 0 62 0 62 56 6 c94 10 102 47 11
47 -29 0 -57 4 -62 8 -10 7 -55 110 -55 125 0 4 11 7 25 7 35 0 31 20 -10 53
-52 41 -47 63 16 71 58 8 61 25 8 39 -56 14 -98 66 -79 96 4 7 32 18 62 25 44
10 69 25 117 67 33 30 87 68 118 85 32 17 67 45 78 62 16 24 28 32 55 33 19 0
46 4 60 8 l25 7 -32 17 -32 17 21 35 c25 43 36 49 113 65 33 6 68 14 78 16 32
10 17 22 -33 29 -27 4 -50 9 -50 11 0 3 9 22 20 43 25 50 74 91 109 91 15 0
36 7 47 15 18 14 18 15 -13 27 -18 7 -33 17 -33 23 0 19 74 82 128 109 30 15
51 32 49 39 -5 13 -5 13 -56 2 l-34 -7 22 30 c11 17 21 34 21 39 0 14 51 59
88 77 43 22 42 40 -3 32 -19 -4 -35 -3 -35 1 0 24 51 86 90 111 50 32 59 47
86 140 15 56 16 68 4 95 -7 18 -14 61 -14 97 -1 36 -5 71 -10 79 -12 19 -97 9
-132 -15 -15 -10 -34 -23 -43 -29 -45 -28 -100 -78 -106 -95 -8 -26 -25 -26
-25 -1 0 26 -17 36 -36 20 -12 -10 -14 -24 -9 -64 5 -47 3 -56 -27 -101 -18
-27 -37 -48 -43 -47 -5 1 -15 21 -20 44 -13 51 -30 60 -47 24 -9 -20 -9 -37 1
-78 22 -95 23 -113 7 -143 -17 -31 -51 -74 -59 -74 -3 0 -10 23 -17 50 -13 52
-35 66 -60 35 -15 -18 -6 -50 27 -93 28 -37 28 -39 -24 -131 l-36 -64 -26 31
c-35 43 -55 42 -48 0 2 -18 10 -47 18 -65 11 -27 10 -37 -6 -75 -25 -57 -32
-65 -47 -50 -11 11 -48 17 -48 8 0 -2 7 -23 15 -47 13 -36 13 -48 4 -67 -20
-37 -133 -122 -145 -109 -3 2 2 24 10 48 10 28 16 81 16 147 0 93 -3 111 -30
175 -41 97 -46 105 -62 89 -22 -22 -28 -13 -27 47 1 33 -2 64 -6 70 -10 17 9
13 67 -14 56 -26 102 -33 96 -14 -2 6 -39 32 -82 58 -78 46 -79 46 -98 110
-24 78 -20 92 26 89 69 -4 56 25 -16 37 -45 8 -53 21 -63 95 -4 30 -13 71 -20
91 -8 21 -11 40 -8 43 10 10 68 7 101 -5 27 -9 40 -7 87 14 30 14 67 38 82 53
l26 26 54 -26 c29 -14 58 -26 63 -26 23 0 7 30 -34 64 l-45 36 13 38 c36 101
51 110 115 71 18 -11 42 -19 53 -17 20 3 20 3 -1 30 -12 15 -39 35 -61 44 -36
16 -40 22 -40 54 0 20 10 56 23 80 l22 45 73 -3 c46 -3 72 0 72 7 0 19 -41 32
-88 29 l-47 -2 -14 43 c-13 40 -12 55 13 171 24 115 26 134 15 191 -24 135
-28 166 -28 230 l-1 66 41 7 c96 15 103 54 7 41 -29 -4 -55 -8 -56 -9 -2 0 -4
32 -5 73 0 65 2 75 23 91 l23 17 -26 7 c-22 5 -27 15 -37 64 -7 31 -20 78 -30
105 -12 31 -15 49 -8 53 6 4 69 11 140 15 71 5 133 11 138 14 5 3 45 10 90 16
244 30 499 120 557 196 19 25 33 33 57 33 39 0 58 20 140 142 61 91 64 105 41
184 -5 16 -2 23 13 26 24 7 68 95 84 170 14 66 6 83 -45 94 -43 9 -67 26 -67
46 0 30 31 96 47 102 13 5 14 1 8 -26 -23 -99 3 -127 48 -51 38 62 43 95 23
148 -17 43 -17 45 4 73 27 36 40 94 28 116 -12 21 -1 72 23 112 25 41 24 79
-3 104 -12 11 -25 20 -30 20 -13 0 -9 72 5 100 7 14 21 26 31 28 17 4 18 3 2
-19 -9 -13 -16 -38 -16 -56 0 -83 84 1 102 102 8 40 18 58 50 88 39 35 40 39
36 87 -4 44 -2 52 23 76 34 33 59 83 59 118 0 15 12 44 26 66 15 22 28 52 30
66 3 33 25 57 81 89 52 31 169 184 201 264 52 127 8 218 -104 215 -23 0 -55
-9 -69 -18 -34 -23 -94 -116 -121 -191 -27 -74 -111 -222 -159 -281 -19 -23
-35 -48 -35 -56 0 -21 -37 -158 -60 -223 -12 -33 -32 -70 -46 -83 -13 -13 -26
-41 -29 -61 -12 -70 -15 -81 -29 -81 -19 0 -33 -38 -41 -114 -4 -37 -13 -73
-20 -79 -22 -22 -33 -51 -40 -106 -4 -30 -16 -72 -26 -95 -20 -45 -24 -103
-10 -153 7 -23 5 -37 -5 -52 -8 -11 -19 -57 -25 -103 -5 -46 -15 -101 -21
-123 -6 -22 -18 -98 -27 -170 l-16 -130 -35 0 c-41 0 -59 -28 -60 -90 -1 -55
-23 -202 -33 -211 -4 -4 -7 -2 -7 4 0 14 -64 32 -116 32 -41 0 -243 -57 -374
-105 -198 -73 -455 -134 -739 -175 l-145 -22 -18 24 c-9 13 -18 28 -18 34 0 5
-14 29 -31 52 -17 23 -26 42 -20 42 5 0 13 -4 16 -10 9 -15 42 -12 68 5 12 8
63 26 112 40 l90 26 28 -33 c15 -18 42 -52 60 -76 l32 -44 17 22 c10 12 18 29
18 38 0 23 -59 110 -90 132 -27 19 -27 20 -33 167 l-6 147 -57 148 c-71 185
-124 257 -228 306 -36 17 -73 29 -81 26 -23 -9 -28 -47 -22 -156 5 -75 2 -117
-10 -167 -10 -41 -13 -81 -9 -104 7 -38 91 -171 137 -217 29 -29 59 -81 59
-103 0 -8 7 -21 16 -28 14 -11 19 -10 35 10 30 36 23 71 -24 136 -61 85 -136
211 -152 256 -12 33 -12 45 0 80 8 23 15 72 15 110 0 74 6 81 45 51 31 -24 98
-112 86 -112 -6 0 -13 5 -16 10 -14 22 -35 10 -35 -21 0 -38 14 -65 57 -110
28 -30 37 -51 55 -135 12 -54 23 -121 24 -149 2 -73 2 -72 30 -79 42 -11 22
-29 -71 -63 -48 -18 -95 -39 -103 -45 -9 -8 -17 -9 -19 -3 -17 51 -104 183
-136 206 -49 35 -131 53 -222 47 -86 -6 -125 -25 -167 -83 -47 -63 -85 -82
-136 -67 -31 10 -41 18 -45 40 -7 38 14 92 56 144 21 25 37 52 37 61 0 9 9 39
20 66 17 43 18 62 11 147 -7 79 -5 111 10 178 26 116 26 116 -22 116 -36 0
-54 -9 -133 -70 -135 -104 -189 -182 -231 -338 -20 -69 -19 -86 9 -222 27
-135 24 -152 -39 -195 -25 -16 -59 -49 -76 -72 -35 -50 -50 -52 -154 -24 -39
10 -101 24 -140 30 -38 6 -97 15 -130 21 -33 5 -114 16 -180 25 -66 9 -150 23
-186 31 -37 8 -77 14 -89 14 -26 0 -60 17 -77 39 -8 10 -12 48 -11 106 1 76
-3 96 -21 126 -19 33 -21 42 -11 82 13 51 2 83 -44 126 -25 23 -26 30 -26 123
0 85 -3 101 -20 118 -16 16 -20 33 -20 91 0 65 -3 74 -30 106 -23 26 -30 43
-30 77 0 46 -27 137 -44 148 -6 4 -21 8 -34 8 -35 0 -77 25 -90 54 -16 36 -2
32 38 -9 18 -19 37 -32 42 -29 15 9 8 98 -10 134 -10 21 -27 37 -42 40 -20 5
-24 12 -22 33 1 14 -6 61 -17 104 -11 43 -27 118 -35 168 -12 67 -24 103 -50
145 -20 31 -50 97 -67 146 -18 49 -43 105 -56 126 -17 25 -26 55 -29 100 -9
115 -53 232 -115 302 -31 36 -123 86 -157 86 -10 0 -28 -10 -40 -22z m100 -98
c48 -14 103 -72 123 -130 20 -56 46 -200 39 -211 -9 -16 -37 -10 -61 13 -28
26 -30 43 -3 26 32 -20 45 3 23 39 -40 65 -170 209 -186 205 -14 -4 -19 26 -7
47 12 24 20 25 72 11z m5226 -106 c28 -19 28 -40 1 -47 -11 -3 -23 -14 -26
-25 -2 -10 -25 -36 -49 -56 -24 -21 -57 -60 -74 -88 -26 -46 -27 -53 -13 -63
19 -14 9 -35 -17 -35 -11 0 -22 11 -28 30 -23 64 108 300 165 300 10 0 29 -7
41 -16z m-5168 -154 c0 -5 -2 -10 -4 -10 -3 0 -8 5 -11 10 -3 6 -1 10 4 10 6
0 11 -4 11 -10z m138 -182 c18 -18 14 -38 -7 -38 -21 0 -31 17 -23 38 5 15 15
15 30 0z m4767 -39 c8 -23 -7 -45 -24 -35 -12 8 -15 39 -4 49 12 12 22 7 28
-14z m-4679 -111 c12 -28 7 -61 -9 -55 -18 6 -50 54 -43 66 12 19 42 12 52
-11z m4612 -45 c2 -8 -5 -13 -17 -13 -12 0 -21 6 -21 16 0 18 31 15 38 -3z
m-38 -126 c0 -7 -6 -22 -14 -33 -8 -11 -16 -31 -18 -44 -2 -19 -9 -25 -28 -25
-22 0 -25 4 -22 29 5 50 30 86 57 86 14 0 25 -6 25 -13z m-4512 -19 c7 -7 12
-31 12 -55 0 -32 -5 -45 -19 -53 -27 -14 -28 -14 -40 21 -16 46 -14 77 7 88
22 13 26 13 40 -1z m4412 -183 c0 -16 -38 -45 -58 -45 -8 0 -3 13 14 35 26 34
44 38 44 10z m-4346 -67 c26 -55 26 -68 -3 -68 -35 0 -81 86 -58 109 21 21 36
11 61 -41z m4211 -317 c-3 -17 -11 -33 -16 -36 -10 -7 -12 45 -3 70 11 28 27
0 19 -34z m-4006 -313 c1 -15 11 -37 23 -48 19 -18 20 -22 8 -30 -22 -14 -27
-12 -44 12 -16 23 -22 109 -9 122 9 9 21 -21 22 -56z m1581 -140 c0 -40 3
-129 6 -198 l7 -125 -43 -50 c-24 -28 -56 -78 -72 -112 -25 -57 -31 -63 -58
-63 -33 0 -40 17 -12 27 29 11 32 24 31 158 0 137 2 152 45 252 32 76 32 79 4
87 -22 6 -20 9 27 51 27 25 53 45 57 45 5 0 8 -33 8 -72z m-1520 -43 c0 -30
-22 -115 -30 -115 -10 0 -16 20 -25 83 l-6 47 30 0 c20 0 31 -5 31 -15z m1386
-30 c-3 -9 -11 -13 -16 -10 -8 5 -7 11 1 21 14 18 24 11 15 -11z m2477 -102
c2 -5 -6 -37 -18 -73 -18 -55 -22 -61 -28 -40 -9 32 -9 105 0 113 9 9 41 9 46
0z m-3833 -169 c0 -8 -4 -14 -10 -14 -12 0 -31 35 -23 44 9 8 33 -14 33 -30z
m3734 -142 c-10 -15 -29 -46 -42 -70 -24 -43 -67 -80 -79 -68 -4 3 6 19 20 34
15 16 27 35 27 44 0 37 23 77 48 86 38 13 46 5 26 -26z m-3677 -44 c7 -37 17
-77 23 -87 12 -24 13 -61 1 -61 -4 0 -26 39 -47 88 -21 48 -42 92 -47 99 -14
19 2 34 31 31 25 -3 28 -9 39 -70z m1885 -16 c31 -15 54 -38 81 -78 20 -31 37
-61 37 -66 0 -5 -13 -7 -28 -3 -19 4 -48 -2 -82 -15 -49 -19 -56 -20 -95 -7
-50 18 -131 7 -183 -24 -42 -24 -42 -24 -42 5 0 13 -6 42 -14 64 -15 40 -14
41 19 83 50 64 66 70 171 66 67 -3 104 -10 136 -25z m1541 -120 c21 -19 22
-30 0 -54 -20 -22 -33 -23 -33 -3 0 8 -2 15 -6 15 -13 0 -190 -52 -255 -76
-46 -17 -109 -30 -169 -35 -52 -4 -113 -13 -135 -18 -22 -6 -48 -11 -57 -11
-31 0 -20 18 15 25 66 14 205 58 284 92 45 18 115 41 154 49 40 8 83 23 96 34
20 16 29 17 56 8 18 -6 40 -18 50 -26z m-2913 -86 c58 -8 151 -22 206 -30 102
-15 184 -41 184 -57 0 -14 -67 -10 -82 5 -22 21 -44 25 -201 36 -105 7 -162
15 -195 29 -26 11 -60 24 -77 30 -28 10 -27 11 15 7 25 -3 92 -12 150 -20z
m2140 -101 c0 -10 -57 -32 -97 -39 -64 -10 -61 11 4 24 32 6 63 13 68 15 15 5
25 5 25 0z m-142 -127 c16 -16 16 -68 0 -68 -6 0 -22 10 -35 22 -19 18 -27 20
-42 11 -15 -9 -26 -8 -54 5 -20 9 -36 20 -37 24 0 17 152 22 168 6z m-1515
-546 c-2 -6 -6 -37 -9 -69 -8 -68 -19 -103 -34 -103 -5 0 -10 14 -10 30 0 27
-3 30 -30 30 -21 0 -30 5 -30 16 0 23 37 81 63 99 24 17 53 15 50 -3z m1550
-125 c37 -67 36 -132 -2 -132 -18 0 -30 12 -52 54 -33 61 -37 105 -11 120 29
17 36 13 65 -42z m-1483 -31 c0 -8 -4 -18 -10 -21 -5 -3 -10 3 -10 14 0 12 5
21 10 21 6 0 10 -6 10 -14z m820 -743 c47 -20 96 -43 110 -51 34 -21 90 -74
90 -85 0 -5 18 -34 40 -66 28 -40 45 -80 59 -136 71 -299 72 -301 73 -431 2
-111 -1 -136 -18 -179 -26 -61 -36 -125 -24 -145 15 -25 48 16 70 89 30 98 35
103 69 61 31 -37 41 -82 41 -184 0 -55 -5 -71 -56 -163 -31 -57 -62 -103 -69
-103 -23 0 -56 110 -70 229 -3 30 -13 79 -21 110 -16 65 -19 188 -3 227 13 36
4 74 -19 74 -43 0 -70 -215 -43 -335 6 -27 18 -90 25 -140 24 -149 45 -268 56
-310 21 -77 40 -170 40 -193 0 -15 -8 -26 -25 -32 -23 -9 -25 -14 -19 -47 19
-112 35 -178 49 -199 8 -13 15 -34 15 -46 0 -39 -34 -120 -62 -149 -16 -15
-28 -34 -28 -42 0 -11 -22 -16 -92 -21 -84 -6 -98 -4 -161 20 -91 35 -75 44
80 44 136 0 153 4 153 32 0 11 10 28 22 37 12 10 18 23 14 29 -11 18 -45 14
-84 -10 -43 -26 -137 -28 -194 -4 -34 15 -40 15 -73 -1 -31 -15 -45 -15 -118
-5 -45 6 -94 14 -109 18 -24 5 -28 3 -28 -15 0 -28 -34 -27 -120 2 -56 19 -66
26 -73 53 -8 27 -3 40 38 103 25 40 45 80 43 88 -2 10 -12 2 -28 -23 -21 -33
-31 -39 -59 -39 -27 0 -38 -6 -53 -30 -10 -16 -18 -45 -18 -62 0 -18 -5 -33
-11 -33 -7 0 -9 14 -5 43 4 23 6 62 6 87 0 28 12 76 31 125 36 94 120 343 144
432 18 64 14 113 -8 113 -11 0 -53 -121 -101 -290 -7 -25 -22 -64 -32 -85 -18
-37 -19 -38 -23 -15 -6 47 71 382 126 547 40 121 44 140 41 215 -5 128 -23
105 -63 -77 -10 -44 -35 -132 -56 -195 -22 -63 -39 -125 -39 -137 0 -13 -3
-23 -6 -23 -11 0 -124 92 -133 108 -5 9 -12 52 -16 95 -5 54 -11 77 -21 77
-25 0 -35 -38 -29 -113 9 -99 22 -135 53 -151 28 -15 111 -96 99 -96 -21 0
-88 43 -112 72 -41 48 -76 130 -82 190 -4 45 -1 60 21 98 15 25 32 57 38 73 7
15 17 26 23 24 5 -2 24 -28 40 -59 17 -30 37 -63 45 -73 13 -16 15 -16 32 4
19 24 21 16 -43 159 -27 59 -52 148 -52 187 -1 64 22 245 35 272 16 35 64 41
61 8 -1 -11 -8 -71 -14 -133 -14 -121 -5 -214 26 -289 15 -36 16 -37 35 -17
17 18 18 24 4 104 -16 100 -19 254 -4 245 6 -3 10 -24 10 -45 0 -89 37 -187
59 -152 8 13 7 300 -2 308 -3 4 -16 -11 -29 -32 -21 -35 -23 -37 -26 -16 -10
66 43 205 108 282 37 44 54 100 31 100 -18 0 -99 -75 -120 -111 -11 -19 -27
-61 -35 -92 -8 -32 -18 -62 -21 -67 -8 -13 -62 -13 -70 0 -7 11 41 100 91 170
17 25 38 60 45 77 8 19 43 56 83 88 57 45 77 55 110 56 23 1 52 5 66 9 53 18
181 0 270 -37z m-1905 -124 c4 -17 3 -35 -1 -39 -5 -5 -76 -26 -159 -46 -141
-35 -215 -68 -215 -95 0 -13 34 -11 49 4 11 10 13 9 9 -2 -2 -7 -20 -23 -40
-35 -36 -21 -37 -21 -51 -2 -14 19 -17 18 -93 -23 -43 -24 -122 -73 -174 -110
-52 -37 -112 -77 -132 -90 -21 -12 -48 -35 -60 -51 -23 -28 -166 -110 -192
-110 -8 0 -17 -16 -21 -37 -4 -21 -12 -41 -18 -45 -7 -4 -42 -8 -78 -8 -82 0
-101 15 -73 58 11 16 29 45 42 65 13 20 40 46 60 59 19 12 61 43 93 70 151
126 384 266 518 313 36 13 89 32 116 43 28 11 88 30 135 41 71 18 165 44 230
65 36 11 49 5 55 -25z m181 1 c34 -13 208 -182 277 -270 29 -36 57 -69 63 -75
6 -5 31 -46 54 -90 24 -44 58 -102 75 -130 35 -56 104 -188 130 -250 43 -102
109 -233 134 -265 56 -71 56 -76 10 -110 -23 -16 -47 -30 -53 -30 -22 0 -176
173 -176 197 0 21 15 15 60 -22 23 -19 46 -32 51 -29 21 13 4 45 -68 131 -43
50 -107 139 -141 197 -35 59 -76 122 -92 139 -15 18 -57 95 -92 173 -35 77
-81 162 -101 188 -20 27 -37 55 -37 62 0 8 -16 32 -36 54 -36 40 -74 53 -74
26 0 -20 65 -130 102 -171 16 -19 34 -51 40 -72 15 -55 118 -262 138 -276 22
-15 40 -50 40 -76 0 -45 -19 -25 -66 67 -27 53 -52 99 -55 102 -3 3 -34 62
-68 132 -49 99 -77 143 -132 203 -73 80 -89 107 -89 155 0 45 46 62 106 40z
m3144 -87 c0 -4 -11 -19 -25 -33 -22 -23 -24 -29 -13 -63 15 -49 0 -84 -39
-89 -41 -5 -153 -142 -193 -237 -17 -40 -51 -103 -74 -140 -24 -36 -61 -95
-82 -130 -21 -36 -78 -117 -126 -180 l-88 -116 0 -68 c0 -77 -13 -105 -67
-138 -45 -28 -59 -15 -38 34 8 20 15 56 15 79 0 30 8 55 25 80 14 20 25 41 25
45 0 4 7 22 16 38 9 17 63 122 121 235 57 113 112 212 123 220 11 8 42 60 71
115 28 55 68 123 89 150 52 67 158 169 195 188 32 16 65 21 65 10z m-111 -334
c-61 -150 -229 -419 -229 -368 0 8 18 46 41 84 23 39 61 111 86 160 38 78 115
195 128 195 2 0 -9 -32 -26 -71z m-4529 -332 c0 -8 -9 -22 -20 -32 -31 -29
-143 -225 -152 -270 -5 -22 -12 -58 -17 -80 -4 -22 -16 -53 -26 -70 -24 -38
-91 -105 -98 -99 -8 8 13 67 28 79 22 18 42 69 54 136 12 72 35 144 73 230 18
38 39 65 69 87 44 33 89 42 89 19z m4286 -74 c-10 -10 -19 5 -10 18 6 11 8 11
12 0 2 -7 1 -15 -2 -18z m-146 -153 c0 -5 -5 -10 -11 -10 -5 0 -7 5 -4 10 3 6
8 10 11 10 2 0 4 -4 4 -10z m815 -180 c8 -26 -3 -60 -19 -60 -7 0 -27 -11 -46
-25 -19 -14 -44 -25 -57 -25 -27 0 -99 -73 -198 -201 -36 -46 -82 -105 -103
-130 -20 -26 -62 -79 -92 -120 -30 -40 -64 -82 -76 -94 -102 -109 -187 -241
-143 -223 8 4 22 9 32 13 31 13 18 -15 -31 -63 -63 -62 -171 -125 -189 -111
-21 18 -15 36 17 49 31 13 108 114 185 242 61 102 187 287 231 340 21 25 57
72 79 105 57 83 242 271 295 298 57 31 106 33 115 5z m-1110 -47 c8 -22 -43
-173 -66 -197 -17 -19 -19 -19 -38 -2 -31 28 -31 53 0 111 16 30 29 61 29 69
0 19 38 46 55 39 8 -2 16 -12 20 -20z m-1492 -35 c8 -18 17 -57 20 -85 7 -61
0 -65 -62 -33 -26 13 -43 30 -50 51 -10 29 -8 34 23 65 19 19 39 34 45 34 6 0
17 -15 24 -32z m-2681 -100 c-7 -7 -12 -8 -12 -2 0 14 12 26 19 19 2 -3 -1
-11 -7 -17z m1518 -175 c30 -13 69 -35 86 -48 18 -14 45 -29 59 -35 40 -15
104 -62 167 -123 32 -31 67 -58 77 -62 11 -3 33 -27 50 -53 16 -26 34 -53 39
-61 5 -7 22 -15 36 -16 35 -4 54 -18 151 -104 44 -40 98 -81 120 -93 22 -11
47 -27 56 -35 10 -8 41 -20 69 -28 60 -16 112 -59 108 -90 -3 -17 -9 -20 -47
-17 -64 4 -109 26 -117 56 -4 19 -24 36 -73 62 -103 57 -197 120 -261 177 -32
29 -75 64 -97 80 -81 58 -133 104 -186 168 -30 36 -67 73 -81 82 -34 22 -74
22 -78 0 -3 -13 -17 -1 -53 45 -27 34 -58 64 -69 67 -111 22 -126 27 -116 40
25 30 76 26 160 -12z m-1650 -31 c0 -5 -14 -28 -30 -50 -34 -48 -70 -57 -70
-18 0 37 37 76 71 76 16 0 29 -4 29 -8z m1468 -38 l23 -16 -30 -34 c-17 -18
-49 -74 -72 -124 -23 -49 -45 -90 -50 -90 -4 0 -9 12 -11 27 -5 40 -24 39 -51
-4 -86 -136 -200 -339 -216 -384 -10 -30 -35 -88 -55 -129 -53 -110 -46 -180
12 -112 13 15 21 20 18 12 -12 -35 -54 -131 -59 -137 -10 -10 -95 18 -112 37
-23 26 -21 96 4 150 11 25 21 56 21 70 1 67 132 295 238 414 26 28 82 95 125
147 42 52 100 112 127 133 28 21 50 42 50 47 0 13 13 11 38 -7z m-1648 -48 c0
-3 -4 -8 -10 -11 -5 -3 -10 -1 -10 4 0 6 5 11 10 11 6 0 10 -2 10 -4z m30 -95
c0 -40 -36 -55 -61 -25 -10 13 -10 17 2 25 18 11 59 12 59 0z m1957 -27 c-9
-9 -28 6 -21 18 4 6 10 6 17 -1 6 -6 8 -13 4 -17z m1237 -9 c-4 -8 -8 -15 -10
-15 -2 0 -4 7 -4 15 0 8 4 15 10 15 5 0 7 -7 4 -15z m-3308 -76 c11 -18 8 -89
-4 -101 -12 -12 -61 19 -62 40 0 15 40 71 52 71 4 1 10 -4 14 -10z m1574 -89
c0 -6 -12 -29 -27 -53 -21 -32 -28 -38 -31 -24 -2 10 7 34 20 53 23 34 38 43
38 24z m1717 -97 c13 -17 48 -47 76 -65 42 -27 61 -33 114 -34 72 -1 84 -7 52
-24 -31 -17 -133 -7 -166 17 -14 10 -34 23 -45 29 -11 7 -35 26 -54 45 -27 26
-32 38 -27 58 9 39 17 48 21 26 3 -11 15 -34 29 -52z m1098 -100 c-4 -27 -14
-48 -28 -58 -25 -18 -67 -20 -67 -4 0 16 61 140 79 163 15 17 16 16 19 -20 2
-22 1 -58 -3 -81z m-4488 101 c-3 -3 -12 -4 -19 -1 -8 3 -5 6 6 6 11 1 17 -2
13 -5z m1588 -90 c-15 -24 -45 -33 -45 -14 0 6 12 29 27 53 l28 42 3 -28 c2
-16 -4 -39 -13 -53z m2346 47 l23 -19 -32 -7 c-58 -12 -112 12 -85 38 13 14
72 6 94 -12z m-135 -61 c61 -26 68 -45 14 -36 -46 7 -120 43 -120 59 0 11 54
0 106 -23z m-1121 -30 c3 -5 -1 -10 -9 -10 -8 0 -18 5 -21 10 -3 6 1 10 9 10
8 0 18 -4 21 -10z m545 -9 c0 -11 8 -22 19 -26 28 -9 56 -44 45 -55 -19 -19
-124 -32 -155 -20 -16 7 -29 17 -29 23 0 16 86 97 104 97 9 0 16 -8 16 -19z
m1520 -49 c42 -21 62 -65 39 -87 -12 -13 -24 -13 -72 -4 -42 9 -68 9 -102 0
-25 -6 -50 -9 -56 -6 -18 12 -9 59 18 87 23 24 34 28 82 28 33 0 70 -7 91 -18z
m-743 -111 c43 -20 68 -53 59 -77 -4 -10 -23 -14 -65 -14 -82 0 -91 5 -91 49
0 63 26 74 97 42z m192 -180 c45 -21 48 -33 11 -54 -25 -15 -36 -16 -69 -7
-22 6 -91 10 -154 9 -138 -2 -185 15 -141 52 38 31 289 31 353 0z m-14 -127
c39 -4 75 -13 80 -21 6 -7 33 -17 60 -22 167 -32 505 -187 623 -287 35 -29 76
-61 92 -71 33 -19 39 -40 14 -50 -10 -4 -30 9 -57 35 -46 45 -67 60 -207 157
-98 67 -148 89 -170 75 -12 -8 0 -19 105 -94 28 -20 73 -51 101 -70 49 -32
102 -92 91 -102 -2 -3 -24 0 -48 5 -102 24 -103 8 -7 -79 82 -74 153 -166 163
-211 4 -17 13 -42 21 -57 8 -15 14 -34 14 -42 0 -22 29 -60 46 -60 48 0 -19
197 -117 342 -22 31 -39 62 -39 67 0 23 20 9 62 -41 24 -28 53 -62 65 -75 30
-31 70 -145 88 -250 8 -46 17 -89 21 -94 23 -37 49 43 41 128 -9 94 16 82 59
-30 34 -86 36 -107 10 -107 -7 0 -32 -14 -56 -31 -88 -64 -134 -78 -333 -104
-64 -8 -141 -24 -170 -34 -88 -33 -205 -61 -337 -82 -278 -45 -816 -32 -1140
27 -171 31 -192 37 -460 128 -41 14 -102 34 -135 43 -78 23 -86 47 -19 57 36
5 52 2 65 -10 14 -12 22 -13 38 -4 18 9 25 7 45 -16 15 -18 28 -25 40 -21 17
7 20 13 30 57 5 25 100 161 164 236 93 108 152 186 152 199 0 25 -23 17 -75
-26 -38 -32 -55 -40 -76 -35 -15 3 -34 -1 -45 -9 -41 -31 -36 -13 6 25 56 49
212 148 349 220 116 61 141 87 72 76 -38 -6 -83 -25 -210 -91 -48 -25 -198
-130 -236 -165 -11 -10 -44 -35 -74 -55 -93 -62 -126 -48 -66 26 50 62 46 59
132 117 43 29 101 68 128 87 116 80 226 142 310 176 84 34 90 38 90 65 0 25 5
30 45 41 25 7 74 16 110 18 44 4 75 12 99 28 32 22 42 23 205 21 94 -2 203 -6
241 -10z m-2915 -46 c-13 -49 -66 -201 -82 -234 -8 -16 -23 -60 -33 -99 -10
-38 -21 -74 -26 -80 -8 -11 -44 -116 -53 -155 -8 -39 -29 -62 -49 -54 -23 8
-21 42 3 79 11 17 20 37 20 46 0 9 9 28 20 42 11 14 20 40 20 59 0 19 5 39 11
45 6 6 14 26 19 44 13 54 54 158 99 252 42 88 66 114 51 55z m2150 -48 c-20
-13 -43 -13 -35 0 3 6 16 10 28 10 18 0 19 -2 7 -10z m-370 -30 c0 -5 -5 -10
-11 -10 -5 0 -7 5 -4 10 3 6 8 10 11 10 2 0 4 -4 4 -10z m280 1 c0 -5 -15 -14
-32 -20 -42 -15 -214 -111 -301 -169 -38 -25 -92 -72 -120 -103 -29 -31 -68
-66 -87 -78 -19 -11 -53 -46 -75 -77 -75 -106 -115 -154 -130 -154 -39 0 4 67
148 229 77 86 119 123 212 186 63 42 123 90 132 105 13 22 35 35 107 58 92 31
146 39 146 23z m-360 -31 c0 -5 -18 -19 -40 -30 -22 -11 -61 -34 -87 -50 -57
-36 -63 -37 -63 -6 0 34 37 73 80 85 47 12 110 13 110 1z m2069 -70 c37 -16
53 -30 57 -47 7 -27 -10 -73 -26 -73 -12 0 -161 112 -181 136 -13 16 -10 17
42 11 31 -3 79 -15 108 -27z m601 17 c17 -8 57 -10 130 -7 66 3 131 0 175 -8
39 -7 95 -17 125 -22 30 -5 84 -18 120 -29 36 -12 73 -21 83 -21 9 0 38 -13
65 -30 58 -37 39 -39 -74 -9 -133 35 -154 38 -321 45 -162 7 -163 7 -163 -14
0 -20 -5 -22 -57 -22 -32 0 -85 7 -119 15 -33 7 -125 17 -204 21 l-143 7 7
-28 c8 -32 -4 -45 -45 -45 -32 0 -36 10 -45 95 l-7 65 224 0 c158 0 231 -4
249 -13z m-2948 -9 c11 -9 17 -33 20 -73 3 -58 3 -59 -27 -68 -16 -5 -50 -20
-75 -33 -25 -14 -114 -58 -199 -99 -119 -58 -157 -72 -167 -64 -8 6 -14 17
-14 23 0 13 61 46 86 46 8 0 61 24 117 53 57 28 118 59 137 67 43 19 61 47 40
61 -24 16 -76 3 -138 -34 -31 -19 -102 -54 -157 -77 -174 -74 -351 -183 -477
-293 -62 -54 -148 -126 -190 -158 -84 -65 -109 -95 -84 -105 8 -3 30 -1 50 4
20 6 36 7 36 3 0 -16 -41 -60 -73 -80 -28 -17 -38 -18 -82 -9 -28 6 -56 15
-62 20 -15 12 -18 94 -4 103 6 3 30 36 55 73 49 72 101 132 114 132 5 0 19 11
32 25 13 14 29 25 36 25 12 0 58 35 199 155 36 30 304 163 395 195 36 13 70
27 75 31 6 4 37 14 70 23 33 9 96 27 140 41 91 27 124 30 147 13z m2854 -148
c19 -8 24 -14 16 -22 -13 -13 -73 -6 -127 15 l-40 16 62 1 c34 0 74 -5 89 -10z
m234 -40 c0 -6 -27 -9 -65 -7 -84 3 -85 17 0 17 37 0 65 -4 65 -10z m710 -11
c9 -16 8 -26 -6 -47 l-17 -26 -23 28 c-13 15 -24 36 -24 47 0 28 55 27 70 -2z
m-1260 -10 c19 -1 17 -3 -10 -8 -39 -8 -60 -4 -60 11 0 6 10 8 23 4 12 -3 33
-6 47 -7z m780 -9 c0 -5 -7 -10 -16 -10 -8 0 -12 5 -9 10 3 6 10 10 16 10 5 0
9 -4 9 -10z m567 -152 c6 -7 15 -29 22 -48 6 -19 20 -43 30 -55 11 -11 27 -40
36 -65 51 -142 49 -129 31 -163 -17 -31 -16 -35 32 -197 27 -91 53 -193 57
-227 7 -63 7 -63 -19 -63 -14 0 -26 -3 -26 -8 0 -4 13 -59 30 -122 69 -271
105 -480 82 -480 -4 0 -27 19 -50 43 -36 37 -47 58 -71 143 -16 54 -32 107
-36 117 -11 26 6 21 30 -10 25 -31 45 -24 45 16 0 28 -33 81 -50 81 -5 0 -11
-13 -15 -30 -4 -16 -11 -30 -16 -30 -17 0 -39 60 -39 106 0 27 -5 98 -11 160
-14 143 -11 161 19 111 28 -48 48 -44 45 9 -4 72 -11 85 -41 82 -24 -3 -28 1
-39 42 -6 25 -12 80 -12 122 -1 94 -18 209 -39 263 -15 40 -24 215 -11 215 4
0 11 -6 16 -12z m-3827 -105 c-1 -14 -70 -103 -80 -103 -13 0 2 31 37 78 22
30 43 42 43 25z m-790 -48 c-7 -8 -17 -15 -22 -15 -6 0 -5 7 2 15 7 8 17 15
22 15 6 0 5 -7 -2 -15z m856 -51 c-14 -26 -26 -56 -26 -68 0 -11 -4 -27 -9
-34 -6 -11 -9 -9 -13 6 -7 24 25 118 49 144 28 31 27 2 -1 -48z m-246 14 c0
-17 -40 -82 -46 -75 -6 5 33 87 41 87 3 0 5 -6 5 -12z m76 -76 c-18 -35 -36
-50 -36 -29 0 16 40 70 47 63 2 -2 -3 -18 -11 -34z m-840 10 c-8 -13 -46 -22
-46 -11 0 10 42 30 49 23 1 -1 0 -7 -3 -12z m-297 -355 c17 -89 22 -157 13
-157 -6 0 -12 9 -15 21 -9 33 -32 17 -31 -22 1 -48 33 -368 40 -404 3 -16 30
-131 61 -255 l55 -225 -16 -105 c-18 -118 -20 -176 -7 -184 30 -19 55 106 55
284 0 128 -7 178 -51 370 -4 17 -2 22 4 15 13 -13 79 -224 94 -296 13 -70 13
-273 -2 -369 -13 -88 -39 -154 -67 -169 -21 -11 -25 -26 -37 -116 l-7 -50 -34
40 c-51 60 -62 102 -84 320 -12 110 -25 216 -29 235 -5 19 -12 67 -15 105 -4
39 -15 126 -25 195 -42 276 -43 319 -21 515 26 227 37 294 57 324 l16 25 18
-22 c10 -13 22 -46 28 -75z m3826 51 c36 -163 55 -254 55 -269 0 -11 -9 -28
-20 -39 l-21 -21 23 -32 c20 -28 23 -46 26 -153 2 -67 -2 -147 -8 -180 -7 -32
-13 -102 -14 -154 -2 -109 -16 -167 -51 -208 -17 -20 -25 -42 -25 -68 0 -41
-23 -74 -51 -74 -19 0 -20 -3 31 155 30 91 39 150 50 344 9 145 8 203 -4 312
-8 74 -18 166 -21 204 -4 39 -13 88 -20 109 -13 36 -12 41 8 67 27 34 35 35
42 7z m-2841 -37 c27 -28 28 -32 18 -78 -57 -255 -72 -735 -32 -1013 12 -82
12 -82 0 -75 -22 14 -52 193 -69 410 -6 72 -15 145 -22 163 -9 27 -8 44 5 90
8 31 17 75 18 97 2 22 10 45 18 52 12 9 16 47 18 197 2 102 7 186 11 186 4 0
20 -13 35 -29z m186 -36 c6 -62 26 -66 56 -11 31 54 45 60 115 47 32 -7 74 -9
92 -6 22 4 85 -4 178 -25 79 -17 194 -35 255 -40 61 -5 129 -13 150 -18 62
-16 193 -23 269 -15 39 5 106 4 150 0 98 -11 112 -11 305 3 173 12 318 33 352
51 12 6 56 23 97 36 72 24 87 25 299 24 122 -1 229 -4 238 -8 11 -4 14 -13 9
-30 -3 -13 2 -110 11 -216 11 -130 14 -242 11 -347 -9 -229 -23 -314 -83 -513
-28 -91 -31 -149 -8 -167 13 -12 8 -16 -38 -30 -29 -10 -77 -29 -106 -44 -72
-37 -156 -65 -227 -76 -33 -5 -105 -19 -160 -31 -97 -21 -119 -22 -650 -22
-573 0 -571 -1 -777 44 -26 6 -51 8 -56 5 -18 -11 -94 17 -109 41 -22 33 -64
53 -110 53 -22 0 -66 7 -98 16 -33 9 -71 18 -85 21 -65 11 -72 15 -84 46 -8
18 -17 70 -20 117 -4 47 -14 123 -23 169 -14 73 -15 102 -5 210 7 69 12 194
12 276 1 135 10 253 25 326 8 34 -23 49 -42 22 -28 -37 -35 -102 -34 -293 0
-107 -4 -233 -10 -280 -16 -131 -12 -273 11 -390 28 -146 27 -157 -14 -127
-14 10 -21 40 -32 128 -33 274 -33 438 2 784 9 88 19 195 23 238 4 46 12 81
19 86 7 4 30 5 50 2 36 -6 37 -8 42 -56z m4290 -834 c14 -27 13 -124 -2 -139
-20 -20 -24 -15 -47 48 -12 33 -26 60 -32 60 -19 0 -8 19 19 33 38 21 50 20
62 -2z m-4400 -524 c6 -21 40 -81 75 -133 71 -105 82 -131 66 -147 -7 -7 -16
-5 -30 7 -39 35 -158 305 -143 321 9 8 19 -7 32 -48z m2413 -139 c-4 -62 -11
-83 -44 -139 -21 -36 -39 -68 -39 -73 0 -4 -5 -12 -10 -19 -6 -7 -34 -50 -63
-96 -32 -51 -75 -104 -110 -135 -61 -53 -87 -91 -87 -126 0 -31 14 -25 65 29
26 27 57 52 69 55 34 8 91 88 121 167 15 38 35 74 46 79 10 6 23 29 30 53 6
23 18 49 26 59 8 9 27 49 41 89 38 102 55 103 51 3 -4 -76 -6 -83 -66 -185
-35 -58 -63 -113 -63 -121 0 -39 -201 -258 -250 -273 -14 -4 -61 -26 -105 -48
-157 -78 -226 -87 -705 -90 -419 -2 -411 -3 -545 59 -71 32 -208 73 -279 83
-57 8 -64 11 -114 67 -30 33 -72 91 -94 129 -22 39 -52 87 -67 109 -14 21 -34
50 -43 65 -21 30 -25 95 -6 89 7 -3 32 -42 55 -87 24 -45 63 -110 87 -144 24
-34 47 -72 50 -84 11 -35 46 -73 67 -73 11 0 24 11 31 24 l11 25 52 -56 c29
-30 59 -53 66 -51 8 3 15 19 17 36 3 27 -6 43 -51 95 -80 92 -108 139 -169
277 -65 147 -82 196 -73 210 9 14 81 12 93 -3 6 -6 14 -25 18 -41 4 -16 13
-41 20 -55 8 -14 14 -31 14 -38 0 -20 67 -165 127 -275 53 -99 122 -188 144
-188 17 0 9 47 -15 81 -82 116 -240 434 -234 473 3 18 10 21 58 21 30 0 74 -3
97 -8 36 -6 45 -4 62 14 19 21 23 21 463 18 672 -6 770 -4 908 15 206 29 240
31 240 14 0 -50 -168 -325 -287 -468 -51 -62 -64 -98 -37 -107 24 -8 144 131
193 224 14 27 31 55 38 63 7 8 26 32 43 52 30 36 110 199 110 226 0 22 20 52
34 52 10 0 12 -16 9 -72z m-2148 -78 c16 -41 55 -131 87 -199 32 -68 57 -125
55 -127 -5 -6 -74 97 -114 170 -21 38 -57 98 -80 133 l-42 65 27 23 c15 13 30
21 33 17 3 -4 18 -41 34 -82z m-1170 -164 c9 -14 20 -51 25 -83 16 -105 59
-312 68 -330 6 -10 15 -63 21 -118 6 -55 24 -154 41 -220 16 -66 30 -129 30
-140 1 -11 8 -38 16 -60 19 -53 84 -370 83 -409 l0 -31 -11 25 c-6 14 -23 50
-38 80 -17 35 -29 79 -33 121 -7 74 -39 209 -68 284 -10 28 -26 113 -34 190
-14 126 -64 361 -125 582 -21 75 -25 115 -13 126 12 12 22 7 38 -17z m1727
-604 c38 -43 111 -160 202 -325 35 -65 74 -117 87 -117 23 0 5 62 -46 149 -76
135 -149 291 -139 300 5 5 54 4 109 -1 70 -6 112 -6 140 2 26 7 49 8 65 2 26
-10 586 11 628 24 33 10 29 -16 -20 -110 -36 -67 -65 -103 -170 -207 -122
-121 -146 -156 -118 -174 6 -4 32 11 57 32 25 21 72 60 105 87 67 56 93 54 32
-2 -23 -20 -56 -61 -75 -89 -43 -66 -88 -84 -251 -99 l-78 -7 0 27 c0 32 -16
33 -47 4 -22 -20 -26 -21 -95 -8 -72 12 -172 44 -194 62 -7 5 -15 25 -19 46
-11 61 -54 127 -120 186 -68 60 -87 91 -110 185 -25 96 -8 105 57 33z m-164
-20 c18 -20 35 -48 38 -62 4 -14 12 -32 19 -40 7 -8 27 -43 44 -76 24 -45 47
-72 86 -100 48 -35 94 -98 81 -111 -13 -13 -75 42 -145 127 -76 93 -171 225
-171 238 0 4 -9 18 -20 32 -27 34 -25 43 8 36 15 -4 42 -23 60 -44z m1306 -59
c-16 -22 -44 -61 -63 -86 -51 -69 -69 -61 -29 14 42 78 95 136 109 122 8 -8 3
-22 -17 -50z m-134 -172 c0 -6 -4 -13 -10 -16 -5 -3 -10 1 -10 9 0 9 5 16 10
16 6 0 10 -4 10 -9z m-800 -290 c0 -14 -18 -23 -30 -16 -6 4 -8 11 -5 16 8 12
35 12 35 0z m430 -62 c13 -7 13 -8 -1 -9 -28 0 -68 -40 -78 -78 -14 -49 1 -62
31 -26 74 89 76 90 84 71 4 -12 -4 -33 -26 -64 -18 -25 -45 -78 -60 -117 -26
-69 -27 -71 -59 -68 -26 2 -34 -2 -38 -18 -5 -20 -23 -28 -23 -10 0 5 5 32 11
59 11 54 5 79 -55 214 -14 32 -26 60 -26 64 0 8 223 -7 240 -18z m-348 -21 c8
-7 39 -55 69 -107 48 -86 53 -99 51 -150 -1 -31 -6 -69 -11 -86 -8 -27 -9 -25
-10 23 -1 40 -7 61 -25 85 -14 18 -44 73 -67 122 -24 50 -47 93 -52 96 -12 8
0 29 17 29 7 0 19 -6 28 -12z m-1746 -335 c-10 -10 -19 5 -10 18 6 11 8 11 12
0 2 -7 1 -15 -2 -18z m1934 -94 c0 -33 -4 -58 -9 -55 -13 8 -22 64 -15 92 11
44 24 25 24 -37z m-1880 -279 c0 -5 -2 -10 -4 -10 -3 0 -8 5 -11 10 -3 6 -1
10 4 10 6 0 11 -4 11 -10z"/>
<path d="M4170 8280 c0 -33 90 -113 107 -96 4 3 -7 27 -23 53 -22 35 -37 49
-57 51 -16 2 -27 -2 -27 -8z"/>
<path d="M4054 8215 c-9 -21 7 -49 30 -53 23 -5 21 31 -4 53 -19 17 -20 17
-26 0z"/>
<path d="M3835 8130 c-35 -13 -74 -70 -52 -77 19 -7 29 0 53 38 28 45 28 50
-1 39z"/>
<path d="M4160 7986 c0 -39 50 -136 71 -136 24 0 -6 124 -35 142 -18 12 -36 9
-36 -6z"/>
<path d="M4395 7980 c-3 -6 -3 -41 1 -80 6 -65 5 -71 -17 -89 -31 -25 -35
-101 -20 -325 14 -188 31 -306 60 -407 25 -86 37 -109 61 -109 24 0 24 8 6 69
-35 113 -56 249 -69 451 -17 251 -14 296 20 328 21 19 24 29 18 60 -17 94 -41
133 -60 102z"/>
<path d="M3943 7878 c-35 -59 -56 -108 -49 -116 14 -13 39 13 61 65 50 111 42
141 -12 51z"/>
<path d="M4203 7491 c11 -52 36 -101 51 -101 20 0 20 24 0 83 -12 35 -21 47
-36 47 -17 0 -20 -5 -15 -29z"/>
<path d="M4006 7428 c-19 -26 -21 -71 -4 -66 6 2 15 11 18 19 4 8 12 24 18 36
15 29 15 33 -2 33 -8 0 -22 -10 -30 -22z"/>
<path d="M3574 7324 c-10 -41 17 -118 44 -122 33 -5 49 36 29 74 -15 28 -53
74 -62 74 -3 0 -8 -12 -11 -26z"/>
<path d="M4164 7147 c-6 -18 12 -83 27 -92 19 -12 13 74 -6 94 -12 13 -15 12
-21 -2z"/>
<path d="M3990 6915 c-39 -21 -108 -125 -95 -145 12 -19 35 4 62 58 15 32 37
64 48 74 26 21 17 30 -15 13z"/>
<path d="M4470 6682 c0 -45 25 -81 43 -63 8 8 7 23 -3 53 -20 57 -40 61 -40
10z"/>
<path d="M4274 6615 c-9 -23 8 -76 28 -89 26 -16 29 -4 12 47 -18 52 -31 66
-40 42z"/>
<path d="M4034 6592 c-41 -26 -71 -176 -41 -201 22 -18 37 -6 37 29 0 25 7 71
26 158 4 23 -2 27 -22 14z"/>
<path d="M1603 8040 c-40 -19 -63 -35 -63 -46 0 -13 6 -15 28 -10 32 8 104 56
110 74 5 17 -4 15 -75 -18z"/>
<path d="M1317 7839 c-42 -22 -41 -45 2 -34 33 8 71 32 71 45 0 15 -30 10 -73
-11z"/>
<path d="M4367 5393 c-12 -12 -7 -43 13 -83 26 -51 40 -51 40 -1 0 68 -27 111
-53 84z"/>
<path d="M3967 5303 c-10 -10 -8 -93 2 -93 13 0 21 26 21 66 0 32 -8 42 -23
27z"/>
<path d="M4790 5275 c14 -13 41 -27 60 -30 l35 -6 -35 30 c-19 17 -46 31 -59
31 l-26 0 25 -25z"/>
<path d="M3583 5118 c-52 -46 -88 -89 -88 -107 0 -27 22 -18 52 21 15 20 43
55 61 78 40 48 27 52 -25 8z"/>
<path d="M4690 5082 c0 -10 15 -36 34 -58 30 -34 35 -37 41 -21 5 12 -2 30
-22 54 -34 43 -53 52 -53 25z"/>
<path d="M3263 4951 c-37 -23 -65 -61 -103 -143 -38 -82 -48 -139 -26 -157 14
-12 19 -11 36 4 11 10 20 24 20 30 0 7 10 25 21 39 26 34 109 194 109 211 0
28 -25 35 -57 16z"/>
<path d="M4507 4873 c-4 -3 -7 -14 -7 -22 0 -20 47 -91 60 -91 12 0 13 25 1
48 -5 9 -14 29 -20 45 -10 27 -21 33 -34 20z"/>
<path d="M4220 4851 c-15 -29 -12 -83 6 -109 24 -34 34 -17 34 59 0 54 -3 69
-15 69 -8 0 -19 -9 -25 -19z"/>
<path d="M3824 4824 c-30 -39 -55 -121 -47 -153 6 -24 34 -36 45 -19 4 7 8 32
8 55 0 24 9 66 20 95 23 62 23 58 11 58 -6 0 -22 -16 -37 -36z"/>
<path d="M3397 4772 c-26 -27 -36 -62 -18 -62 15 0 72 70 66 81 -10 15 -20 11
-48 -19z"/>
<path d="M4977 4787 c-7 -17 24 -87 47 -106 33 -28 37 3 9 59 -29 56 -47 71
-56 47z"/>
<path d="M1669 3643 c-12 -32 2 -73 25 -73 13 0 26 41 26 81 0 30 -39 24 -51
-8z"/>
<path d="M1699 3416 l-22 -43 23 -67 c22 -68 29 -76 49 -52 8 10 9 26 2 57 -6
24 -11 68 -11 97 0 28 -5 52 -10 52 -6 0 -20 -20 -31 -44z"/>
<path d="M2993 4353 c-17 -42 -33 -252 -20 -260 20 -12 36 28 51 125 21 133
21 172 0 172 -8 0 -22 -17 -31 -37z"/>
<path d="M4975 4329 c-7 -11 31 -59 47 -59 14 0 9 38 -8 54 -18 19 -30 20 -39
5z"/>
<path d="M4055 4216 c-29 -50 -45 -126 -27 -126 7 0 18 12 26 28 15 30 39 132
32 139 -2 3 -16 -16 -31 -41z"/>
<path d="M5285 4207 c-11 -55 -1 -285 12 -298 25 -25 33 3 32 124 0 136 -8
198 -26 204 -7 3 -15 -10 -18 -30z"/>
<path d="M3312 4182 c-26 -17 -44 -134 -22 -147 16 -10 41 63 38 111 -2 32 -6
41 -16 36z"/>
<path d="M5400 4034 c-6 -14 -10 -36 -10 -49 0 -13 -12 -90 -26 -172 -14 -81
-29 -175 -34 -208 -9 -67 -55 -227 -72 -254 -13 -22 -4 -51 15 -51 16 0 42 49
82 150 17 41 30 101 36 165 6 55 17 129 25 165 16 76 34 248 27 267 -8 22 -33
15 -43 -13z"/>
<path d="M3822 4008 c-15 -15 -16 -117 -2 -153 6 -15 16 -25 23 -22 9 3 11 27
9 88 -4 88 -10 107 -30 87z"/>
<path d="M4422 3998 c-15 -15 -16 -109 0 -143 22 -48 38 -30 38 43 0 101 -11
127 -38 100z"/>
<path d="M4803 3994 c-9 -23 26 -90 53 -103 30 -13 30 -6 0 64 -25 55 -42 68
-53 39z"/>
<path d="M2966 3928 c-9 -12 -16 -26 -16 -31 0 -5 -14 -27 -31 -48 -35 -44
-36 -82 -3 -87 20 -3 21 -11 27 -136 9 -183 33 -296 63 -296 27 0 31 34 18
140 -7 58 -13 189 -14 293 0 156 -2 187 -14 187 -8 0 -22 -10 -30 -22z"/>
<path d="M5005 3940 c-8 -13 43 -115 72 -141 31 -30 46 -16 28 26 -18 44 -73
125 -85 125 -5 0 -12 -5 -15 -10z"/>
<path d="M3456 3817 c-12 -9 -17 -23 -14 -47 4 -49 30 -46 40 4 10 45 0 62
-26 43z"/>
<path d="M4953 3618 c-22 -28 -22 -37 -2 -62 28 -35 39 -33 39 8 0 58 -16 81
-37 54z"/>
<path d="M3176 3568 c-35 -40 -76 -131 -76 -166 0 -9 5 -24 10 -32 9 -13 11
-13 19 -1 5 8 12 30 16 50 4 19 23 66 43 105 47 91 45 86 34 86 -6 0 -27 -19
-46 -42z"/>
<path d="M5230 3545 c-6 -7 -20 -48 -30 -89 -22 -85 -44 -134 -89 -190 -34
-42 -40 -73 -15 -83 39 -15 107 96 149 246 19 70 23 96 15 111 -13 24 -14 24
-30 5z"/>
<path d="M3673 3538 c-16 -21 -53 -126 -53 -153 0 -33 16 -40 33 -13 21 33 50
159 39 170 -5 5 -13 3 -19 -4z"/>
<path d="M4166 3491 c-25 -27 -46 -105 -46 -167 0 -42 4 -55 19 -64 11 -5 22
-10 24 -10 2 0 4 37 4 83 0 51 6 98 16 124 18 47 9 63 -17 34z"/>
<path d="M4521 3354 c-9 -20 -8 -31 1 -52 7 -15 18 -26 23 -25 20 4 17 103 -4
103 -4 0 -13 -12 -20 -26z"/>
<path d="M4790 3281 c0 -32 34 -81 56 -81 20 0 17 17 -11 67 -30 50 -45 55
-45 14z"/>
<path d="M3323 3205 c-29 -44 -30 -75 -4 -75 25 0 27 4 35 63 9 56 -1 59 -31
12z"/>
<path d="M3865 3219 c-10 -15 4 -61 15 -54 13 8 13 65 1 65 -6 0 -13 -5 -16
-11z"/>
<path d="M3594 2858 c-10 -18 -20 -64 -24 -101 -5 -58 -4 -67 10 -65 10 2 20
28 30 78 9 41 22 85 28 98 11 19 10 22 -7 22 -13 0 -27 -12 -37 -32z"/>
<path d="M4010 2798 c-25 -41 -27 -81 -4 -76 15 3 43 66 44 96 0 22 -20 12
-40 -20z"/>
<path d="M4635 2780 c-9 -15 22 -60 40 -60 14 0 14 3 0 29 -18 35 -31 45 -40
31z"/>
<path d="M4427 2703 c-11 -10 -8 -68 4 -100 15 -41 52 -93 66 -93 24 0 24 22
-1 76 -14 31 -26 72 -26 90 0 26 -4 34 -18 34 -10 0 -22 -3 -25 -7z"/>
<path d="M3848 2654 c-23 -26 -99 -185 -92 -195 12 -20 37 10 74 89 43 90 52
143 18 106z"/>
<path d="M4134 2586 c-9 -50 3 -104 26 -116 19 -10 20 -7 19 37 -3 100 -31
150 -45 79z"/>
<path d="M3566 2408 c-23 -33 -1 -51 25 -19 18 22 18 41 -1 41 -5 0 -16 -10
-24 -22z"/>
<path d="M3977 2346 c-24 -36 -33 -80 -16 -74 14 5 48 63 49 86 0 20 -16 14
-33 -12z"/>
<path d="M4523 2113 c-15 -6 -164 -187 -193 -235 -20 -34 -27 -88 -11 -88 14
0 97 104 199 248 41 60 44 91 5 75z"/>
<path d="M4175 2006 c-4 -19 -4 -44 0 -56 12 -37 30 -16 33 38 2 41 0 52 -12
52 -9 0 -18 -13 -21 -34z"/>
<path d="M3877 2013 c-19 -19 6 -162 29 -170 22 -7 25 31 8 104 -15 69 -22 82
-37 66z"/>
<path d="M4056 1875 c-3 -8 -1 -17 3 -20 5 -3 11 2 15 10 3 8 1 17 -3 20 -5 3
-11 -2 -15 -10z"/>
<path d="M3715 9723 c-4 -16 -28 -104 -56 -196 -50 -173 -55 -197 -40 -197 16
0 28 24 51 100 12 41 38 117 56 168 40 108 44 152 14 152 -13 0 -21 -9 -25
-27z"/>
<path d="M3556 9491 c-47 -91 -57 -131 -32 -131 19 0 50 51 81 134 29 77 30
86 11 86 -8 0 -35 -40 -60 -89z"/>
<path d="M4667 9543 c-14 -13 -6 -33 13 -33 11 0 20 4 20 9 0 13 -26 32 -33
24z"/>
<path d="M3982 9518 c-15 -15 -16 -84 -2 -93 12 -7 30 36 30 70 0 29 -12 39
-28 23z"/>
<path d="M4394 9516 c-7 -18 16 -68 34 -74 13 -4 17 43 6 72 -8 20 -33 21 -40
2z"/>
<path d="M4210 9404 c0 -33 17 -64 35 -64 18 0 19 20 4 54 -17 36 -39 42 -39
10z"/>
<path d="M3728 9392 c-34 -20 -35 -28 -6 -43 18 -10 24 -8 40 11 37 45 17 64
-34 32z"/>
<path d="M3063 9355 c-34 -15 -44 -35 -18 -35 22 0 75 29 75 40 0 14 -19 12
-57 -5z"/>
<path d="M5100 9220 c-11 -7 -9 -11 13 -19 51 -20 87 -11 66 16 -13 15 -57 17
-79 3z"/>
<path d="M4580 9191 c0 -23 25 -51 46 -51 20 0 17 23 -6 48 -26 27 -40 28 -40
3z"/>
<path d="M3782 9153 c-23 -23 -32 -38 -24 -40 16 -6 94 56 86 68 -10 16 -26 9
-62 -28z"/>
<path d="M4120 9174 c-34 -23 -50 -44 -50 -66 0 -28 25 -21 59 17 47 54 41 82
-9 49z"/>
<path d="M3530 9110 c-22 -22 -25 -36 -10 -45 12 -7 50 30 50 50 0 21 -16 19
-40 -5z"/>
<path d="M4432 9098 c3 -7 13 -15 22 -16 12 -3 17 1 14 10 -3 7 -13 15 -22 16
-12 3 -17 -1 -14 -10z"/>
<path d="M4496 8942 c-7 -11 4 -25 41 -50 64 -45 102 -15 40 32 -33 26 -71 34
-81 18z"/>
<path d="M3820 8867 c-23 -43 -22 -86 1 -71 13 7 48 82 49 102 0 27 -29 9 -50
-31z"/>
<path d="M4303 8869 c-16 -16 -5 -37 28 -54 53 -28 66 -9 28 39 -22 28 -39 32
-56 15z"/>
<path d="M4075 8836 c-27 -65 -14 -101 19 -54 18 25 21 74 6 83 -6 4 -17 -9
-25 -29z"/>
<path d="M3499 8831 c-25 -25 -39 -61 -24 -61 12 0 75 64 75 76 0 22 -19 16
-51 -15z"/>
<path d="M4698 8792 c-10 -2 -18 -7 -18 -12 0 -12 64 -50 84 -50 20 0 20 9 1
37 -16 22 -40 31 -67 25z"/>
<path d="M3555 8690 c-3 -5 1 -10 9 -10 9 0 16 5 16 10 0 6 -4 10 -9 10 -6 0
-13 -4 -16 -10z"/>
<path d="M4355 8620 c-14 -23 42 -79 65 -65 14 9 12 49 -2 63 -14 14 -54 16
-63 2z"/>
<path d="M4610 8587 c0 -18 28 -42 37 -33 9 8 -9 38 -25 44 -7 2 -12 -3 -12
-11z"/>
<path d="M6180 8424 c-43 -22 -94 -39 -150 -49 -111 -19 -113 -19 -107 5 7 28
-7 25 -73 -16 -69 -43 -105 -78 -95 -94 10 -16 68 -6 103 17 26 18 149 49 158
40 3 -2 -9 -10 -26 -17 -16 -7 -30 -16 -30 -19 0 -4 23 -13 52 -20 l52 -11 36
35 c20 19 42 35 49 35 8 0 31 -16 53 -35 l39 -35 43 25 c46 27 80 31 139 14
32 -9 36 -13 26 -25 -17 -21 -3 -32 62 -49 56 -15 85 -7 61 17 -24 24 -13 38
31 38 49 0 215 -33 243 -48 10 -6 42 -16 69 -22 28 -6 69 -20 93 -30 42 -19
43 -20 40 -62 l-3 -43 -63 1 c-34 1 -65 3 -67 6 -3 3 -2 24 4 46 8 37 6 43
-14 56 -31 21 -69 29 -94 21 -30 -9 -26 -24 12 -40 31 -14 31 -14 6 -15 -15 0
-69 9 -120 19 -52 10 -143 24 -204 31 -60 6 -167 20 -236 32 -121 19 -128 19
-160 2 -24 -12 -55 -17 -109 -16 -101 2 -244 -29 -248 -53 -4 -16 3 -17 75
-11 43 4 85 9 94 12 10 3 21 -8 32 -31 16 -34 60 -65 73 -52 4 3 2 20 -4 36
-10 27 -9 31 7 31 43 0 112 -30 167 -73 76 -61 139 -63 87 -4 -18 19 -17 20
21 13 54 -10 105 -35 149 -73 50 -45 71 -44 64 2 -5 33 -4 35 24 35 20 0 43
-12 73 -40 53 -49 70 -52 61 -9 -7 31 -7 32 26 26 19 -3 76 -9 127 -13 l92 -7
0 -43 c0 -55 11 -82 68 -168 51 -78 68 -95 95 -96 32 0 29 28 -12 105 -22 42
-43 96 -46 120 -7 42 -6 44 48 96 104 102 98 187 -17 223 -17 6 -17 7 -1 32
l17 27 -33 -7 c-96 -18 -109 -18 -158 -1 -28 9 -51 20 -51 23 0 4 18 17 40 30
40 23 55 49 23 39 -203 -57 -233 -59 -263 -17 -20 28 -24 30 -44 17 -63 -41
-61 -41 -111 -27 l-48 14 33 28 c19 15 40 28 47 28 7 0 13 5 13 11 0 12 -20 9
-90 -15 -138 -46 -191 -58 -210 -46 -12 8 -11 12 6 32 27 29 37 48 27 47 -4 0
-37 -16 -73 -35z m145 -264 c3 -5 -1 -10 -9 -10 -9 0 -16 5 -16 10 0 6 4 10 9
10 6 0 13 -4 16 -10z"/>
<path d="M3472 8203 c-25 -37 -33 -61 -23 -68 16 -9 51 29 57 63 8 40 -8 42
-34 5z"/>
<path d="M7270 8116 c-19 -7 -52 -11 -72 -8 -37 5 -38 4 -38 -27 0 -51 16 -71
56 -71 82 0 139 -59 186 -192 23 -68 29 -201 9 -235 -6 -10 -11 -13 -11 -8 -4
72 -25 146 -65 229 -26 53 -56 107 -67 121 -19 25 -101 60 -153 66 -33 4 -32
14 -17 -102 12 -89 52 -123 52 -44 0 40 2 45 23 45 48 0 62 -23 62 -97 0 -54
3 -68 15 -68 9 0 19 16 25 43 l11 43 12 -33 c12 -35 5 -68 -31 -135 -34 -63
-16 -84 28 -32 14 17 29 29 32 25 3 -3 8 -42 11 -86 l5 -79 -37 -22 c-30 -18
-36 -26 -36 -55 0 -44 23 -55 52 -25 11 13 27 20 35 17 8 -3 18 -6 22 -6 4 0
23 -21 41 -47 27 -36 33 -55 31 -86 -5 -83 63 -117 118 -59 19 22 31 27 46 22
49 -18 47 30 -5 106 -22 33 -40 70 -40 84 0 14 -11 51 -24 82 -21 52 -22 58
-7 72 14 15 13 19 -12 42 -17 15 -26 32 -23 41 3 8 6 17 6 19 0 2 14 4 30 4
41 0 38 15 -9 44 -27 17 -40 34 -45 56 -11 58 -8 70 18 70 30 0 44 19 25 31
-8 5 -34 15 -58 22 -75 21 -90 75 -26 91 14 4 25 13 25 21 0 11 -10 13 -42 9
-39 -4 -47 -1 -88 35 -43 38 -44 40 -27 58 31 36 18 41 -43 19z m255 -839 c0
-26 -20 -25 -23 2 -3 16 1 22 10 19 7 -3 13 -12 13 -21z"/>
<path d="M7652 7175 c-7 -14 -12 -32 -12 -40 0 -8 -11 -22 -25 -31 -20 -13
-31 -15 -50 -6 -18 9 -26 8 -36 -4 -9 -11 -8 -24 6 -60 9 -25 24 -48 32 -51
39 -15 183 95 183 139 0 16 -61 78 -76 78 -6 0 -16 -11 -22 -25z"/>
<path d="M7727 7044 c-13 -13 -7 -34 14 -55 16 -16 18 -23 8 -35 -15 -19 -25
-18 -49 6 -27 27 -40 25 -40 -5 0 -51 55 -165 81 -165 4 0 16 16 28 35 27 46
50 44 89 -4 34 -43 39 -60 20 -79 -21 -21 -38 -13 -38 17 0 16 -7 34 -15 41
-44 37 -62 -77 -25 -159 l20 -44 23 21 c35 33 47 28 47 -20 0 -47 26 -110 64
-161 13 -17 30 -53 36 -79 14 -53 43 -90 65 -82 19 8 28 58 23 128 -1 31 0 56
4 56 4 0 19 -18 33 -40 14 -23 33 -44 41 -47 23 -9 48 21 41 49 -9 33 -56 92
-89 111 -18 10 -31 29 -38 59 -12 43 -35 78 -53 78 -5 0 -22 -10 -39 -21 -43
-31 -56 -12 -28 37 20 35 21 44 11 81 -13 48 -54 101 -88 114 -16 6 -23 16
-23 35 0 31 -25 86 -48 107 -21 19 -65 31 -75 21z"/>
<path d="M7223 5064 c-37 -16 -48 -47 -44 -122 3 -62 103 -99 130 -48 7 13 24
29 37 35 38 17 33 71 -11 116 -38 38 -61 42 -112 19z"/>
<path d="M7377 4883 c-3 -5 -8 -23 -12 -40 -7 -34 -26 -55 -32 -36 -2 6 -10
19 -18 29 -12 16 -16 17 -24 4 -21 -31 25 -150 57 -150 21 0 79 41 104 73 26
33 22 74 -8 102 -26 24 -58 33 -67 18z"/>
<path d="M2538 4779 c-37 -19 -52 -49 -24 -49 19 0 106 50 106 61 0 15 -43 9
-82 -12z"/>
<path d="M7460 4729 c-9 -15 -9 -28 0 -49 17 -40 7 -62 -11 -26 -19 40 -37 43
-50 10 -10 -29 -4 -109 10 -133 19 -30 141 35 141 76 0 20 -31 116 -43 131
-14 18 -35 15 -47 -9z"/>
<path d="M1006 4537 c-13 -9 -19 -36 -26 -106 -6 -69 -16 -107 -35 -144 -31
-60 -27 -95 16 -131 32 -27 36 -45 17 -79 -12 -22 -12 -22 -18 7 -8 44 -35 56
-62 28 -21 -20 -23 -32 -23 -120 0 -83 -3 -102 -22 -132 -50 -79 -56 -95 -60
-174 -5 -71 -3 -84 15 -106 l20 -25 26 24 c24 22 29 23 65 13 54 -17 85 -15
112 7 21 17 22 22 11 45 -7 15 -26 32 -42 38 -35 12 -38 30 -10 65 25 32 27
101 4 144 -20 39 -13 57 23 61 27 3 28 5 31 66 2 46 -2 71 -13 88 -15 23 -15
24 13 24 15 0 36 6 47 14 16 11 17 21 11 72 -14 116 -16 109 32 112 l43 3 -3
107 c-3 103 -4 107 -26 110 -18 3 -23 -2 -28 -27 -8 -39 -24 -39 -46 -1 -18
32 -43 38 -72 17z m59 -178 c4 -5 0 -18 -9 -28 -9 -10 -16 -35 -16 -58 0 -48
-8 -58 -31 -37 -15 14 -16 18 -3 42 8 15 14 39 14 53 0 14 3 29 7 32 10 10 31
8 38 -4z"/>
<path d="M7513 4504 c-4 -11 -15 -25 -25 -32 -30 -22 -17 -140 22 -194 22 -30
17 -37 -33 -47 -43 -9 -55 -33 -34 -65 21 -31 51 -33 103 -9 34 17 37 17 49 0
7 -10 16 -38 20 -62 7 -51 16 -60 45 -45 16 9 20 21 20 68 -1 118 -18 192 -68
286 -53 98 -87 132 -99 100z"/>
<path d="M1835 4110 c-3 -5 3 -10 14 -10 12 0 21 5 21 10 0 6 -6 10 -14 10 -8
0 -18 -4 -21 -10z"/>
<path d="M7224 3855 c-9 -22 3 -33 46 -46 54 -16 62 -4 22 32 -35 32 -60 37
-68 14z"/>
<path d="M2439 3651 c-36 -35 -49 -56 -49 -77 0 -28 2 -27 65 37 36 37 65 72
65 78 0 25 -36 8 -81 -38z"/>
<path d="M7137 3238 c-15 -79 -43 -195 -61 -258 -19 -63 -37 -131 -41 -150 -4
-19 -19 -73 -32 -120 -14 -47 -36 -137 -48 -200 -21 -106 -37 -170 -97 -380
-11 -41 -27 -111 -35 -155 -8 -44 -23 -98 -33 -120 l-18 -40 -1 65 c-1 40 14
140 38 258 22 106 45 226 51 268 6 42 32 144 56 227 24 83 44 162 44 176 0 14
6 43 14 66 8 22 29 87 46 145 17 58 44 147 61 197 32 97 34 138 9 138 -20 0
-105 -199 -126 -295 -28 -131 -35 -152 -58 -174 -22 -20 -116 -151 -116 -161
0 -3 9 -5 19 -5 11 0 28 13 38 30 18 31 33 39 33 18 0 -7 -11 -53 -24 -103
-13 -49 -29 -126 -36 -170 -7 -43 -24 -104 -38 -135 -20 -44 -26 -73 -27 -145
-3 -105 -28 -212 -61 -261 -29 -43 -30 -51 -3 -59 18 -6 20 -12 15 -39 -20
-97 -19 -105 5 -126 49 -40 83 -21 125 70 13 29 32 64 43 78 11 17 16 34 12
46 -7 18 15 166 26 176 3 3 8 -1 10 -7 3 -7 13 -23 23 -35 14 -17 22 -20 30
-12 8 9 7 31 -5 90 -17 84 -15 119 14 244 l18 75 17 -33 c11 -22 23 -32 34
-30 20 4 20 25 3 118 -16 82 -14 142 5 194 9 23 20 60 25 84 13 64 19 67 45
28 26 -38 54 -48 54 -18 0 10 -10 46 -21 81 -19 55 -20 69 -10 120 6 32 9 65
6 73 -4 9 2 18 15 24 19 8 21 19 25 124 3 89 1 120 -11 138 -8 12 -18 22 -22
22 -4 0 -19 -64 -35 -142z"/>
<path d="M1877 1873 c-8 -13 -27 -125 -27 -160 0 -32 21 -46 34 -24 10 16 26
154 21 173 -6 18 -20 24 -28 11z"/>
<path d="M6755 1661 c-6 -5 -21 -11 -35 -13 -30 -4 -44 -41 -53 -138 -8 -89
-3 -95 64 -71 77 27 147 60 155 72 4 6 -2 35 -12 65 -16 46 -24 57 -59 74 -47
23 -48 23 -60 11z m5 -90 c0 -11 -4 -23 -10 -26 -6 -4 -10 5 -10 19 0 14 5 26
10 26 6 0 10 -9 10 -19z"/>
<path d="M6853 1414 c-3 -9 1 -39 10 -68 13 -40 14 -53 4 -63 -29 -28 -40 -19
-41 34 -1 63 -24 95 -52 72 -14 -11 -16 -26 -11 -93 7 -81 25 -126 53 -126 21
0 91 37 114 60 24 24 26 76 5 127 -28 66 -68 94 -82 57z"/>
<path d="M6923 1152 c-3 -11 -15 -22 -27 -24 -18 -3 -22 -12 -27 -58 -3 -31
-3 -76 0 -100 7 -55 28 -62 75 -26 l34 25 6 -35 c11 -57 45 -128 74 -151 l27
-22 -20 -38 c-11 -20 -31 -43 -45 -50 -27 -13 -50 -40 -50 -58 0 -6 6 -19 13
-29 13 -18 15 -17 53 2 52 27 77 56 89 105 13 53 29 57 44 9 11 -34 11 -43 -4
-72 -20 -40 -8 -80 25 -80 28 0 40 36 40 118 0 53 -5 75 -24 107 -18 29 -22
43 -14 53 20 23 10 70 -26 126 -36 56 -61 72 -96 61 -29 -9 -70 -16 -70 -12 0
3 18 16 41 31 35 24 40 31 37 59 -2 26 -10 35 -42 50 -22 11 -55 21 -73 24
-29 5 -35 2 -40 -15z m27 -72 c0 -5 -2 -10 -4 -10 -3 0 -8 5 -11 10 -3 6 -1
10 4 10 6 0 11 -4 11 -10z m184 -221 c30 -35 31 -42 12 -58 -11 -9 -20 -1 -45
44 -17 30 -31 57 -31 60 0 12 39 -16 64 -46z"/>
<path d="M2050 611 c-58 -28 -82 -59 -78 -101 3 -21 9 -26 45 -31 41 -5 56
-14 119 -72 35 -32 40 -29 67 41 20 49 22 115 6 161 -15 42 -31 35 -47 -22
-10 -34 -18 -47 -32 -47 -24 0 -29 18 -17 53 14 43 -2 48 -63 18z"/>
<path d="M1941 416 c-35 -37 -88 -115 -113 -166 -44 -91 -24 -250 31 -250 27
0 32 21 19 90 -12 73 -5 118 17 100 8 -7 20 -31 26 -54 19 -70 30 -93 54 -116
29 -27 55 -23 74 11 16 28 16 27 -34 95 -7 10 -3 33 14 77 12 34 28 82 33 106
10 41 8 46 -12 63 -28 23 -36 18 -44 -31 -7 -45 -37 -88 -54 -77 -20 12 -14
40 19 84 49 66 23 125 -30 68z"/>
</g>
</svg>
