<?xml version="1.0" standalone="no"?>
<!DOCTYPE svg PUBLIC "-//W3C//DTD SVG 20010904//EN"
 "http://www.w3.org/TR/2001/REC-SVG-20010904/DTD/svg10.dtd">
<svg version="1.0" xmlns="http://www.w3.org/2000/svg"
 width="815.000000pt" height="1280.000000pt" viewBox="0 0 815.000000 1280.000000"
 preserveAspectRatio="xMidYMid meet">
<g transform="translate(0.000000,1280.000000) scale(0.100000,-0.100000)"
fill="#000000" stroke="none">
<path d="M4312 12738 c-87 -139 -134 -278 -162 -478 -43 -314 -52 -368 -81
-490 -17 -68 -44 -151 -61 -185 -43 -84 -89 -148 -99 -138 -10 10 -29 240 -30
373 -1 109 -11 200 -21 185 -20 -32 -73 -412 -63 -457 2 -13 10 -78 15 -146
l11 -124 -75 -151 c-79 -161 -123 -289 -156 -451 -10 -55 -26 -106 -34 -115
-18 -18 -19 -17 -40 90 -9 44 -26 92 -40 113 -13 20 -37 69 -52 109 -31 84
-33 86 -43 68 -9 -14 -24 9 -111 174 -29 55 -69 120 -89 144 -19 24 -54 70
-78 102 -23 32 -55 68 -72 80 -77 57 -278 92 -403 71 -104 -18 -146 -40 -207
-110 -29 -34 -59 -62 -67 -62 -22 0 -188 165 -253 250 -109 145 -190 305 -258
510 -67 203 -103 273 -132 255 -27 -16 -2 -192 59 -425 38 -145 151 -374 268
-542 45 -65 82 -123 82 -129 0 -6 -12 -2 -28 9 -63 44 -321 154 -588 251 -60
22 -152 56 -204 76 -249 95 -306 109 -328 82 -16 -19 -6 -26 83 -61 39 -15 80
-34 93 -42 13 -9 51 -26 85 -39 34 -13 114 -48 177 -78 63 -30 156 -71 207
-91 51 -20 115 -51 142 -69 27 -18 94 -57 147 -87 117 -66 244 -182 244 -223
0 -16 -19 -48 -52 -88 -99 -117 -385 -414 -443 -459 -83 -64 -134 -113 -110
-105 11 4 36 12 55 17 45 13 253 151 286 190 14 17 44 40 66 52 23 11 101 75
174 143 l132 122 64 -58 c60 -56 126 -137 117 -145 -2 -2 -56 -26 -119 -54
-153 -66 -256 -134 -363 -239 -88 -88 -207 -249 -207 -281 0 -33 -33 -64 -95
-92 -127 -57 -299 -168 -400 -257 -178 -159 -241 -232 -470 -548 -144 -198
-237 -314 -359 -445 -107 -115 -214 -249 -279 -351 -42 -66 -151 -299 -143
-307 26 -26 137 91 301 319 35 48 154 174 362 380 111 111 214 220 230 243 54
79 225 269 342 380 140 133 328 266 375 266 12 0 12 -6 1 -44 -8 -24 -27 -76
-44 -115 -40 -90 -67 -263 -81 -511 -6 -102 -15 -257 -20 -345 -12 -194 -13
-232 -1 -220 15 18 33 186 42 405 15 370 42 589 84 671 10 18 28 64 41 103 23
68 47 106 67 106 5 0 6 -16 3 -37 l-7 -38 19 30 c10 17 21 38 25 48 10 27 28
10 21 -20 -5 -18 -3 -24 5 -19 6 4 11 18 11 31 0 27 30 48 54 39 20 -8 20 -7
-5 -57 -59 -115 -119 -275 -148 -392 -17 -72 -31 -141 -31 -153 0 -15 -6 -22
-20 -22 -22 0 -27 -19 -9 -37 7 -7 8 -17 1 -29 -14 -26 -32 -174 -42 -339 -5
-77 -16 -198 -24 -270 -9 -71 -16 -133 -16 -137 0 -16 -24 -7 -59 23 -20 17
-75 61 -122 97 -171 133 -325 260 -352 291 -34 39 -51 36 -55 -10 -5 -53 38
-121 155 -247 34 -37 121 -132 193 -212 l131 -145 -6 -70 c-3 -38 -10 -115
-15 -170 -5 -55 -9 -149 -10 -208 0 -96 2 -108 17 -105 10 2 22 24 33 58 47
155 59 199 65 240 8 56 24 100 37 100 11 0 46 -36 115 -116 92 -109 108 -133
232 -338 39 -65 80 -129 91 -143 11 -14 20 -32 20 -41 0 -8 23 -60 52 -116 53
-105 145 -309 204 -455 18 -46 38 -89 44 -96 8 -10 50 -120 50 -132 0 -19 -31
14 -93 100 -70 95 -206 236 -404 417 -67 62 -108 88 -235 153 -179 91 -216
102 -399 119 -136 12 -293 5 -667 -31 -85 -8 -133 -30 -140 -65 -4 -20 36 -21
178 -5 224 25 534 -5 655 -63 22 -11 61 -27 87 -37 42 -17 196 -108 258 -154
50 -36 213 -204 285 -292 139 -171 222 -304 340 -540 108 -217 156 -335 135
-335 -5 0 -22 24 -36 53 -51 101 -114 184 -224 296 -144 145 -164 155 -325
155 -119 1 -121 1 -184 -34 -82 -44 -195 -154 -255 -247 -25 -40 -50 -73 -56
-73 -5 0 -52 7 -102 16 -257 44 -513 -21 -681 -175 -35 -32 -72 -90 -63 -99 4
-3 28 17 54 45 44 47 122 104 122 87 0 -4 -17 -22 -37 -39 -67 -58 -31 -45 59
20 85 63 135 85 191 85 46 0 27 -21 -45 -50 -85 -35 -201 -117 -194 -137 3 -8
-16 -46 -42 -86 -103 -155 -123 -200 -147 -342 -9 -49 -19 -99 -22 -110 -11
-32 -20 26 -22 131 -1 71 3 99 19 132 24 50 24 53 4 45 -29 -11 -9 60 54 190
2 4 0 7 -5 7 -5 0 -22 -27 -38 -60 -16 -34 -35 -66 -42 -72 -7 -6 -13 -24 -13
-41 0 -16 -5 -59 -12 -94 -17 -95 3 -263 42 -350 27 -59 32 -64 57 -61 24 3
28 7 25 33 -16 193 -15 209 18 312 81 245 167 366 310 438 19 10 45 26 58 35
40 32 161 63 215 56 65 -9 127 -35 127 -53 0 -21 -59 -208 -82 -263 -24 -56
-71 -287 -100 -497 -20 -146 -22 -201 -23 -743 -2 -349 -7 -625 -13 -685 -14
-119 -15 -245 -4 -245 20 0 56 54 79 117 76 206 93 329 103 763 11 425 22 578
62 810 35 207 56 274 137 439 73 148 96 187 117 195 35 13 198 -98 280 -190
95 -108 186 -223 234 -294 24 -36 56 -81 72 -100 47 -56 130 -179 178 -263 25
-43 67 -115 94 -160 144 -241 336 -606 336 -638 0 -11 9 -66 20 -122 11 -56
24 -163 30 -237 5 -74 16 -191 24 -260 8 -69 15 -171 15 -227 1 -109 47 -406
81 -523 10 -36 26 -101 35 -145 9 -44 37 -162 61 -262 24 -100 59 -258 78
-350 19 -93 44 -195 56 -228 12 -33 39 -123 61 -200 65 -229 147 -460 219
-620 37 -82 73 -166 79 -186 6 -20 25 -57 41 -83 17 -26 30 -52 30 -59 0 -7
14 -43 30 -80 24 -57 26 -69 14 -74 -9 -3 -27 6 -44 22 -16 16 -47 31 -72 36
-74 14 -498 10 -538 -5 -19 -8 -71 -28 -115 -45 -60 -24 -90 -31 -120 -27 -22
3 -92 0 -156 -6 -87 -8 -136 -8 -200 1 -46 7 -158 16 -247 22 l-164 10 -135
-41 c-75 -22 -193 -49 -263 -60 -140 -22 -160 -27 -160 -42 0 -6 13 -8 32 -4
64 13 188 19 188 9 0 -5 -66 -17 -148 -27 -249 -30 -371 -54 -420 -82 -39 -23
-47 -25 -68 -13 -27 14 -39 8 -31 -16 9 -23 5 -23 272 31 65 13 71 13 83 -3
11 -16 30 -18 160 -16 81 1 181 7 222 12 87 12 283 36 420 51 145 16 170 21
170 31 0 13 -123 4 -330 -22 -289 -37 -585 -56 -596 -38 -3 5 -3 9 -1 9 2 0
29 5 58 11 30 6 95 16 144 24 152 23 269 44 337 60 72 16 172 22 207 10 13 -4
39 -4 59 0 77 14 3 25 -183 26 l-190 0 40 18 c69 30 134 43 169 32 17 -5 78
-12 136 -15 58 -4 148 -10 200 -15 52 -5 170 -6 263 -3 92 3 167 2 167 -1 0
-28 -146 -53 -340 -59 -71 -3 -74 -4 -50 -18 37 -21 273 -24 318 -4 31 15 163
48 297 76 33 6 106 13 163 14 57 1 124 4 150 7 26 3 56 2 67 -3 17 -6 13 -9
-20 -15 -22 -3 -74 -13 -115 -21 -41 -7 -127 -20 -190 -29 -137 -18 -281 -43
-288 -50 -10 -9 51 -5 153 11 55 8 120 17 145 19 144 14 270 26 308 30 42 5
173 -12 307 -40 39 -8 94 -17 123 -20 46 -6 52 -5 52 12 0 26 -136 159 -159
155 -19 -3 -51 49 -51 82 0 17 5 20 53 30 38 9 34 26 -6 26 -68 0 -89 48 -30
71 15 6 35 17 44 25 15 13 20 11 51 -25 18 -22 55 -79 81 -128 79 -147 121
-216 135 -221 20 -6 14 18 -18 70 -47 77 -40 94 42 101 39 3 35 -17 -4 -24
-32 -5 -31 -6 17 -13 28 -4 64 -11 80 -15 17 -5 39 -5 49 -1 16 5 15 8 -13 19
-33 14 -52 34 -30 30 36 -4 44 2 24 17 -20 15 -20 15 0 26 17 10 14 13 -30 29
-57 20 -112 23 -170 9 -27 -6 -44 -5 -53 3 -16 13 -174 325 -239 472 -93 209
-124 288 -139 353 -9 37 -39 139 -69 227 -46 139 -94 303 -192 655 -54 197
-125 499 -138 593 -8 56 -19 117 -24 135 -5 18 -15 106 -21 195 -12 172 -30
366 -56 587 -18 145 -14 258 10 364 21 88 30 186 19 186 -14 0 -31 -62 -38
-140 -7 -70 -23 -140 -31 -140 -10 0 -69 33 -86 48 -25 22 -22 60 12 162 17
49 30 99 30 112 0 43 119 474 180 653 23 66 55 141 71 166 16 25 29 50 29 56
0 29 187 243 213 243 5 0 -2 -15 -15 -32 -13 -18 -37 -51 -53 -73 l-29 -40 38
35 c21 19 51 54 67 77 29 41 65 70 76 60 3 -3 -16 -32 -42 -64 -149 -187 -202
-310 -361 -833 -26 -85 -49 -177 -52 -205 -6 -74 12 -47 39 55 71 277 101 369
193 593 73 180 94 220 159 307 87 114 166 167 229 150 34 -10 111 -63 136 -95
28 -35 76 -135 117 -244 41 -105 106 -237 162 -325 l38 -59 3 -306 c3 -248 6
-309 18 -322 11 -12 12 -22 4 -46 -8 -21 -8 -102 -1 -264 12 -287 12 -451 -1
-864 -11 -375 -11 -356 0 -870 5 -220 10 -504 10 -632 1 -163 5 -255 16 -310
10 -53 18 -200 25 -453 6 -206 14 -386 18 -399 6 -22 4 -23 -23 -17 -16 3 -45
9 -64 12 -34 5 -34 5 -15 -11 20 -16 20 -16 1 -31 -11 -8 -26 -14 -33 -14 -7
0 -13 -9 -13 -20 0 -25 -40 -36 -70 -20 -11 6 -78 14 -148 16 -70 3 -151 12
-180 21 -44 13 -96 14 -300 10 -246 -5 -248 -5 -382 -41 -74 -20 -150 -39
-167 -43 -32 -5 -47 -23 -20 -23 11 0 109 20 327 67 92 19 392 12 462 -11 83
-28 166 -46 214 -47 27 0 58 -4 69 -8 19 -8 19 -8 -4 -20 -43 -23 -14 -22 115
5 119 24 135 25 199 14 43 -8 77 -20 88 -31 19 -20 27 -22 51 -13 11 4 14 13
10 30 -4 16 -1 25 7 28 88 24 157 36 202 36 36 0 61 5 70 15 11 11 17 11 19 3
4 -12 124 -29 134 -19 3 3 -10 11 -28 17 -77 25 -23 54 137 72 109 12 154 27
136 45 -17 17 -142 12 -211 -9 -71 -21 -159 -29 -172 -16 -13 13 -14 12 177
47 169 31 295 49 302 41 11 -10 -8 -24 -42 -30 -19 -4 -35 -11 -35 -17 0 -6 4
-8 9 -5 4 3 35 1 67 -5 152 -25 374 -51 522 -59 159 -9 165 -9 205 12 l42 22
-70 7 c-46 4 -97 18 -145 39 -69 30 -89 34 -255 46 -99 7 -202 18 -228 25 -38
9 -68 9 -138 -1 -96 -13 -119 -7 -119 31 0 24 21 35 137 65 88 23 170 32 331
34 15 0 21 4 16 11 -7 12 -235 6 -296 -7 -58 -13 -25 12 50 38 86 29 159 41
168 27 3 -6 47 -9 97 -8 143 2 316 -26 333 -53 5 -8 -31 -9 -124 -4 -73 4
-132 3 -132 -2 0 -4 48 -14 108 -21 188 -22 234 -31 433 -82 47 -11 110 -19
163 -19 93 0 226 25 226 42 0 6 -11 8 -27 3 -56 -13 -228 -17 -271 -5 -74 19
-45 33 74 35 60 1 122 7 137 13 16 7 43 12 60 12 18 0 52 11 77 24 71 37 247
42 383 10 40 -9 36 21 -5 36 -76 28 -642 20 -671 -9 -16 -16 -154 -13 -238 4
-41 9 -139 38 -219 66 -219 77 -207 75 -476 56 -159 -12 -244 -22 -264 -32
-53 -28 -46 -36 26 -29 89 9 84 -10 -11 -43 -112 -38 -148 -45 -179 -33 -32
12 -30 15 33 92 23 29 62 87 87 128 24 41 67 102 95 135 127 150 275 358 324
456 15 30 40 72 55 94 27 39 75 119 159 263 23 39 63 98 89 130 26 31 60 75
76 96 86 115 174 193 271 240 89 42 206 167 335 358 50 72 231 268 268 288 20
11 56 36 79 55 45 35 127 64 205 73 90 9 162 -48 194 -154 19 -63 18 -87 -7
-135 -22 -43 -20 -69 5 -69 21 0 44 47 68 142 27 107 21 171 -23 273 -45 105
-80 131 -200 146 -48 6 -93 15 -100 19 -15 10 -10 22 51 115 66 101 107 177
125 235 10 30 32 91 51 135 83 200 142 370 179 520 13 55 36 137 49 182 14 44
29 119 35 165 6 45 16 120 22 166 10 71 10 86 -3 98 -12 13 -17 12 -35 -8 -50
-53 -93 -146 -147 -315 -85 -268 -84 -266 -153 -442 -76 -193 -153 -337 -282
-529 -81 -122 -156 -212 -318 -389 -147 -160 -298 -341 -291 -348 5 -6 94 80
150 145 40 46 49 53 58 40 10 -12 11 -11 6 9 -4 19 9 39 66 100 38 42 92 96
118 121 26 25 74 83 105 130 32 47 73 102 91 123 19 20 34 43 34 51 0 8 14 31
30 52 72 91 120 166 155 240 20 43 46 97 57 119 43 85 189 492 227 634 13 47
70 161 82 161 25 0 -5 -169 -45 -255 -8 -16 -17 -48 -21 -70 -4 -22 -30 -107
-57 -190 -33 -98 -47 -150 -39 -153 18 -6 13 -40 -8 -51 -12 -7 -24 -31 -32
-63 -14 -60 -101 -292 -131 -353 -38 -74 -127 -219 -196 -320 -61 -89 -73
-102 -116 -117 -26 -10 -72 -37 -104 -59 -76 -56 -298 -282 -373 -380 -58 -77
-73 -103 -44 -79 8 7 15 9 15 5 0 -14 -42 -75 -51 -75 -6 0 -7 5 -4 10 11 17
-11 11 -28 -8 -13 -14 -14 -21 -5 -30 16 -16 -17 -65 -41 -57 -11 3 -27 -6
-47 -26 -16 -17 -37 -35 -46 -40 -15 -8 -18 -5 -18 16 0 18 17 44 51 81 44 46
49 54 30 54 -11 0 -21 6 -21 13 1 30 43 100 84 141 44 43 57 66 36 66 -5 0
-10 7 -10 15 0 8 72 160 159 337 88 178 180 377 206 443 26 66 52 125 57 132
11 14 92 252 103 303 4 19 16 51 26 71 44 88 108 420 116 602 5 122 4 137 -10
137 -12 0 -27 -34 -58 -133 -82 -263 -189 -593 -214 -662 -31 -86 -135 -295
-146 -295 -8 0 -8 0 21 198 38 253 74 1278 50 1432 -8 50 -17 79 -24 77 -25
-8 -37 -62 -46 -208 -13 -193 -48 -573 -61 -659 -12 -78 -91 -445 -118 -550
-11 -41 -22 -109 -25 -150 -5 -86 -22 -144 -36 -120 -8 14 -40 203 -44 265 -8
94 -78 383 -140 580 -30 94 -69 220 -87 280 -41 142 -68 205 -87 205 -12 0
-14 -11 -8 -64 3 -35 11 -77 16 -93 5 -15 17 -89 25 -163 8 -74 20 -162 25
-195 30 -178 43 -315 71 -730 5 -88 15 -198 20 -243 10 -86 2 -299 -12 -307
-7 -5 -29 77 -29 113 -1 9 -8 35 -16 57 -15 42 -34 220 -36 343 -1 44 -6 79
-14 90 -13 16 -15 16 -29 -3 -21 -27 -32 -71 -55 -215 -18 -110 -19 -154 -14
-365 8 -273 -3 -462 -42 -720 -29 -198 -86 -425 -118 -475 -12 -19 -50 -95
-84 -167 -71 -156 -221 -426 -336 -605 -44 -70 -119 -201 -166 -290 l-85 -163
-5 40 -6 40 -23 -62 c-36 -96 -56 -104 -80 -34 -15 47 -14 80 6 141 20 61 48
85 93 75 25 -6 30 -11 31 -38 l1 -32 9 31 c5 17 16 37 24 44 24 20 17 29 -18
23 -23 -3 -39 1 -60 17 -15 12 -25 25 -22 29 6 11 109 1 113 -10 16 -42 45 48
77 238 19 110 28 141 55 183 21 33 35 70 40 108 8 62 62 267 77 298 6 10 13
60 17 109 10 150 33 290 121 748 8 42 15 103 15 135 0 51 22 209 34 251 3 9
12 86 21 171 9 85 22 196 30 245 7 50 19 144 25 210 6 66 20 172 30 235 33
200 40 261 50 407 5 88 15 156 25 180 18 43 26 101 55 398 23 235 46 417 60
465 6 21 58 83 153 179 138 141 194 208 322 385 93 129 121 166 173 229 57 70
164 235 194 297 11 25 31 59 44 75 30 41 154 255 154 268 0 5 -7 15 -17 22
-19 14 -10 21 217 167 235 151 250 159 259 154 5 -4 7 -69 4 -159 -6 -160 8
-357 33 -465 8 -35 14 -76 14 -92 0 -53 126 -426 154 -460 35 -40 149 -308
176 -412 36 -142 47 -171 63 -165 15 5 13 164 -4 245 -6 31 -40 156 -74 277
-107 377 -114 432 -117 1036 l-3 427 49 43 c88 78 105 88 135 79 75 -21 132
-73 174 -158 34 -67 45 -122 51 -246 3 -60 10 -114 16 -120 19 -19 44 9 67 76
48 140 39 448 -16 557 -57 111 -211 148 -367 88 -39 -15 -92 -41 -118 -57 -26
-17 -51 -30 -56 -30 -6 0 -23 28 -38 63 -16 34 -43 79 -61 100 -45 51 -44 53
70 217 13 19 36 51 50 70 213 287 264 352 291 372 67 49 136 130 196 230 68
115 75 138 38 138 -21 0 -171 -107 -260 -188 -17 -15 -57 -46 -88 -70 -79 -60
-333 -323 -401 -414 -30 -42 -75 -94 -98 -117 -40 -38 -46 -40 -79 -34 -61 14
-162 7 -222 -15 -77 -27 -248 -146 -330 -229 -37 -38 -91 -99 -120 -137 -52
-68 -78 -90 -78 -65 0 30 136 328 314 688 47 96 85 176 83 178 -8 8 -59 -59
-99 -132 -48 -84 -102 -179 -175 -307 -25 -43 -51 -78 -58 -78 -7 0 -20 -11
-29 -24 -27 -42 -140 -358 -160 -448 -8 -34 10 -37 47 -8 l26 20 3 -21 c3 -21
3 -21 26 3 13 12 36 42 50 65 29 44 151 191 192 230 50 47 246 186 300 212 67
32 188 38 215 10 15 -15 12 -22 -31 -85 -112 -163 -119 -171 -173 -183 -82
-17 -127 -48 -218 -150 -48 -53 -90 -97 -95 -99 -4 -2 -11 3 -14 12 -9 23 -18
14 -86 -87 -34 -51 -70 -99 -79 -107 -18 -16 -83 -160 -75 -167 3 -3 16 14 31
37 15 23 28 40 31 37 2 -2 -10 -37 -27 -78 -17 -41 -43 -103 -58 -139 -21 -48
-34 -66 -51 -70 -18 -4 -37 -31 -76 -105 -29 -55 -57 -101 -63 -103 -13 -4
-34 35 -26 49 4 5 2 16 -5 24 -17 21 3 111 45 201 20 43 53 123 74 178 21 56
52 129 70 163 30 61 40 100 22 89 -5 -4 -33 -50 -61 -104 -29 -53 -63 -106
-76 -117 -17 -15 -33 -54 -58 -145 -83 -293 -121 -385 -146 -350 -15 21 -4
113 20 158 24 43 26 59 5 42 -8 -6 -19 -9 -25 -5 -16 10 -3 161 20 215 32 80
81 234 89 282 4 25 13 53 19 61 7 8 19 39 28 68 9 30 27 80 41 113 16 40 22
67 18 87 -5 22 -2 31 10 35 27 11 56 82 60 148 2 33 13 83 24 109 12 27 21 57
21 67 0 10 4 21 9 24 5 3 11 16 15 29 3 13 29 59 58 103 61 92 125 194 151
239 9 16 33 53 52 80 60 85 119 178 135 213 30 65 372 433 465 500 28 20 75
59 106 88 31 29 72 59 92 68 42 17 151 46 175 46 37 0 148 -73 137 -90 -2 -4
-28 -10 -57 -13 -72 -7 -188 -57 -246 -104 -106 -87 -309 -294 -375 -383 -104
-140 -148 -213 -135 -221 19 -12 42 6 64 48 28 56 235 306 326 395 76 75 157
137 226 172 31 16 35 16 58 1 35 -22 61 -68 85 -148 21 -69 22 -79 3 -214 -5
-36 -3 -43 10 -43 30 0 84 152 116 323 5 26 15 63 22 83 11 30 10 39 -7 69
-33 63 -86 115 -149 147 -59 30 -62 31 -121 19 -85 -18 -165 -52 -225 -97 -74
-55 -390 -361 -484 -469 -43 -49 -90 -110 -105 -135 -36 -62 -84 -130 -93
-130 -19 0 -4 41 41 119 56 94 173 431 211 606 12 55 26 123 33 150 12 57 14
193 3 277 -7 55 -38 117 -63 125 -20 7 -41 -39 -49 -104 -6 -54 -4 -63 9 -63
10 0 17 -11 19 -32 5 -43 15 -20 23 55 4 38 11 57 18 54 8 -2 13 -46 15 -138
3 -146 -5 -190 -75 -433 -76 -265 -188 -520 -229 -522 -24 0 -104 -79 -103
-102 0 -10 3 -12 6 -4 2 6 8 12 12 12 5 0 -15 -71 -44 -157 -29 -87 -70 -211
-91 -276 -42 -129 -68 -171 -63 -99 7 95 -18 46 -80 -155 -17 -56 -36 -105
-42 -109 -15 -9 -3 58 28 161 13 44 37 142 53 218 16 75 34 146 40 157 9 18 8
20 -15 20 -14 0 -25 1 -25 3 0 14 61 141 70 147 7 4 29 57 49 116 20 60 52
142 71 182 18 40 31 75 27 78 -3 3 -22 -26 -42 -65 -21 -39 -42 -71 -47 -71
-17 0 1 52 38 109 20 29 47 83 61 119 13 36 41 86 62 111 21 25 63 85 94 132
31 48 70 97 87 109 25 18 30 27 26 46 -4 13 -2 42 3 64 13 60 -5 49 -37 -23
-34 -74 -134 -247 -172 -297 -14 -19 -46 -71 -69 -115 -45 -83 -68 -115 -83
-115 -13 0 -9 31 12 95 30 92 91 305 102 355 20 92 52 188 98 295 26 61 62
146 79 190 44 111 122 216 286 383 l141 143 48 -13 c31 -8 58 -24 77 -45 33
-38 43 -42 34 -12 -7 20 -5 21 29 15 49 -9 45 1 -8 24 -79 33 -69 42 59 55 56
6 112 -1 160 -21 18 -7 18 -6 6 9 -16 20 -1 23 29 7 22 -12 36 3 17 18 -21 16
-336 21 -381 6 -21 -8 -52 -14 -68 -14 -16 0 -40 -7 -53 -16 -23 -15 -25 -15
-31 2 -18 55 -31 74 -46 74 -23 0 -23 18 2 81 12 28 19 57 16 63 -2 6 -9 -4
-16 -21 -12 -34 -24 -41 -36 -22 -10 17 -5 120 8 159 14 40 13 54 -8 128 -12
41 -19 52 -30 48 -9 -3 -44 1 -77 10 -43 12 -109 17 -217 18 -174 1 -272 -17
-424 -79 -207 -83 -583 -289 -610 -334 -4 -5 -66 -55 -140 -110 -188 -143
-443 -396 -590 -587 -130 -170 -146 -187 -146 -156 0 23 69 200 109 281 16 31
34 74 41 96 7 22 26 65 43 95 16 30 71 136 122 235 141 275 263 489 374 654
38 56 42 64 163 301 86 168 174 388 188 471 5 30 14 70 20 89 12 43 13 150 1
150 -5 0 -15 -17 -21 -37 -49 -152 -239 -547 -309 -643 -27 -36 -80 -113 -120
-172 -39 -59 -92 -131 -118 -160 -26 -29 -84 -102 -129 -163 -45 -60 -100
-132 -121 -160 -52 -68 -76 -107 -148 -249 -34 -66 -97 -187 -139 -268 -46
-88 -96 -205 -127 -295 -129 -376 -202 -610 -234 -753 -19 -85 -44 -193 -55
-240 -54 -233 -87 -452 -114 -748 -6 -65 -9 -70 -41 -64 -26 4 -32 16 -15 27
29 18 -11 72 -44 59 -19 -7 -57 44 -94 127 -31 69 -46 87 -57 69 -3 -5 -10
-10 -14 -10 -19 0 -248 488 -264 560 -3 14 -9 36 -13 50 -7 23 -6 24 10 11 36
-29 26 2 -35 116 -56 102 -68 118 -92 121 -15 2 -32 13 -39 25 -18 35 -140
157 -150 151 -5 -3 -18 2 -29 12 -19 17 -19 19 -3 25 15 5 5 19 -55 78 -84 81
-107 88 -37 10 53 -59 61 -83 14 -45 -188 152 -296 212 -453 252 -93 24 -111
25 -265 21 -175 -6 -298 -26 -363 -58 -21 -11 -62 -23 -90 -26 -91 -10 -234
-106 -408 -275 -65 -63 -266 -290 -435 -492 -28 -34 -147 -160 -265 -281 -203
-208 -281 -300 -376 -440 -78 -116 -114 -122 -50 -8 89 156 223 337 361 484
185 199 221 243 332 409 163 242 286 385 443 514 77 65 207 156 221 156 4 0
11 7 14 16 4 10 12 14 22 10 21 -8 71 19 79 43 4 14 21 23 56 30 27 6 56 11
63 11 7 0 21 9 30 19 23 25 121 48 275 63 146 14 351 -1 434 -34 197 -76 331
-150 435 -240 93 -81 206 -209 271 -310 173 -268 212 -346 236 -470 13 -67
108 -282 149 -333 14 -19 15 -18 6 15 -18 65 -69 209 -88 247 -11 21 -30 70
-42 108 -32 98 -103 248 -154 325 -24 36 -67 102 -96 148 -67 105 -234 290
-325 359 -38 30 -106 72 -150 94 -43 22 -93 48 -110 58 -71 43 -208 75 -370
86 -119 8 -145 14 -145 32 0 25 72 133 105 158 97 74 260 143 353 150 69 5 95
25 33 25 -47 0 -162 -23 -228 -47 -105 -36 -220 -135 -279 -241 -40 -71 -54
-80 -97 -64 -22 8 -34 9 -44 1 -7 -6 -22 -9 -33 -6 -13 3 -24 -1 -30 -14 -11
-20 -45 -26 -55 -10 -16 28 165 304 218 333 12 6 38 24 57 39 49 39 221 127
307 155 l72 25 55 -31 c72 -41 86 -58 63 -75 -16 -11 -14 -13 18 -19 25 -5 45
-20 72 -53 21 -26 73 -86 115 -134 165 -186 297 -414 473 -814 31 -71 59 -132
62 -135 11 -10 -7 64 -26 104 -11 23 -29 68 -42 101 -39 103 -154 339 -196
401 -22 32 -64 102 -93 154 -48 87 -146 217 -200 265 -12 11 -64 72 -116 136
-51 64 -104 123 -117 132 -13 8 -47 44 -76 80 -29 35 -63 69 -77 76 -13 6 -33
25 -44 43 -41 67 -17 78 44 21 27 -26 34 -30 23 -13 -38 55 -57 85 -57 91 0 3
6 14 14 25 14 18 15 18 22 1 13 -34 326 -337 348 -337 27 0 67 -32 114 -92 20
-26 82 -103 138 -170 110 -135 169 -217 180 -250 3 -11 28 -53 54 -92 27 -40
59 -94 71 -121 13 -28 56 -107 96 -176 118 -207 185 -383 138 -365 -8 3 -15 3
-15 0 0 -10 28 -59 64 -112 20 -30 41 -72 47 -95 6 -23 22 -76 35 -117 13 -41
24 -96 24 -123 0 -44 -2 -47 -25 -47 -20 0 -32 11 -53 46 -39 65 -149 241
-183 292 -16 23 -29 49 -29 56 0 18 -39 65 -40 48 0 -6 33 -76 74 -155 79
-152 142 -295 172 -391 10 -33 25 -61 34 -63 16 -5 50 -64 50 -89 0 -29 25 -8
39 32 11 32 11 60 2 154 -15 149 -12 457 5 536 8 33 17 108 20 165 7 95 6 103
-9 91 -9 -8 -19 -37 -23 -68 -4 -34 -11 -53 -18 -51 -6 2 -10 11 -8 20 5 29
-41 161 -70 201 -25 34 -36 66 -24 66 5 0 49 -36 75 -61 9 -9 24 -30 33 -48
22 -40 44 -32 23 9 -8 15 -20 30 -26 32 -8 3 -7 10 1 28 11 26 63 39 75 20 12
-20 23 -9 33 33 9 35 9 39 -2 25 -15 -21 -81 -25 -92 -6 -4 7 2 18 14 26 24
16 29 32 9 32 -13 0 -36 63 -39 107 -1 16 -4 3 -7 -27 -3 -30 -10 -55 -16 -55
-16 0 -36 73 -41 155 -4 51 1 119 16 215 11 77 24 158 27 180 6 36 5 39 -10
26 -11 -9 -17 -29 -17 -60 0 -49 -14 -118 -25 -129 -4 -4 -13 2 -21 12 -23 33
-18 166 12 271 41 146 45 168 39 192 -11 46 37 181 115 323 29 52 79 144 112
205 33 60 92 163 132 230 40 66 77 138 83 160 6 22 18 69 28 105 9 36 25 97
35 135 10 39 21 97 25 130 4 33 13 87 20 121 7 34 11 73 8 87 -3 13 3 76 12
138 13 91 26 135 67 230 49 113 90 180 102 168 3 -3 -14 -48 -38 -100 -59
-126 -127 -364 -131 -454 -10 -247 -18 -345 -31 -345 -21 0 -28 -22 -11 -35
18 -13 23 -55 8 -70 -4 -6 -14 -66 -21 -135 -7 -69 -19 -137 -27 -153 -7 -15
-28 -67 -44 -115 -17 -48 -53 -130 -79 -182 -107 -214 -240 -538 -240 -586 0
-24 19 -15 37 19 l18 32 3 -50 c3 -50 17 -79 33 -69 5 3 9 49 10 102 1 160 36
246 56 140 l10 -53 2 75 c2 126 17 197 50 248 76 119 186 423 217 600 14 83
22 162 45 457 18 233 63 408 158 619 34 75 32 86 -21 86 -21 0 -33 -11 -66
-62z m-2521 -589 c17 -46 38 -106 46 -134 36 -120 115 -280 184 -373 72 -95
181 -217 234 -261 17 -14 49 -44 71 -67 l42 -42 34 42 c19 22 43 55 53 73 37
64 155 102 315 102 97 1 209 -57 309 -159 57 -58 128 -157 119 -165 -3 -3 -41
29 -84 72 -44 43 -97 88 -119 100 -117 62 -182 93 -200 92 -15 0 -12 -4 13
-16 51 -26 39 -36 -35 -29 -59 6 -72 4 -118 -19 -67 -33 -174 -130 -215 -197
-103 -166 -151 -220 -191 -216 -21 3 -24 -1 -27 -37 -3 -36 -13 -50 -104 -138
-98 -96 -222 -197 -240 -197 -9 0 80 102 180 207 23 24 42 48 42 53 0 5 14 24
31 42 16 18 44 57 60 86 17 29 41 65 53 80 31 37 129 192 125 196 -2 2 -26 6
-52 9 -48 7 -48 7 -32 -15 8 -13 15 -26 15 -30 0 -45 -159 105 -240 227 -163
244 -298 568 -314 755 -7 87 -1 82 45 -41z m3503 -444 c-4 -8 -8 -15 -10 -15
-2 0 -4 7 -4 15 0 8 4 15 10 15 5 0 7 -7 4 -15z m-1434 -149 c6 -64 15 -126
21 -138 8 -15 8 -27 0 -44 -15 -33 -29 -30 -35 9 -3 17 -11 61 -17 97 -12 72
-3 218 12 203 6 -6 14 -62 19 -127z m1400 66 c0 -4 -4 -12 -9 -17 -5 -6 -46
-84 -91 -174 -61 -121 -85 -160 -92 -150 -6 9 -11 10 -14 4 -2 -6 -21 -34 -42
-63 -20 -28 -59 -89 -86 -136 -48 -84 -77 -109 -99 -87 -8 8 -5 19 11 38 55
68 133 174 181 244 28 42 62 81 76 87 15 7 25 20 25 33 0 12 17 47 38 78 21
31 48 77 61 104 20 42 41 62 41 39z m-3541 -228 c24 -13 50 -24 57 -24 28 0
291 -141 359 -192 82 -62 100 -97 68 -129 l-21 -22 -69 66 c-39 35 -87 76
-109 90 -21 13 -48 34 -58 46 -11 12 -63 45 -115 73 -53 28 -103 56 -111 63
-8 7 -38 19 -65 28 -69 22 -185 77 -185 88 0 11 193 -56 249 -87z m1162 -75
c64 -18 85 -29 118 -63 66 -68 219 -295 268 -396 24 -52 64 -135 88 -185 24
-49 56 -121 70 -159 33 -88 51 -123 86 -166 28 -33 41 -100 20 -100 -5 0 -31
35 -57 78 -73 118 -191 240 -349 359 -126 96 -334 261 -480 383 -59 49 -115
115 -115 136 0 7 15 32 33 56 29 38 39 44 82 50 28 3 68 11 90 16 57 14 60 14
146 -9z m-681 -114 c7 -8 10 -18 6 -22 -7 -7 -56 36 -56 49 0 11 33 -6 50 -27z
m1050 -172 c70 -106 148 -301 110 -278 -5 3 -17 30 -26 60 -9 34 -48 103 -99
179 -84 125 -115 178 -115 193 1 14 81 -80 130 -154z m-683 12 c-55 67 -66 85
-49 85 4 -1 50 -39 102 -85 111 -99 334 -280 470 -382 199 -150 351 -314 423
-458 51 -102 61 -173 18 -132 -16 14 -14 9 21 -63 32 -66 69 -162 64 -167 -2
-2 -18 19 -36 47 -50 78 -73 56 -26 -25 16 -26 23 -50 19 -63 -6 -25 -5 -24
-27 -16 -11 4 -16 19 -16 44 0 30 -6 41 -26 55 -17 11 -24 23 -21 35 3 11 -2
38 -9 61 -8 23 -12 44 -9 48 7 6 30 -21 38 -43 2 -6 7 -9 10 -6 7 7 -30 84
-62 129 -12 16 -29 47 -38 68 l-17 38 -7 -45 c-5 -33 -3 -47 7 -53 8 -4 14
-18 14 -30 0 -12 9 -33 20 -47 11 -14 20 -31 20 -37 0 -26 -28 -12 -52 25 -14
20 -45 60 -70 87 -24 28 -55 66 -68 85 -45 64 -164 186 -259 265 -52 43 -126
108 -165 145 -39 36 -81 73 -93 81 -25 17 -213 230 -213 242 0 22 32 0 140
-97 25 -22 -10 15 -77 84 -115 117 -124 124 -140 108 -16 -16 -16 -19 0 -36
27 -30 21 -46 -9 -23 -15 12 -33 21 -40 21 -28 0 -14 45 34 109 l25 33 80 -78
80 -79 -56 70z m2382 -2 c-23 -43 -54 -94 -69 -113 -15 -19 -67 -114 -115
-210 -48 -96 -104 -200 -125 -230 -57 -85 -107 -178 -135 -255 -51 -136 -97
-250 -110 -275 -23 -43 -93 -234 -124 -337 -16 -54 -36 -111 -44 -127 -9 -16
-13 -34 -10 -41 2 -7 -3 -27 -11 -44 -9 -16 -16 -40 -16 -53 0 -41 -75 -287
-104 -343 -9 -16 -16 -36 -16 -43 0 -7 -7 -27 -16 -44 -13 -24 -14 -36 -5 -50
8 -13 5 -39 -14 -110 -43 -166 -74 -359 -95 -609 -11 -134 -25 -279 -31 -322
-11 -75 -13 -79 -36 -74 -13 2 -26 0 -29 -4 -7 -12 -41 -11 -49 1 -4 6 -2 43
4 83 6 39 18 162 26 272 8 110 19 236 25 280 27 213 74 519 92 600 11 49 26
119 34 155 7 35 18 78 23 95 5 16 12 48 16 70 9 57 97 322 167 505 33 85 78
205 101 265 48 126 191 413 241 483 19 26 49 76 67 112 18 36 42 79 54 95 11
17 28 43 36 59 7 16 29 45 47 65 24 26 35 32 44 23 8 -8 15 -9 25 -1 31 27 -3
-43 -92 -186 -35 -55 -66 -111 -70 -125 l-6 -25 18 22 c45 56 85 115 134 203
29 52 55 97 59 100 3 3 19 28 34 55 49 86 97 155 107 155 6 0 -8 -35 -32 -77z
m1441 -54 c83 -18 47 -33 -83 -37 -125 -3 -153 -9 -284 -64 -51 -21 -117 -45
-148 -53 -80 -20 -348 -185 -558 -341 -101 -76 -302 -272 -590 -579 -78 -82
-149 -156 -159 -163 -35 -26 -26 7 17 63 25 32 43 60 40 63 -3 3 -7 3 -8 1
-112 -134 -327 -450 -327 -480 0 -10 -4 -20 -9 -23 -4 -3 -11 -18 -14 -33 -8
-34 -43 -81 -53 -70 -4 4 -2 17 4 30 6 12 14 44 17 72 8 55 52 150 84 179 21
19 29 56 12 56 -11 0 80 140 104 160 9 7 36 43 59 79 72 112 161 211 317 356
30 28 66 64 80 80 39 45 176 167 213 190 39 24 101 72 176 136 80 68 397 232
596 309 190 73 378 98 514 69z m195 -93 c8 -38 -6 -70 -35 -86 -16 -9 -20 -21
-20 -66 0 -46 -3 -55 -15 -50 -21 8 -19 -10 9 -92 27 -82 25 -92 -46 -179
-220 -270 -293 -375 -336 -478 -82 -202 -113 -286 -138 -375 -54 -192 -64
-239 -70 -315 -3 -44 -12 -102 -21 -128 -8 -26 -21 -111 -27 -188 -7 -77 -18
-145 -24 -151 -18 -18 -39 31 -62 152 -26 132 -67 235 -160 398 -71 125 -116
174 -217 239 -156 99 -247 123 -385 98 -130 -22 -308 -113 -308 -157 0 -17 90
-7 144 17 46 21 72 25 145 25 102 0 132 -10 216 -73 77 -57 93 -75 153 -174
45 -75 162 -351 211 -499 33 -99 101 -399 108 -472 7 -81 22 -117 23 -54 1
145 -60 430 -139 647 -87 240 -99 272 -117 304 -11 19 -30 55 -44 80 -37 70
-109 171 -126 178 -9 3 -44 24 -78 47 -35 22 -71 46 -81 52 -13 7 -16 16 -12
28 11 27 66 15 169 -36 144 -72 293 -232 373 -400 50 -106 132 -378 145 -483
5 -38 18 -90 29 -115 39 -90 40 -190 1 -190 -17 0 -19 -7 -18 -55 1 -45 -3
-59 -21 -79 -18 -19 -22 -33 -18 -58 5 -37 -16 -198 -37 -273 -8 -27 -17 -72
-20 -100 -12 -89 -57 -328 -72 -383 -9 -33 -19 -50 -26 -46 -8 5 -8 124 -2
428 11 510 9 589 -16 681 -36 133 -80 250 -113 300 -18 27 -40 63 -48 79 -46
94 -176 182 -300 205 -110 20 -181 -12 -297 -133 -130 -135 -196 -250 -377
-655 -45 -102 -117 -258 -158 -346 -42 -88 -89 -194 -106 -236 -16 -42 -51
-114 -77 -160 -61 -109 -106 -200 -101 -205 2 -2 27 33 56 78 29 46 72 115 97
153 25 39 47 81 51 95 6 27 96 228 172 385 27 55 57 120 67 145 10 25 37 79
60 120 23 41 44 86 49 100 11 38 114 240 146 287 16 23 29 45 29 48 0 4 14 29
32 57 39 60 185 175 234 184 72 13 158 0 230 -36 91 -46 94 -60 12 -60 -48 0
-76 -6 -114 -25 -68 -34 -222 -190 -280 -285 -140 -225 -281 -465 -316 -535
-23 -44 -57 -105 -78 -135 -20 -30 -65 -104 -100 -165 -34 -60 -91 -154 -126
-208 -35 -54 -64 -100 -64 -104 0 -12 43 32 95 97 53 67 133 192 201 315 21
39 52 90 69 115 30 43 51 81 172 305 55 101 120 209 154 255 11 14 34 48 52
75 36 54 100 115 120 115 21 0 91 -41 110 -63 33 -41 65 -112 105 -239 51
-160 66 -236 92 -478 11 -107 25 -229 31 -271 9 -75 6 -109 -12 -109 -5 0 -31
11 -58 25 l-48 24 -79 -49 c-52 -33 -106 -80 -163 -142 -97 -107 -138 -167
-201 -296 -44 -93 -63 -109 -89 -78 -6 8 -25 19 -41 26 -21 9 -30 19 -30 35 0
30 110 269 168 365 66 110 159 236 190 257 91 61 150 66 248 23 37 -17 70 -28
73 -24 8 8 -57 63 -97 80 -17 8 -59 17 -92 21 -55 5 -63 3 -109 -26 -65 -42
-108 -88 -186 -197 -82 -113 -130 -209 -175 -342 -41 -124 -46 -127 -127 -87
-48 25 -61 27 -121 22 -40 -3 -92 -16 -125 -31 -86 -38 -202 -122 -260 -188
-27 -32 -53 -58 -57 -58 -5 0 -10 21 -12 46 -4 50 3 60 62 89 19 10 94 78 166
151 119 120 134 140 153 195 21 61 17 99 -11 99 -6 0 -46 -33 -89 -74 -92 -88
-153 -129 -179 -121 -13 4 -31 -9 -66 -50 -49 -56 -74 -69 -74 -37 0 30 -31
366 -36 390 -6 27 -20 29 -27 2 -3 -12 -14 -20 -26 -20 -27 0 -26 10 4 51 54
74 67 129 84 350 28 364 58 548 96 589 15 16 28 48 35 90 7 36 18 80 26 99 8
19 24 71 35 115 31 124 47 165 88 236 59 99 141 260 141 276 0 19 46 90 86
134 18 19 44 53 58 74 14 22 71 87 125 145 55 58 112 122 128 141 61 74 414
410 543 516 141 116 198 158 280 209 27 17 76 46 109 67 32 20 70 39 83 43 12
4 63 25 111 47 48 22 159 57 245 79 128 32 172 39 237 37 47 -1 88 3 100 10
11 6 37 12 57 12 34 0 38 -3 43 -34z m-3125 -206 c0 -16 -5 -30 -12 -32 -9 -3
-9 -15 2 -49 l14 -44 4 33 c2 17 6 32 10 32 6 0 52 -144 52 -163 0 -20 -23 -3
-35 26 -12 27 -14 28 -15 10 0 -44 -17 -22 -39 52 -13 42 -27 78 -32 81 -14 8
-10 40 6 54 9 7 14 19 11 26 -7 18 5 26 21 13 7 -6 13 -24 13 -39z m3096 -77
c-12 -12 -29 15 -21 34 7 17 8 16 18 -5 5 -12 7 -25 3 -29z m-4746 -98 c-7 -9
-15 -13 -17 -11 -7 7 7 26 19 26 6 0 6 -6 -2 -15z m4845 -45 c4 -6 -3 -25 -14
-43 -25 -40 -158 -173 -166 -165 -13 12 144 218 166 218 4 0 11 -5 14 -10z
m-3605 -101 c40 -25 42 -27 116 -137 31 -45 68 -88 82 -96 16 -8 21 -16 13
-20 -21 -13 -12 -28 14 -22 22 6 29 0 59 -46 18 -29 52 -90 75 -135 22 -46 52
-90 66 -99 30 -20 79 -117 100 -199 20 -79 19 -85 -11 -85 -20 0 -25 4 -20 16
4 10 -12 33 -47 67 -29 29 -64 72 -78 97 -105 187 -199 344 -235 390 -23 30
-51 75 -61 100 -11 25 -37 65 -57 89 -40 48 -71 101 -59 101 5 0 24 -10 43
-21z m3340 -194 c-7 -9 -15 -13 -18 -10 -3 2 1 11 8 20 7 9 15 13 18 10 3 -2
-1 -11 -8 -20z m-30 -87 c0 -6 -16 -26 -35 -45 -21 -21 -35 -45 -35 -59 0 -13
-9 -33 -19 -43 -11 -11 -23 -41 -27 -68 -4 -26 -17 -75 -29 -108 -41 -109 -73
-208 -104 -325 -17 -63 -47 -176 -67 -250 -20 -74 -40 -164 -44 -200 -4 -36
-22 -112 -39 -170 -18 -58 -38 -129 -47 -157 -9 -33 -20 -53 -29 -53 -20 0
-19 2 11 165 59 316 77 393 134 572 35 109 63 214 65 249 6 74 51 188 135 344
77 143 97 171 115 163 8 -3 15 -10 15 -15z m-2690 -257 c0 -11 -4 -23 -10 -26
-6 -4 -10 5 -10 19 0 14 5 26 10 26 6 0 10 -9 10 -19z m-1298 -46 c157 -33
404 -205 612 -425 65 -69 130 -140 144 -158 l26 -34 -62 -121 c-139 -276 -187
-403 -298 -792 -68 -236 -137 -542 -194 -860 -12 -66 -25 -127 -27 -135 -8
-21 -19 35 -33 160 -6 58 -24 186 -40 285 -16 99 -32 225 -35 280 -4 55 -15
145 -26 200 -24 121 -44 322 -68 685 -6 85 -13 173 -16 195 -11 74 -37 190
-45 199 -5 4 -15 -5 -23 -20 -19 -39 -33 -1092 -17 -1359 16 -275 30 -466 36
-512 10 -66 -9 -53 -59 40 -24 46 -66 114 -93 151 -27 36 -76 104 -110 149
-33 45 -63 89 -66 97 -10 25 -204 249 -316 362 l-105 108 7 52 c4 29 13 91 21
138 16 95 44 287 85 582 12 87 28 149 101 393 63 210 110 321 142 331 71 23
368 29 459 9z m1318 -406 c0 -38 -24 -35 -28 4 -2 19 1 27 12 27 11 0 16 -10
16 -31z m-74 -34 c17 -41 17 -45 4 -45 -10 0 -40 52 -40 70 0 23 22 8 36 -25z
m3778 19 c18 -17 22 -69 6 -79 -5 -3 -10 -1 -10 4 0 6 -9 11 -19 11 -29 0 -90
42 -91 63 0 14 9 17 49 17 32 0 55 -6 65 -16z m-3746 -140 c2 -28 2 -28 -13
-10 -18 24 -20 49 -2 44 6 -3 13 -18 15 -34z m-405 -261 c24 -60 57 -139 72
-178 37 -96 208 -444 263 -535 25 -41 51 -90 60 -110 8 -19 27 -53 43 -75 19
-27 31 -58 35 -90 l5 -50 -82 -55 c-127 -85 -295 -247 -400 -385 -51 -68 -166
-248 -197 -310 -8 -16 -33 -61 -55 -98 -23 -39 -52 -111 -68 -165 -15 -54 -38
-124 -52 -157 -14 -33 -42 -120 -61 -194 -20 -74 -39 -138 -44 -143 -5 -5 -8
48 -6 124 4 159 9 228 34 413 10 77 26 196 35 265 9 69 27 193 40 275 14 83
29 210 35 283 5 73 23 205 39 295 16 89 34 191 40 227 12 80 59 278 100 425
17 61 40 148 52 195 24 96 44 150 58 150 5 0 29 -48 54 -107z m-904 -165 c14
-198 36 -406 61 -593 37 -267 79 -552 105 -706 15 -85 29 -206 31 -269 3 -63
10 -133 15 -156 8 -29 7 -53 -1 -85 -7 -24 -13 -87 -15 -140 -1 -52 -6 -103
-12 -113 -9 -16 -12 -13 -26 21 -8 22 -19 56 -22 76 -4 20 -18 48 -30 61 -30
32 -53 113 -65 224 -6 48 -17 121 -25 162 -9 41 -22 163 -29 271 -7 108 -16
201 -20 207 -8 14 5 126 14 115 4 -4 12 -68 19 -142 7 -74 16 -142 21 -150 12
-20 12 -32 -4 147 -11 110 -19 161 -32 180 -15 23 -18 68 -24 382 -4 195 -4
414 1 485 4 72 8 142 9 158 0 15 4 27 8 27 5 0 14 -73 21 -162z m771 141 c0
-6 -18 -72 -40 -147 -36 -121 -160 -660 -205 -892 -9 -47 -30 -137 -45 -200
-20 -79 -38 -204 -59 -403 -29 -274 -44 -348 -66 -337 -20 10 10 378 35 445 6
15 10 38 10 53 0 29 21 133 51 250 23 87 23 102 5 102 -15 0 -25 -37 -65 -240
-30 -156 -59 -331 -72 -450 -9 -80 -16 -109 -30 -120 -16 -13 -21 -43 -33
-193 -8 -98 -17 -181 -21 -185 -26 -27 -28 101 -4 273 6 39 17 124 24 190 26
222 46 349 72 460 14 61 31 142 38 180 8 39 28 122 45 185 17 63 35 131 39
150 10 42 55 194 82 271 10 31 30 96 43 145 52 190 65 231 90 293 14 36 26 70
26 76 0 17 58 105 70 105 5 0 10 -5 10 -11z m470 -60 c6 -11 9 -25 7 -32 -2
-7 -11 3 -21 21 -9 17 -12 32 -7 32 6 0 15 -9 21 -21z m1859 -62 c45 -62 56
-85 110 -232 60 -166 60 -161 50 -1222 -3 -418 -7 -545 -17 -555 -17 -17 -31
5 -33 47 0 29 -1 29 -11 8 -14 -30 -26 -29 -34 2 -5 19 -11 24 -25 20 -21 -7
-34 13 -44 67 -8 43 1 78 20 78 17 0 25 -22 25 -71 0 -39 13 -52 24 -24 3 8
17 15 31 15 21 0 25 5 25 28 -1 25 -1 26 -15 8 -13 -17 -14 -13 -17 39 -2 43
-8 61 -21 69 -15 9 -21 7 -36 -13 -18 -23 -19 -23 -28 -5 -15 28 -25 92 -18
114 10 31 24 23 30 -17 11 -65 13 -69 32 -50 16 16 16 20 -1 67 -14 38 -16 65
-11 117 10 113 6 200 -19 358 -14 82 -27 179 -31 215 -4 36 -18 120 -31 188
-13 68 -24 134 -24 146 0 13 -9 58 -20 102 -63 244 -115 361 -193 429 -48 41
-50 45 -26 45 32 0 104 -61 128 -109 26 -51 95 -266 126 -390 25 -104 44 -153
45 -120 0 8 -11 53 -25 99 -14 46 -25 91 -25 100 0 10 -14 66 -31 126 -34 117
-75 214 -121 281 -27 40 -36 73 -20 73 18 0 52 -33 76 -74 27 -46 89 -232 101
-301 5 -32 41 -147 81 -264 2 -8 7 -11 10 -8 3 3 -3 34 -14 69 -11 35 -37 124
-57 198 -20 74 -52 182 -71 240 -19 58 -38 114 -41 124 -5 17 -2 18 29 13 30
-4 37 -2 41 14 9 33 31 21 76 -44z m2202 -25 c-26 -36 -148 -154 -187 -180
-17 -12 -69 -72 -116 -134 -102 -135 -338 -491 -400 -603 -24 -44 -57 -100
-73 -125 -17 -25 -68 -117 -115 -204 l-85 -160 -75 -46 c-41 -25 -97 -63 -123
-83 -62 -47 -71 -47 -64 2 14 106 322 620 507 846 31 39 66 90 77 115 13 30
51 76 108 130 245 235 304 289 345 320 25 18 68 55 95 81 78 73 150 101 106
41z m-6614 -145 c13 -29 111 -104 199 -153 35 -20 81 -55 101 -79 21 -23 79
-76 128 -118 145 -120 297 -275 370 -377 37 -52 84 -115 104 -139 45 -56 69
-91 346 -511 46 -70 75 -134 75 -167 0 -45 -12 -36 -56 45 -73 133 -167 286
-222 361 -30 42 -80 110 -110 151 -128 174 -221 296 -241 314 -44 40 -17 -4
74 -119 113 -142 222 -295 299 -420 30 -49 68 -108 83 -129 83 -118 185 -305
219 -401 15 -44 42 -99 61 -122 64 -80 90 -215 62 -317 -8 -27 -8 -41 0 -49
17 -17 13 -44 -8 -59 -17 -12 -18 -19 -9 -62 10 -48 7 -63 -10 -52 -13 8 -79
173 -87 219 -11 57 16 47 44 -15 13 -29 25 -48 27 -43 8 19 -122 366 -181 485
-37 75 -80 199 -71 207 3 3 8 -3 12 -13 4 -10 24 -55 45 -99 21 -44 60 -128
88 -187 28 -60 55 -108 60 -108 7 0 7 8 2 23 -30 76 -101 228 -154 327 -33 63
-72 137 -85 164 -30 62 -72 125 -72 108 0 -7 6 -25 14 -40 7 -15 16 -44 19
-64 3 -20 13 -53 23 -73 9 -20 15 -38 12 -40 -5 -6 -63 81 -75 111 -11 31
-151 271 -212 366 -115 179 -231 345 -279 399 -28 30 -57 72 -66 92 -8 21 -19
37 -23 36 -4 -1 -13 -1 -20 0 -20 2 -457 470 -486 521 -16 28 -25 50 -20 50 6
0 15 -11 20 -23z m2573 -326 c0 -5 3 -18 6 -28 5 -16 4 -16 -10 1 -18 23 -20
36 -6 36 6 0 10 -4 10 -9z m160 -271 c6 -16 9 -39 5 -51 l-8 -23 -18 23 c-23
28 -26 93 -5 85 8 -3 19 -18 26 -34z m-2256 -21 c13 -19 13 -26 -1 -63 -14
-40 -37 -142 -50 -219 -3 -21 -10 -40 -14 -43 -13 -8 -11 132 3 257 11 98 13
107 29 98 10 -5 25 -19 33 -30z m5543 -151 c11 -13 37 -54 57 -93 l37 -70 -36
-32 c-19 -18 -43 -33 -52 -33 -11 0 -32 23 -52 55 -19 30 -39 55 -43 55 -12 0
-10 -6 22 -57 33 -51 39 -93 15 -93 -9 0 -19 8 -22 18 -4 9 -19 38 -35 63
l-28 46 34 66 c53 105 66 115 103 75z m-3323 -20 c-24 -40 -78 -114 -144 -198
-144 -182 -219 -300 -298 -470 -24 -52 -79 -167 -122 -255 -71 -143 -85 -183
-135 -370 -31 -115 -65 -239 -75 -275 -18 -60 -78 -401 -114 -648 -9 -56 -20
-111 -26 -122 -5 -10 -15 -63 -20 -116 -11 -107 -29 -179 -41 -167 -5 5 -12
42 -16 83 l-7 75 -11 -44 c-9 -38 -12 -42 -24 -27 -11 13 -11 47 -2 193 7 98
14 232 17 298 4 76 16 167 34 250 16 72 32 157 35 190 4 33 20 98 35 145 16
47 36 121 45 165 15 75 29 124 88 320 32 107 96 233 146 290 10 11 35 49 56
84 104 173 268 371 395 476 40 33 89 77 109 97 34 35 92 54 75 26z m3810 -54
c26 -10 19 -22 -21 -35 -58 -19 -101 -49 -204 -145 -254 -238 -297 -271 -644
-488 -22 -14 -75 -54 -118 -90 -44 -36 -98 -75 -120 -85 -102 -48 -567 -570
-567 -637 0 -19 -63 -144 -108 -214 -19 -30 -46 -80 -59 -110 -33 -74 -121
-226 -141 -242 -13 -11 -14 -10 -8 16 4 15 9 69 13 120 3 50 11 103 19 118 11
22 12 32 3 47 -10 16 -5 34 32 112 60 129 146 287 178 329 14 19 61 87 104
150 96 142 251 309 360 389 120 88 227 174 227 182 0 11 93 75 141 96 66 30
174 98 250 159 37 30 72 54 77 54 13 0 158 95 212 140 55 45 155 106 207 125
39 14 139 20 167 9z m-3784 -75 c0 -10 -8 -22 -17 -27 -14 -8 -15 -14 -5 -38
15 -39 29 -137 37 -259 3 -55 13 -147 23 -204 l16 -103 -39 -31 c-66 -51 -245
-235 -350 -360 -157 -186 -266 -351 -361 -545 -116 -235 -136 -223 -69 42 19
72 57 201 85 286 29 85 67 209 87 275 19 66 54 159 79 208 24 48 44 92 44 97
0 20 100 232 133 283 19 29 59 90 89 137 30 47 85 121 123 165 37 44 75 91 83
104 15 22 16 22 29 5 7 -10 13 -26 13 -35z m50 -9 c0 -5 -4 -10 -10 -10 -5 0
-10 5 -10 10 0 6 5 10 10 10 6 0 10 -4 10 -10z m3722 1 c6 -17 162 -153 185
-162 22 -8 23 -14 23 -101 0 -98 -15 -217 -30 -232 -4 -4 -11 18 -14 50 -4 33
-16 100 -28 149 -11 50 -20 105 -19 124 1 27 -6 40 -38 71 -22 21 -57 44 -78
50 -47 15 -57 24 -50 44 7 17 43 22 49 7z m143 -25 c27 -29 52 -86 38 -86 -13
0 -113 94 -113 106 0 26 42 14 75 -20z m-1118 -23 c-7 -36 -240 -484 -280
-540 -17 -24 -63 -70 -103 -103 -41 -33 -101 -95 -134 -137 -34 -43 -66 -79
-71 -81 -18 -7 -9 55 15 104 13 27 52 108 85 181 113 244 183 360 264 437 72
68 201 166 220 166 5 0 7 -12 4 -27z m382 -44 l33 -40 -22 -24 c-26 -28 -167
-125 -181 -125 -15 0 -10 18 22 83 42 82 87 147 103 147 7 0 27 -18 45 -41z
m-1184 -65 c-16 -38 -17 -38 -26 -15 -7 17 -5 30 7 49 25 38 39 13 19 -34z
m-1842 -6 c3 -13 9 -79 12 -148 4 -69 10 -139 14 -155 5 -17 4 -41 -1 -54 -7
-21 -13 -23 -49 -18 -22 3 -43 7 -45 10 -9 8 -35 279 -32 325 3 40 7 47 28 53
49 14 68 10 73 -13z m1427 -64 c17 -42 28 -79 24 -82 -4 -4 -9 -1 -12 6 -2 8
-24 43 -48 79 -24 36 -44 67 -44 69 0 2 11 4 24 4 21 0 29 -11 56 -76z m90
-16 c0 -10 -5 -18 -10 -18 -15 0 -23 27 -16 47 6 15 8 15 16 3 6 -8 10 -23 10
-32z m-150 -108 c69 -138 159 -410 136 -410 -4 0 -32 14 -63 30 -45 24 -68 30
-118 30 -99 0 -161 -24 -224 -86 -30 -30 -58 -54 -63 -54 -4 0 -15 12 -25 28
-9 15 -34 46 -56 68 -45 48 -45 55 11 149 69 115 135 201 225 292 73 74 94 90
105 81 8 -7 40 -64 72 -128z m-932 48 c4 -23 -42 -73 -124 -133 -47 -35 -74
-62 -76 -77 -2 -18 -10 -24 -34 -26 -27 -3 -92 -52 -69 -52 4 0 0 -9 -10 -20
-10 -11 -22 -20 -27 -20 -5 0 -6 9 -3 20 3 11 4 20 1 20 -15 0 -129 -105 -137
-127 -14 -37 -52 -81 -114 -133 -101 -84 -297 -343 -432 -570 -28 -47 -85
-164 -128 -260 -42 -96 -90 -204 -107 -239 -36 -76 -66 -155 -120 -310 -31
-90 -38 -126 -36 -170 l3 -56 48 145 c26 80 52 163 58 185 39 142 396 840 486
948 13 16 23 33 23 38 0 26 235 279 259 279 19 0 32 -77 41 -245 5 -93 12
-188 15 -210 6 -35 3 -44 -22 -70 -16 -17 -57 -83 -91 -148 -34 -64 -77 -139
-96 -165 -18 -26 -47 -72 -64 -103 -33 -59 -107 -149 -123 -149 -18 0 -8 26
41 110 28 47 50 91 50 99 0 20 -30 -21 -79 -109 -24 -41 -61 -99 -83 -128 -39
-53 -44 -82 -13 -82 26 0 211 196 269 284 29 45 77 126 106 181 62 116 90 157
104 152 17 -6 24 -84 30 -334 6 -240 20 -414 37 -444 5 -10 9 -57 9 -105 l0
-88 -92 90 c-142 137 -145 139 -314 139 -139 0 -140 0 -206 -34 -87 -44 -162
-112 -226 -204 -83 -119 -174 -335 -221 -523 -29 -119 -47 -174 -55 -174 -2 0
-2 33 0 74 4 70 3 74 -16 69 -15 -4 -20 0 -21 13 0 11 -4 54 -8 97 -6 58 -5
91 5 125 8 25 12 48 9 50 -3 3 -5 0 -5 -6 0 -7 -4 -12 -9 -12 -18 0 -23 79 -8
127 8 27 22 84 31 128 10 44 26 107 36 140 18 57 36 135 65 290 15 81 106 310
160 405 20 36 56 103 80 150 23 47 52 94 64 104 11 10 50 63 86 117 37 53 104
141 150 193 46 53 98 115 114 139 33 47 109 122 191 187 30 24 75 63 100 85
25 23 123 94 219 160 96 65 192 138 215 162 41 43 58 49 64 21z m2842 -55 c0
-89 -9 -153 -21 -153 -4 0 -10 12 -12 28 -3 19 -4 15 -6 -15 0 -25 4 -43 12
-46 10 -3 10 -9 0 -26 -16 -25 -17 -45 -3 -36 14 9 13 -78 -2 -93 -9 -9 -9
-15 0 -24 7 -7 12 -28 12 -47 0 -20 5 -54 11 -76 5 -22 14 -101 19 -175 23
-309 27 -341 70 -475 84 -263 91 -295 70 -295 -6 0 -15 12 -21 28 -6 15 -42
90 -80 167 -41 86 -78 179 -94 239 -15 55 -35 123 -46 150 -10 28 -19 69 -19
91 0 22 -7 76 -15 120 -21 112 -33 588 -15 610 17 21 41 19 47 -5 8 -28 21
-16 34 33 11 42 34 77 51 77 4 0 8 -35 8 -77z m-1512 -27 c6 -31 -16 -43 -27
-15 -5 13 -7 28 -4 32 8 13 28 2 31 -17z m-233 -36 c0 -7 -6 -15 -12 -17 -8
-3 -13 4 -13 17 0 13 5 20 13 18 6 -3 12 -11 12 -18z m-4065 -46 c50 -10 119
-36 205 -78 134 -65 198 -109 322 -218 39 -35 93 -81 119 -103 178 -149 476
-592 480 -715 0 -25 8 -57 17 -71 9 -13 27 -65 40 -115 14 -50 30 -101 37
-113 6 -12 14 -41 18 -64 8 -47 39 -62 34 -17 -1 14 -4 39 -6 55 -1 17 -8 44
-15 60 -15 37 -16 564 -1 579 7 7 10 1 10 -14 2 -146 22 -605 28 -641 5 -25 5
-56 0 -69 -5 -14 -5 -35 1 -52 11 -32 5 -58 -14 -58 -22 0 -46 -162 -26 -174
15 -9 14 -63 -1 -72 -16 -10 -34 20 -41 71 -4 25 -18 67 -32 95 -14 27 -25 57
-25 67 0 23 -17 49 -26 41 -4 -4 12 -63 35 -131 22 -69 41 -136 41 -149 0 -14
9 -35 20 -48 21 -24 27 -46 10 -35 -24 15 -63 103 -115 260 -31 94 -65 184
-75 200 -10 17 -30 71 -44 120 -50 178 -281 617 -397 755 -68 81 -122 160
-115 167 9 9 45 -26 173 -172 108 -124 242 -318 267 -388 15 -42 23 -55 46
-67 30 -16 33 5 5 38 -14 16 -25 33 -25 37 0 8 -79 142 -136 232 -18 28 -52
66 -75 85 -23 18 -58 58 -79 88 -46 66 -347 366 -357 356 -4 -4 18 -32 50 -63
32 -31 56 -58 53 -60 -2 -2 -41 25 -87 62 -46 36 -111 83 -144 105 -33 21 -73
49 -89 61 -15 12 -57 33 -92 45 -35 13 -87 35 -115 49 -39 21 -226 65 -272 65
-4 0 -5 5 -1 11 9 16 292 3 394 -17z m3181 -84 c27 -15 24 -27 -8 -35 -44 -11
-204 -116 -252 -165 -45 -46 -241 -286 -241 -295 0 -18 31 2 63 43 21 26 80
93 130 150 l92 102 50 -6 c60 -8 155 -42 155 -55 0 -61 -218 -471 -301 -567
-32 -36 -73 -111 -66 -119 3 -2 22 -1 42 3 88 16 336 260 437 430 34 57 67
104 72 104 6 0 30 -27 52 -60 l41 -60 -37 -103 c-21 -56 -43 -115 -50 -132
-28 -67 -164 -426 -192 -505 -30 -87 -138 -312 -205 -431 -52 -90 -163 -239
-179 -239 -20 0 -24 27 -22 165 0 72 -4 160 -10 195 -6 36 -16 151 -21 255
-23 440 -50 705 -72 705 -12 0 -11 -64 2 -294 13 -208 14 -200 -49 -212 -21
-4 -38 -2 -45 5 -7 7 -15 66 -19 149 -3 75 -10 162 -13 194 -7 53 -6 57 19 73
28 19 35 45 11 45 -40 0 16 42 70 52 18 3 20 11 20 108 0 58 -4 126 -8 151 -8
45 -6 49 40 110 71 93 200 189 318 236 37 15 150 17 176 3z m-696 -20 c3 -5
-1 -10 -10 -10 -9 0 -13 5 -10 10 3 6 8 10 10 10 2 0 7 -4 10 -10z m837 -174
c26 -27 48 -43 48 -35 0 7 -25 36 -55 64 -50 46 -68 75 -47 75 4 0 28 -13 53
-30 115 -78 166 -121 193 -165 l29 -47 -28 -59 c-16 -32 -33 -59 -39 -59 -6 0
-21 15 -33 33 -13 18 -45 54 -73 81 -27 26 -50 53 -50 59 0 6 -3 8 -6 4 -7 -7
-69 23 -126 60 -20 14 -54 31 -75 38 -50 17 -50 43 2 72 l39 22 60 -32 c33
-17 81 -54 108 -81z m-728 -13 c10 -48 29 -351 23 -368 -13 -33 -100 -4 -111
37 -3 13 -9 84 -12 159 l-7 137 43 31 c24 17 46 31 50 31 4 0 10 -12 14 -27z
m1373 -19 c18 -14 45 -41 60 -60 33 -44 21 -57 -47 -50 -66 6 -102 -14 -201
-111 -63 -62 -108 -117 -157 -197 -76 -122 -102 -169 -102 -186 0 -6 -20 -53
-44 -103 -67 -142 -112 -247 -132 -307 -9 -30 -45 -115 -79 -190 -129 -283
-272 -510 -388 -614 -70 -61 -74 -63 -139 -70 -100 -10 -100 5 2 81 77 57 205
212 251 303 18 36 53 101 77 144 44 78 62 120 149 331 25 61 51 124 58 140 63
143 148 362 175 450 28 92 123 269 173 322 28 29 51 62 52 73 1 14 20 30 61
50 54 28 65 30 129 24 53 -4 78 -12 102 -30z m-2657 -28 c0 -16 -18 -31 -27
-22 -8 8 5 36 17 36 5 0 10 -6 10 -14z m3784 -13 c-10 -16 -53 -93 -97 -173
-102 -187 -159 -282 -210 -350 -23 -30 -60 -82 -82 -115 -59 -90 -247 -334
-313 -408 -31 -35 -88 -98 -125 -140 -78 -87 -104 -106 -113 -82 -8 19 23 64
117 176 39 45 80 96 91 112 l21 29 -21 -6 c-22 -7 -39 8 -22 19 6 4 33 50 61
103 57 112 144 255 198 327 20 28 48 68 61 90 14 22 52 72 85 110 34 39 75 91
93 117 18 26 53 64 78 85 25 21 65 54 87 74 75 64 124 81 91 32z m-1822 -56
c50 -38 57 -60 30 -90 -10 -12 -42 -56 -70 -97 -28 -41 -65 -88 -82 -105 -18
-16 -57 -63 -87 -102 -49 -66 -149 -163 -167 -163 -14 0 7 45 39 85 50 63 101
146 133 221 17 38 42 89 56 115 14 25 32 65 41 89 15 43 41 80 56 80 4 0 27
-15 51 -33z m-1967 -143 c-4 -57 -11 -104 -16 -104 -10 0 -12 183 -2 219 5 20
7 21 15 6 6 -10 7 -59 3 -121z m2670 -14 c20 -33 43 -60 51 -60 11 0 13 -6 9
-21 -8 -24 13 -119 26 -119 18 0 14 72 -7 144 -17 62 -18 86 -1 86 31 0 47
-27 59 -100 6 -41 19 -83 27 -93 12 -15 13 -22 3 -37 -18 -29 -15 -54 10 -69
21 -13 21 -14 3 -27 -17 -13 -17 -22 -7 -156 13 -163 3 -350 -29 -536 -19
-113 -32 -152 -49 -152 -21 0 -30 45 -30 155 0 64 -4 169 -9 233 -6 64 -15
191 -21 282 -20 306 -53 483 -90 495 -26 8 -26 35 -1 35 13 0 32 -20 56 -60z
m530 23 c-7 -32 -50 -109 -66 -118 -19 -12 -21 3 -5 27 9 12 16 31 16 41 0 29
29 77 46 77 13 0 15 -6 9 -27z m-489 2 c10 -25 -7 -40 -23 -20 -7 11 -13 22
-13 27 0 14 30 9 36 -7z m-157 -19 c35 -42 80 -244 107 -477 27 -244 28 -263
14 -254 -15 9 -130 246 -130 267 0 8 -15 50 -33 94 -81 193 -99 244 -93 267 6
24 97 117 114 117 5 0 15 -6 21 -14z m351 -98 c12 -70 8 -97 -17 -105 -15 -5
-23 32 -23 110 0 51 3 67 14 67 10 0 18 -22 26 -72z m120 27 c0 -28 -29 -87
-40 -80 -13 8 -13 19 4 60 15 36 36 47 36 20z m-3070 -101 c0 -29 -4 -43 -11
-39 -5 4 -8 12 -6 18 2 7 0 20 -5 30 -9 18 -3 37 13 37 5 0 9 -21 9 -46z m95
-149 c0 -126 -3 -177 -12 -186 -9 -9 -13 -48 -13 -121 0 -59 -4 -108 -9 -108
-11 0 -25 194 -18 247 3 21 10 58 16 83 5 25 7 82 4 126 -7 97 2 163 20 145 8
-8 12 -66 12 -186z m2365 90 c26 -52 52 -115 101 -250 17 -44 45 -116 63 -160
19 -44 55 -145 82 -225 37 -116 46 -153 40 -183 -4 -20 -11 -37 -16 -37 -4 0
-30 44 -56 98 -26 53 -60 115 -74 137 -53 78 -172 307 -195 373 -28 80 -51
199 -41 209 15 15 46 -38 96 -162 29 -71 55 -132 58 -135 11 -11 -9 62 -28
102 -11 23 -20 46 -20 50 0 5 -18 52 -40 104 -42 97 -45 138 -12 132 10 -2 28
-26 42 -53z m493 -31 c8 -8 -3 -34 -14 -34 -5 0 -9 9 -9 20 0 19 11 26 23 14z
m7 -89 c0 -8 -4 -15 -9 -15 -13 0 -22 16 -14 24 11 11 23 6 23 -9z m-596 -122
c40 -101 144 -308 201 -397 17 -28 56 -98 85 -155 l53 -103 -6 -152 c-4 -87
-14 -187 -25 -236 -11 -53 -15 -98 -11 -119 7 -34 0 -107 -19 -191 -24 -106
-36 -200 -33 -265 2 -54 -4 -89 -24 -152 -18 -59 -29 -121 -36 -220 -12 -169
-12 -169 -39 -268 -12 -44 -25 -132 -30 -195 -5 -63 -16 -142 -24 -175 -9 -33
-18 -94 -21 -135 -10 -134 -26 -243 -57 -370 -16 -69 -34 -161 -39 -205 -6
-44 -23 -132 -39 -195 -16 -63 -36 -169 -45 -235 -9 -66 -27 -172 -41 -235
-14 -63 -29 -152 -34 -198 -13 -122 -95 -460 -166 -682 -18 -58 -37 -133 -43
-167 -20 -128 -129 -428 -186 -515 -18 -27 -36 -40 -67 -49 -31 -9 -37 -14
-23 -17 11 -2 26 -9 33 -15 20 -16 -12 -37 -54 -37 -30 0 -34 3 -40 37 -4 20
-2 57 4 82 11 47 10 446 -3 716 -3 77 -8 529 -11 1005 -5 968 -9 1196 -23
1290 -18 121 -34 790 -20 804 3 4 32 -9 63 -28 46 -28 72 -36 132 -41 96 -9
152 -2 177 23 27 28 18 44 -45 77 -155 80 -298 205 -334 291 -8 20 -18 68 -21
107 -4 49 -9 64 -14 50 -12 -34 -27 -36 -54 -8 -27 26 -26 45 2 45 23 0 139
80 198 137 28 26 68 73 90 103 41 57 255 472 255 495 0 7 16 38 35 70 19 32
42 81 51 109 37 117 181 416 199 416 7 0 29 -44 49 -97z m601 -41 c-5 -14 -7
-14 -15 -2 -14 21 -12 54 3 69 10 10 13 6 15 -19 2 -18 1 -39 -3 -48z m-3821
59 c3 -5 -10 -21 -29 -35 -41 -32 -48 -56 -7 -28 15 11 45 29 67 40 36 18 44
19 78 7 42 -14 69 -34 62 -45 -2 -4 -31 -10 -64 -14 -89 -10 -191 -88 -292
-221 -22 -29 -46 -55 -53 -58 -7 -3 -37 1 -66 9 -30 8 -61 14 -69 14 -27 0
-48 28 -43 60 5 38 146 197 201 228 46 26 71 28 71 6 0 -11 10 -8 43 15 41 29
90 40 101 22z m331 -188 c122 -122 178 -204 272 -402 88 -182 101 -217 143
-371 18 -63 47 -162 65 -220 18 -58 43 -141 54 -184 22 -82 28 -192 12 -181
-19 11 -20 -13 -1 -50 11 -21 17 -42 14 -46 -3 -5 -2 -14 2 -20 3 -6 8 -29 9
-51 2 -23 17 -60 37 -90 27 -43 33 -62 33 -107 0 -88 -20 -72 -50 41 -16 57
-41 135 -57 173 -15 39 -28 75 -28 80 0 6 -9 16 -21 23 -16 10 -19 19 -14 43
5 22 3 29 -9 29 -8 0 -18 10 -21 23 -4 12 -20 51 -35 87 -62 143 -69 165 -58
177 12 15 5 37 -42 138 -21 44 -45 108 -53 142 -28 107 -77 225 -93 219 -8 -3
-25 17 -47 57 -70 128 -188 314 -242 382 -86 109 -108 143 -101 160 9 24 33
17 46 -14 13 -32 60 -81 60 -63 0 6 -9 26 -20 44 -25 41 -26 74 -3 87 25 13
37 4 148 -106z m455 72 c0 -8 -4 -15 -10 -15 -5 0 -10 7 -10 15 0 8 5 15 10
15 6 0 10 -7 10 -15z m-725 -45 c3 -5 -3 -10 -14 -10 -12 0 -21 5 -21 10 0 6
6 10 14 10 8 0 18 -4 21 -10z m45 -127 c49 -51 103 -123 156 -208 125 -201
271 -471 261 -482 -3 -2 -37 38 -75 90 -39 52 -117 141 -174 199 -106 106
-105 106 -407 274 -48 26 -56 35 -56 60 0 21 7 32 27 42 15 7 44 33 64 57 33
41 40 45 82 45 45 0 49 -3 122 -77z m2161 57 c-13 -11 -29 -20 -36 -20 -7 0
-20 -3 -29 -6 -25 -10 -19 21 7 34 12 6 36 11 52 11 l30 0 -24 -19z m30 -147
c0 -60 4 -133 8 -163 12 -81 2 -100 -54 -100 -59 0 -86 25 -84 78 1 20 -4 73
-10 117 -16 116 -12 129 57 153 87 30 82 35 83 -85z m-2786 22 c206 -55 258
-72 330 -107 73 -37 200 -112 298 -176 51 -34 265 -250 284 -287 9 -16 42 -68
73 -115 85 -128 167 -277 194 -355 13 -39 32 -88 41 -109 13 -31 14 -44 5 -60
-9 -18 -4 -36 29 -109 36 -76 61 -108 61 -77 0 6 6 10 14 10 8 0 17 -15 21
-37 3 -20 22 -90 41 -154 38 -132 41 -157 19 -185 -14 -19 -15 -18 -35 6 -11
14 -54 93 -96 175 -42 83 -83 157 -90 166 -17 19 -18 46 -3 51 12 4 -39 118
-53 118 -5 0 1 -18 12 -40 24 -48 27 -68 5 -50 -8 7 -15 18 -15 24 0 7 -22 46
-48 87 -26 41 -77 126 -112 189 -61 111 -107 180 -280 415 -162 221 -238 311
-324 379 -73 58 -241 145 -390 203 -55 21 -102 44 -104 52 -5 16 26 12 123
-14z m82 -140 c18 -8 33 -19 33 -25 0 -15 -24 -59 -74 -138 -62 -96 -110 -226
-146 -392 -17 -80 -40 -185 -51 -235 -17 -74 -22 -164 -34 -515 -14 -417 -20
-509 -51 -700 -17 -111 -32 -170 -42 -170 -4 0 -7 278 -6 618 1 827 11 920
143 1356 17 55 44 129 62 164 l31 64 51 -6 c28 -4 65 -13 84 -21z m2711 -187
c-7 -20 -87 -43 -101 -29 -15 15 -4 23 40 31 57 11 65 11 61 -2z m1370 -59 c2
-9 -9 -21 -24 -28 -23 -10 -30 -9 -43 4 -15 15 -14 17 4 31 24 18 59 14 63 -7z
m-1344 -41 c3 -29 6 -98 6 -154 0 -100 0 -100 -32 -131 -18 -17 -44 -36 -58
-43 -20 -11 -146 -40 -172 -40 -8 0 -63 131 -77 186 -6 23 -36 76 -66 117 -30
41 -55 80 -55 86 0 16 72 -26 125 -72 24 -20 76 -78 115 -127 40 -50 81 -95
92 -101 19 -10 20 -9 15 17 -27 150 -36 236 -28 252 5 10 28 24 50 31 22 6 43
16 46 21 16 26 33 7 39 -42z m1343 -45 c-3 -16 -14 -86 -23 -157 -19 -136 -26
-148 -70 -127 -23 10 -24 15 -19 63 9 84 37 222 48 236 5 6 23 12 39 12 28 0
30 -2 25 -27z m-2817 -254 c24 -65 27 -117 6 -100 -13 11 -46 123 -46 158 0
28 18 2 40 -58z m80 -18 c0 -26 -10 -51 -21 -51 -10 0 -12 53 -2 63 12 13 23
7 23 -12z m2665 -61 c-3 -5 -13 -10 -21 -10 -8 0 -12 5 -9 10 3 6 13 10 21 10
8 0 12 -4 9 -10z m-2640 -50 c0 -7 -6 -15 -12 -17 -8 -3 -13 4 -13 17 0 13 5
20 13 18 6 -3 12 -11 12 -18z m2655 -22 c-1 -83 -37 -290 -54 -306 -14 -14
-17 -14 -35 2 -15 13 -18 24 -11 40 4 12 13 72 20 135 11 94 17 118 37 142 34
40 43 37 43 -13z m-1391 -18 c54 -15 64 -27 116 -130 26 -52 57 -108 69 -123
61 -81 162 -190 185 -200 14 -6 50 -27 80 -45 38 -25 50 -37 40 -42 -7 -5 -17
-6 -21 -4 -5 3 -36 9 -69 14 -53 8 -70 17 -155 81 -52 40 -100 82 -106 93 -6
12 -37 48 -68 81 -80 84 -189 262 -175 286 8 11 35 8 104 -11z m-1260 -145 c5
-38 16 -101 25 -140 20 -97 31 -215 19 -215 -10 0 -33 65 -33 94 0 9 -20 88
-45 174 -25 86 -45 162 -45 169 0 6 12 18 28 25 25 13 27 12 34 -12 5 -14 12
-56 17 -95z m3467 -162 c-3 -71 -15 -171 -25 -223 -33 -162 -36 -200 -17 -200
28 0 18 -82 -11 -95 -23 -10 -32 -35 -12 -35 15 0 3 -54 -26 -115 -13 -27 -26
-69 -30 -92 -6 -36 -4 -43 10 -43 13 0 16 -5 11 -22 -4 -13 -11 -49 -17 -80
-5 -32 -18 -72 -29 -90 -20 -35 -62 -187 -81 -293 -11 -67 -23 -85 -41 -67
-14 14 27 363 52 447 10 33 26 98 35 145 9 47 23 110 30 140 24 94 63 300 80
420 20 140 44 289 51 313 3 9 10 17 16 17 8 0 9 -38 4 -127z m-516 -28 c18
-61 61 -272 103 -500 12 -67 15 -73 16 -37 2 72 18 46 30 -49 10 -80 10 -93
-4 -103 -14 -10 -13 -22 10 -116 14 -58 28 -146 32 -196 6 -88 5 -94 -26 -154
-29 -60 -31 -70 -31 -176 0 -212 -26 -371 -56 -341 -4 3 -3 58 2 121 5 63 6
130 2 148 -4 18 -3 94 3 169 8 114 7 143 -5 175 -9 25 -19 115 -26 254 -13
249 -45 574 -60 614 -5 15 -7 38 -4 50 3 13 -2 50 -10 83 -18 70 -22 153 -6
137 6 -6 19 -41 30 -79z m-1631 -11 c34 -38 34 -55 1 -47 -24 6 -50 40 -50 65
0 27 15 22 49 -18z m1271 10 c0 -9 -7 -14 -17 -12 -25 5 -28 28 -4 28 12 0 21
-6 21 -16z m1241 -95 c-6 -24 -22 -111 -37 -194 -26 -146 -59 -280 -74 -300
-5 -5 -27 -73 -50 -150 -23 -77 -62 -194 -86 -260 -48 -129 -348 -735 -381
-769 -11 -12 -29 -39 -40 -61 -30 -60 -142 -340 -168 -420 -49 -152 -85 -272
-91 -305 -10 -49 -30 -86 -74 -134 -21 -22 -58 -70 -82 -106 -24 -36 -53 -67
-63 -69 -31 -6 -70 -52 -123 -148 -29 -51 -52 -96 -52 -99 0 -4 -10 -21 -23
-38 -37 -49 -71 -115 -64 -122 4 -4 -3 -12 -16 -18 -12 -6 -40 -43 -62 -81
-23 -39 -57 -95 -76 -125 -20 -30 -41 -71 -48 -90 -6 -19 -38 -73 -69 -120
-43 -63 -64 -86 -83 -88 -19 -2 -36 -21 -72 -80 -26 -43 -47 -89 -47 -101 0
-15 -16 -40 -45 -67 -26 -24 -45 -51 -45 -63 0 -12 -7 -37 -15 -57 -11 -27
-12 -40 -3 -60 14 -30 0 -44 -46 -44 -32 0 -32 -5 3 122 28 102 75 193 110
214 22 13 49 57 105 172 42 84 87 168 100 185 13 18 41 64 61 102 21 39 45 79
54 90 26 30 71 103 71 114 0 6 19 34 43 63 24 29 60 79 81 111 21 31 51 66 67
77 38 28 101 122 89 134 -18 18 -10 64 29 168 122 322 138 359 151 338 5 -8 9
-2 12 16 3 16 17 88 31 159 36 179 68 450 53 434 -3 -3 -10 -45 -16 -94 -15
-123 -35 -140 -24 -20 9 86 11 396 5 645 -3 104 10 234 24 248 16 16 31 -45
46 -182 5 -55 17 -127 25 -160 24 -97 29 -391 10 -576 -9 -85 -23 -166 -30
-180 -7 -14 -17 -34 -23 -45 -6 -11 -30 -79 -53 -152 -22 -72 -47 -136 -54
-142 -7 -6 -16 -35 -19 -64 -3 -28 -21 -94 -40 -144 -19 -51 -32 -93 -28 -93
14 0 81 107 107 171 14 35 34 82 44 105 11 22 25 58 33 80 8 21 25 64 37 94
54 138 82 228 95 304 21 122 51 220 99 326 24 52 52 115 62 140 10 25 33 64
51 87 28 37 124 194 228 373 18 30 44 82 59 115 15 33 31 67 36 75 46 72 151
349 166 435 3 22 12 54 19 70 23 52 64 172 80 237 20 74 24 83 37 70 5 -5 5
-26 -1 -53z m-1247 10 c0 -44 -24 -259 -30 -281 -7 -23 -36 -23 -65 1 -20 16
-21 21 -11 47 7 16 23 81 37 143 14 63 31 118 38 123 21 13 32 2 31 -33z
m-1194 -24 c0 -16 -45 -21 -54 -6 -8 12 4 21 31 21 14 0 23 -6 23 -15z m51
-204 c-1 -96 -7 -185 -12 -198 -8 -22 -13 -24 -56 -17 -74 10 -77 16 -81 164
-3 71 -2 144 2 163 6 30 9 33 47 34 23 1 51 9 63 17 11 8 25 14 30 12 6 -1 8
-76 7 -175z m1097 -113 c-5 -15 -48 -24 -48 -10 0 14 12 22 33 22 10 0 17 -5
15 -12z m2 -91 c0 -52 -42 -276 -56 -295 -11 -16 -14 -15 -34 3 -21 19 -22 26
-16 108 7 94 39 213 59 220 28 9 47 -5 47 -36z m-1175 -78 c-8 -12 -45 -12
-45 0 0 10 30 20 43 14 4 -3 5 -9 2 -14z m89 -207 c4 -106 5 -204 2 -218 -9
-35 -43 -48 -93 -35 -22 6 -45 17 -49 24 -5 6 -7 93 -4 191 l5 180 45 27 c84
52 84 52 94 -169z m-1444 163 c26 -31 -18 -71 -47 -43 -12 12 -13 20 -4 37 14
25 34 27 51 6z m70 -99 c4 -13 12 -98 16 -189 l7 -166 -25 -6 c-14 -4 -38 -5
-54 -3 -25 3 -30 8 -36 43 -10 61 -22 311 -15 329 5 11 19 16 52 16 39 0 47
-4 55 -24z m2417 -171 c3 -9 -4 -64 -16 -123 -12 -59 -24 -129 -28 -155 -6
-52 -18 -63 -58 -53 -22 6 -25 11 -25 56 0 57 37 239 53 259 11 12 43 29 60
30 4 1 10 -6 14 -14z m-2362 -225 c0 -17 -62 -26 -104 -14 -24 6 -21 8 24 19
61 16 80 14 80 -5z m1339 -177 c6 -149 6 -152 -16 -167 -28 -20 -61 -20 -96
-2 -40 21 -55 53 -42 96 5 19 10 73 10 120 0 47 4 92 9 99 12 19 102 31 117
17 7 -7 14 -71 18 -163z m-1340 93 c3 -17 7 -81 11 -143 l5 -111 -28 -7 c-77
-17 -102 28 -102 188 l0 97 29 0 c16 0 34 7 41 15 17 21 38 3 44 -39z m3014
-104 c-5 -140 -16 -192 -41 -192 -7 0 0 301 9 328 2 6 11 12 20 12 15 0 16
-15 12 -148z m-702 -36 c3 -7 -11 -78 -30 -158 -20 -79 -36 -151 -36 -160 0
-9 -7 -21 -16 -28 -13 -11 -19 -9 -42 13 -21 21 -26 35 -24 69 3 61 42 250 54
266 14 17 87 16 94 -2z m1651 -191 c29 -9 65 -27 81 -40 33 -28 78 -135 68
-161 -5 -14 -13 -10 -41 24 -46 52 -107 82 -172 82 -111 0 -268 -75 -375 -178
-26 -25 -51 -43 -54 -39 -11 10 58 88 121 137 86 66 121 99 109 100 -35 1
-238 -188 -301 -280 -17 -25 -48 -61 -68 -80 -37 -36 -71 -88 -61 -97 9 -9 26
8 65 66 46 67 71 91 71 68 0 -8 -28 -52 -62 -97 -35 -45 -84 -112 -110 -149
-62 -86 -178 -221 -190 -221 -5 0 0 12 11 26 23 29 27 44 12 44 -10 0 -116
-88 -202 -167 -30 -29 -58 -53 -61 -53 -7 0 6 73 16 88 4 7 12 12 18 12 19 0
48 32 48 52 0 10 48 68 108 129 59 61 132 146 162 189 124 178 146 208 200
275 115 141 244 235 390 286 34 12 154 3 217 -16z m-3925 -50 c3 -22 10 -84
14 -137 l7 -97 -34 -15 -34 -14 32 -1 c20 -1 36 -8 42 -19 5 -10 22 -76 36
-146 30 -140 29 -147 -28 -160 -25 -6 -29 -3 -44 31 -8 21 -18 75 -21 119 -4
76 -3 83 17 93 28 15 27 31 -2 31 -13 0 -36 13 -52 29 -23 25 -31 47 -46 138
-18 104 -24 185 -15 194 3 2 31 2 63 -1 l58 -5 7 -40z m1310 -70 c5 -55 5
-144 2 -198 -6 -92 -8 -99 -30 -109 -32 -15 -114 17 -130 51 -15 30 -29 234
-19 289 l7 41 41 -5 c34 -5 47 -2 67 15 45 38 54 26 62 -84z m878 -85 c0 -5
-4 -10 -10 -10 -5 0 -10 5 -10 10 0 6 5 10 10 10 6 0 10 -4 10 -10z m634 -46
c14 -37 -4 -134 -25 -134 -10 0 -12 93 -3 128 7 26 19 29 28 6z m-621 -24 c5
-4 -3 -63 -16 -131 -14 -68 -28 -144 -32 -169 -14 -84 -33 -97 -92 -60 -42 25
-43 51 -3 216 39 165 41 167 93 159 23 -4 46 -11 50 -15z m1197 -85 c-7 -9
-15 -13 -18 -10 -3 2 1 11 8 20 7 9 15 13 18 10 3 -2 -1 -11 -8 -20z m-769
-158 c-13 -13 -15 11 -4 40 7 16 8 15 11 -6 2 -13 -1 -28 -7 -34z m-1322 -175
c-1 -97 -4 -190 -8 -207 -6 -28 -9 -30 -61 -33 -90 -5 -93 1 -98 164 -2 77 0
157 5 179 8 38 11 40 59 51 28 6 59 16 70 22 10 6 22 8 26 6 5 -3 7 -85 7
-182z m-1209 29 c0 -14 -41 -41 -62 -41 -28 0 -21 27 10 38 35 14 52 14 52 3z
m45 -123 c39 -125 42 -161 14 -187 -41 -38 -62 -28 -97 47 -36 77 -49 149 -30
172 18 22 60 50 75 50 7 0 24 -37 38 -82z m1967 -66 c-35 -180 -53 -252 -65
-252 -21 0 -77 45 -87 71 -8 19 -8 44 0 90 15 89 48 197 63 206 20 12 91 20
102 11 5 -5 1 -52 -13 -126z m750 56 c-12 -13 -22 -16 -26 -9 -4 5 3 20 16 33
15 15 23 18 26 9 2 -7 -5 -22 -16 -33z m-1612 -198 c0 -6 -7 -13 -15 -16 -21
-8 -67 4 -60 16 8 13 75 13 75 0z m-1016 -123 c20 -59 44 -150 55 -201 10 -50
31 -121 46 -156 17 -38 29 -86 30 -115 0 -27 7 -69 15 -92 10 -33 10 -46 1
-57 -18 -21 -60 -29 -79 -14 -23 20 -70 125 -83 187 l-11 55 36 31 c44 37 46
49 6 40 -37 -8 -40 8 -5 31 34 22 34 48 0 32 -31 -14 -78 4 -93 36 -20 45 -54
199 -48 222 4 13 19 30 35 38 35 19 46 42 23 51 -15 6 -15 8 2 21 11 8 23 11
27 7 4 -5 23 -57 43 -116z m1077 -115 c-5 -128 -11 -206 -18 -213 -17 -17 -94
23 -134 68 l-31 36 7 131 c4 72 11 135 15 140 5 4 29 11 53 13 33 4 53 13 73
35 25 25 29 27 35 11 3 -10 3 -109 0 -221z m683 42 c20 -3 39 -10 41 -15 5 -6
-32 -157 -71 -296 -9 -31 -30 -29 -65 6 -35 35 -36 55 -10 184 21 106 36 141
56 133 7 -2 30 -8 49 -12z m499 -192 c-10 -28 -68 -116 -86 -131 -24 -19 -21
-3 8 44 13 22 33 57 45 78 20 37 45 44 33 9z m-1280 -86 c29 -21 35 -36 13
-36 -20 0 -66 39 -66 56 0 16 7 14 53 -20z m105 -286 c6 -118 5 -190 -1 -197
-13 -17 -60 -16 -101 1 -24 10 -36 22 -40 43 -15 82 -27 217 -24 283 l3 75 45
-3 c32 -2 52 3 70 17 l25 20 7 -27 c4 -15 11 -110 16 -212z m599 145 c3 -9 -2
-55 -10 -103 -9 -48 -21 -114 -27 -146 -15 -90 -36 -105 -86 -63 -23 20 -27
31 -26 68 2 55 18 142 38 208 l15 51 45 0 c31 0 46 -5 51 -15z m-1514 -187
c-27 -30 -53 -42 -65 -30 -8 8 -1 21 21 42 26 27 34 30 47 20 13 -11 12 -15
-3 -32z m58 -104 c15 -38 36 -93 48 -122 26 -65 26 -88 2 -102 -35 -18 -68
-11 -94 19 -28 34 -89 194 -81 213 7 18 77 68 89 64 5 -1 22 -34 36 -72z m849
-108 c0 -2 -7 -6 -15 -10 -8 -3 -15 -1 -15 4 0 6 7 10 15 10 8 0 15 -2 15 -4z
m14 -63 c2 -10 8 -92 11 -183 7 -150 6 -167 -10 -180 -15 -12 -19 -12 -29 1
-6 8 -29 22 -51 30 -55 20 -65 47 -72 187 -6 113 -5 120 16 141 28 28 127 31
135 4z m-756 -85 c5 -7 35 -69 65 -137 44 -96 54 -128 46 -142 -13 -26 -42
-39 -84 -39 -31 0 -39 5 -65 46 -35 55 -63 135 -58 166 2 15 13 24 36 30 18 5
36 16 39 24 8 21 -2 27 -24 16 -11 -6 -25 -7 -32 -3 -9 6 -6 14 15 30 31 24
47 26 62 9z m1099 -190 c25 -23 30 -48 10 -48 -18 0 -68 49 -62 61 10 15 27
11 52 -13z m-64 -44 c65 -33 68 -40 46 -98 -11 -28 -38 -86 -60 -129 -21 -43
-39 -90 -39 -105 -1 -54 -58 -94 -177 -124 -36 -10 -47 -8 -82 11 -39 19 -41
20 -32 2 19 -34 -13 -36 -51 -3 -16 13 -18 35 -18 178 0 163 0 164 23 169 13
4 43 5 68 3 l44 -3 5 -160 c5 -152 6 -160 25 -160 19 0 20 7 20 100 l0 100 30
2 c20 1 23 0 8 -4 -26 -5 -28 -11 -11 -50 16 -38 16 -38 33 -23 25 21 50 77
75 165 23 86 46 145 55 145 3 0 20 -7 38 -16z m927 -94 c0 -5 -18 -10 -39 -10
-22 0 -43 5 -46 10 -4 6 12 10 39 10 25 0 46 -4 46 -10z m868 -72 c-6 -19
-100 -36 -200 -37 -82 -1 -106 7 -76 25 15 9 124 20 216 23 47 1 63 -2 60 -11z
m-1428 -37 c0 -5 -27 -19 -61 -31 -33 -13 -77 -34 -96 -47 -33 -23 -63 -25
-63 -5 0 22 47 47 128 68 48 13 88 23 90 23 1 1 2 -3 2 -8z m-935 -51 c4 -6
-23 -10 -75 -10 -52 0 -79 4 -75 10 3 6 37 10 75 10 38 0 72 -4 75 -10z m-640
-61 c16 -5 50 -9 75 -9 25 0 54 -7 64 -15 11 -8 38 -15 60 -15 25 0 53 -9 75
-23 20 -13 56 -36 81 -52 25 -16 40 -30 34 -32 -5 -2 -71 17 -145 42 -240 82
-253 85 -379 84 -63 0 -149 -4 -190 -9 -41 -5 -113 -13 -160 -19 -47 -5 -94
-13 -105 -17 -18 -6 -19 -5 -5 10 9 9 47 30 85 46 l70 31 205 -7 c112 -4 218
-11 235 -15z m2147 -97 c59 -27 72 -42 40 -42 -34 0 -447 40 -459 45 -19 6
-16 23 5 29 9 3 94 3 187 0 159 -4 174 -6 227 -32z m-1117 -86 c18 -13 18 -14
-3 -25 -39 -21 -71 -8 -58 24 7 19 36 19 61 1z m-139 -30 c32 -24 3 -40 -81
-44 -74 -4 -118 9 -97 30 24 24 150 34 178 14z"/>
<path d="M2050 11509 c0 -3 14 -23 30 -44 17 -21 30 -34 30 -29 -1 10 -59 82
-60 73z"/>
<path d="M2180 11350 c32 -40 50 -56 50 -45 0 10 -64 85 -73 85 -5 0 6 -18 23
-40z"/>
<path d="M2900 10731 c14 -11 30 -21 35 -21 11 0 -7 14 -40 31 -13 7 -12 3 5
-10z"/>
<path d="M2836 10681 c-8 -12 99 -107 149 -133 22 -12 64 -41 93 -66 60 -51
71 -44 15 9 -40 38 -241 199 -248 199 -2 0 -6 -4 -9 -9z"/>
<path d="M3090 10550 c6 -11 16 -20 22 -20 6 0 3 9 -7 20 -10 11 -20 20 -22
20 -2 0 1 -9 7 -20z"/>
<path d="M3202 10418 c36 -40 77 -90 93 -111 31 -42 47 -42 20 0 -27 40 -157
183 -168 183 -5 0 20 -33 55 -72z"/>
<path d="M3160 10402 c0 -5 22 -33 48 -63 27 -29 70 -85 96 -122 27 -37 51
-66 53 -63 11 10 -32 77 -97 151 -39 44 -70 83 -70 86 0 4 -7 9 -15 13 -8 3
-15 2 -15 -2z"/>
<path d="M4605 10560 c-4 -6 -3 -16 3 -22 6 -6 12 -6 17 2 4 6 3 16 -3 22 -6
6 -12 6 -17 -2z"/>
<path d="M4585 10519 c-10 -15 3 -25 16 -12 7 7 7 13 1 17 -6 3 -14 1 -17 -5z"/>
<path d="M4516 10419 c-23 -57 -15 -59 12 -4 12 25 18 45 13 45 -5 0 -16 -19
-25 -41z"/>
<path d="M4286 9869 c-26 -64 -26 -84 0 -31 14 29 23 56 20 59 -3 3 -12 -9
-20 -28z"/>
<path d="M4166 9524 c-4 -14 -5 -28 -3 -31 3 -2 8 8 11 23 4 14 5 28 3 31 -3
2 -8 -8 -11 -23z"/>
<path d="M4115 9360 c-4 -12 -5 -24 -2 -27 3 -2 8 5 12 17 4 12 5 24 2 27 -3
2 -8 -5 -12 -17z"/>
<path d="M3920 8491 c0 -4 -6 -46 -14 -92 -19 -106 -46 -303 -46 -329 0 -11 4
-20 9 -20 15 0 24 32 31 120 5 47 15 139 24 205 8 66 16 121 16 123 0 1 -4 2
-10 2 -5 0 -10 -4 -10 -9z"/>
<path d="M5200 10470 c-9 -6 -10 -10 -3 -10 6 0 15 5 18 10 8 12 4 12 -15 0z"/>
<path d="M4930 10195 c-7 -9 -11 -18 -8 -20 3 -3 11 1 18 10 7 9 11 18 8 20
-3 3 -11 -1 -18 -10z"/>
<path d="M4785 10048 c-48 -49 -52 -55 -20 -31 50 39 102 93 89 93 -5 0 -36
-28 -69 -62z"/>
<path d="M4665 9929 c-4 -6 -5 -12 -2 -15 2 -3 7 2 10 11 7 17 1 20 -8 4z"/>
<path d="M6500 10829 c0 -5 5 -7 10 -4 6 3 10 8 10 11 0 2 -4 4 -10 4 -5 0
-10 -5 -10 -11z"/>
<path d="M5505 9294 c11 -16 41 -72 67 -124 26 -52 47 -88 47 -80 1 24 -103
223 -119 228 -11 4 -9 -2 5 -24z"/>
<path d="M5651 8995 c1 -19 18 -51 18 -35 0 8 -4 22 -9 30 -5 8 -9 11 -9 5z"/>
<path d="M5705 8860 c-3 -5 5 -47 19 -92 14 -49 27 -124 31 -183 3 -55 10
-103 13 -107 4 -4 18 -5 31 -1 27 7 27 5 -26 236 -35 146 -49 178 -68 147z"/>
<path d="M5230 7715 c-8 -8 -33 -21 -55 -29 l-40 -15 45 6 c47 6 90 26 90 43
0 15 -24 12 -40 -5z"/>
<path d="M5324 7701 c11 -11 23 -21 28 -21 14 0 -1 19 -25 31 -22 12 -22 12
-3 -10z"/>
<path d="M5052 7521 c-52 -52 -117 -139 -110 -147 3 -2 29 26 58 62 30 37 67
80 83 96 16 16 27 31 24 34 -3 3 -28 -18 -55 -45z"/>
<path d="M2418 7675 c2 -14 6 -25 8 -25 2 0 4 11 4 25 0 14 -4 25 -9 25 -4 0
-6 -11 -3 -25z"/>
<path d="M2430 7572 c0 -18 5 -32 10 -32 6 0 8 11 4 28 -10 39 -14 40 -14 4z"/>
<path d="M2440 7461 c0 -12 5 -21 10 -21 6 0 10 6 10 14 0 8 -4 18 -10 21 -5
3 -10 -3 -10 -14z"/>
<path d="M2392 7350 c0 -14 2 -19 5 -12 2 6 2 18 0 25 -3 6 -5 1 -5 -13z"/>
<path d="M2430 7021 c0 -5 5 -13 10 -16 6 -3 10 -2 10 4 0 5 -4 13 -10 16 -5
3 -10 2 -10 -4z"/>
<path d="M5371 8778 c-1 -9 10 -52 24 -95 13 -43 31 -109 40 -148 9 -38 20
-76 25 -85 13 -21 12 -11 -5 67 -18 84 -83 284 -84 261z"/>
<path d="M5481 8364 c0 -11 3 -14 6 -6 3 7 2 16 -1 19 -3 4 -6 -2 -5 -13z"/>
<path d="M5491 8305 c0 -11 4 -29 9 -40 l9 -20 0 20 c0 11 -4 29 -9 40 l-9 20
0 -20z"/>
<path d="M5494 7673 c4 -44 14 -99 22 -124 l14 -44 -5 43 c-3 23 -8 76 -12
117 -3 42 -10 78 -16 82 -6 4 -7 -22 -3 -74z"/>
<path d="M1650 8042 c0 -5 7 -15 15 -22 8 -7 15 -8 15 -2 0 5 -7 15 -15 22 -8
7 -15 8 -15 2z"/>
<path d="M7052 7735 c6 -14 15 -25 19 -25 5 0 3 11 -3 25 -6 14 -15 25 -19 25
-5 0 -3 -11 3 -25z"/>
<path d="M3065 7027 c-19 -42 -35 -82 -34 -89 0 -7 18 25 40 71 22 46 37 86
34 89 -3 3 -21 -29 -40 -71z"/>
<path d="M2991 6837 c-7 -21 -11 -40 -8 -43 7 -7 29 54 25 68 -3 7 -10 -4 -17
-25z"/>
<path d="M2951 6715 c0 -5 -8 -31 -16 -57 -8 -27 -12 -48 -10 -48 12 0 36 65
32 88 -2 15 -5 23 -6 17z"/>
<path d="M2896 6515 c-3 -9 -6 -24 -5 -33 0 -9 5 -4 10 12 9 32 6 48 -5 21z"/>
<path d="M2866 6383 c-14 -49 -77 -395 -90 -499 -26 -215 -28 -237 -18 -230
13 8 18 40 37 211 8 77 24 183 35 235 26 129 51 292 46 297 -2 3 -7 -4 -10
-14z"/>
<path d="M2739 5579 c0 -13 -4 -50 -8 -81 -4 -32 -4 -58 0 -58 9 0 24 149 15
157 -3 4 -6 -5 -7 -18z"/>
<path d="M6665 7250 c-3 -5 -2 -10 4 -10 5 0 13 5 16 10 3 6 2 10 -4 10 -5 0
-13 -4 -16 -10z"/>
<path d="M3776 6628 c-3 -13 -8 -48 -11 -78 -3 -30 -13 -84 -22 -119 -16 -67
-106 -283 -142 -341 -22 -36 -29 -76 -11 -65 16 10 136 254 160 326 22 68 50
212 50 267 0 36 -17 44 -24 10z"/>
<path d="M3202 6258 c-15 -42 -8 -48 12 -9 18 34 19 41 8 41 -4 0 -13 -14 -20
-32z"/>
<path d="M3154 6154 c-9 -21 -30 -68 -46 -104 -65 -138 -77 -170 -69 -170 13
0 77 130 112 224 30 81 32 120 3 50z"/>
<path d="M2968 5705 c-3 -14 -1 -25 3 -25 5 0 9 4 9 9 0 5 3 16 6 25 3 9 2 16
-4 16 -5 0 -12 -11 -14 -25z"/>
<path d="M2940 5615 c-6 -15 -8 -30 -6 -33 3 -3 10 8 16 23 6 15 8 30 6 33 -3
3 -10 -8 -16 -23z"/>
<path d="M2864 5349 c-11 -18 -23 -82 -14 -73 9 10 31 84 25 84 -2 0 -7 -5
-11 -11z"/>
<path d="M2886 5128 c-19 -97 -20 -116 -6 -102 12 12 40 184 30 184 -4 0 -15
-37 -24 -82z"/>
<path d="M2855 4958 c-11 -32 -24 -106 -24 -133 l1 -30 13 30 c15 34 31 145
21 145 -4 0 -9 -6 -11 -12z"/>
<path d="M7077 7187 c-11 -29 -9 -43 4 -30 6 6 9 19 7 29 -3 18 -4 18 -11 1z"/>
<path d="M7066 7094 c-10 -27 -7 -234 4 -234 6 0 10 48 10 125 0 69 -2 125 -4
125 -2 0 -7 -7 -10 -16z"/>
<path d="M2220 6481 c0 -5 7 -15 17 -22 15 -13 15 -12 4 9 -12 23 -21 28 -21
13z"/>
<path d="M2310 6118 c0 -11 11 -44 23 -72 13 -28 39 -88 58 -133 19 -46 37
-83 42 -83 11 0 9 13 -19 102 -49 154 -104 254 -104 186z"/>
<path d="M2427 6114 c-9 -10 15 -54 30 -54 18 0 17 25 -3 44 -17 18 -18 18
-27 10z"/>
<path d="M2480 6033 c0 -13 5 -23 10 -23 13 0 13 11 0 30 -8 12 -10 11 -10 -7z"/>
<path d="M2500 5935 c0 -8 5 -15 10 -15 6 0 10 7 10 15 0 8 -4 15 -10 15 -5 0
-10 -7 -10 -15z"/>
<path d="M2515 5880 c3 -5 8 -10 11 -10 2 0 4 5 4 10 0 6 -5 10 -11 10 -5 0
-7 -4 -4 -10z"/>
<path d="M2555 5683 c9 -21 22 -45 30 -53 13 -12 15 -12 15 3 0 27 -32 87 -47
87 -11 0 -10 -7 2 -37z"/>
<path d="M4504 7021 c10 -11 30 -22 44 -26 15 -3 44 -18 65 -31 22 -14 41 -23
43 -21 6 6 -36 36 -98 71 -56 31 -78 34 -54 7z"/>
<path d="M5882 6174 c-7 -14 -8 -23 -2 -19 15 9 32 45 22 45 -5 0 -14 -12 -20
-26z"/>
<path d="M5800 6044 c-23 -36 -40 -68 -37 -71 6 -6 87 114 87 129 0 16 -8 7
-50 -58z"/>
<path d="M5441 6457 c-18 -47 -12 -71 15 -60 16 6 19 50 4 73 -7 11 -11 9 -19
-13z"/>
<path d="M5453 6345 c-19 -21 -16 -63 8 -102 12 -19 23 -32 25 -31 6 6 -9 148
-15 148 -3 -1 -12 -7 -18 -15z"/>
<path d="M5150 6103 c0 -4 5 -15 10 -23 8 -13 10 -13 10 2 0 9 -4 20 -10 23
-5 3 -10 3 -10 -2z"/>
<path d="M1575 6149 c-11 -17 1 -21 15 -4 8 9 8 15 2 15 -6 0 -14 -5 -17 -11z"/>
<path d="M1989 6095 c34 -51 69 -90 75 -85 2 3 -18 30 -45 60 -28 30 -41 42
-30 25z"/>
<path d="M2006 5988 c4 -7 19 -31 34 -53 15 -22 57 -93 94 -157 38 -65 70
-118 72 -118 8 0 -44 107 -93 189 -65 108 -94 151 -105 151 -5 0 -6 -6 -2 -12z"/>
<path d="M2108 5945 c6 -11 21 -31 32 -45 l21 -25 -15 31 c-8 17 -22 37 -32
45 -16 13 -16 12 -6 -6z"/>
<path d="M2440 5363 c0 -28 29 -103 40 -103 10 0 0 38 -24 90 -12 28 -15 31
-16 13z"/>
<path d="M2415 5223 c4 -10 11 -31 16 -48 13 -42 32 -64 54 -62 11 1 21 -5 23
-15 2 -11 -3 -18 -12 -18 -21 0 -20 -12 4 -57 11 -21 20 -43 20 -49 0 -10 30
-29 35 -22 1 2 0 23 -3 47 -3 32 -9 45 -23 48 -15 4 -17 9 -9 18 18 21 -10 90
-35 90 -13 0 -23 10 -30 30 -13 39 -24 55 -37 55 -6 0 -7 -7 -3 -17z"/>
<path d="M2558 4848 c-4 -25 1 -41 21 -65 32 -41 45 -42 38 -4 -9 44 -35 101
-45 101 -6 0 -12 -15 -14 -32z"/>
<path d="M1865 5540 c10 -11 20 -18 23 -15 7 6 -18 35 -31 35 -5 0 -2 -9 8
-20z"/>
<path d="M1931 5474 c8 -20 103 -143 108 -139 6 7 -64 108 -91 131 -11 11 -19
14 -17 8z"/>
<path d="M2140 5300 c12 -16 24 -30 26 -30 3 0 -3 14 -13 30 -9 17 -21 30 -26
30 -5 0 1 -13 13 -30z"/>
<path d="M2100 5246 c0 -5 15 -32 34 -60 18 -28 43 -70 55 -93 11 -23 26 -45
32 -49 6 -3 -8 30 -32 75 -44 80 -88 144 -89 127z"/>
<path d="M2280 5066 c0 -10 53 -96 57 -92 3 2 -7 25 -22 50 -24 41 -35 54 -35
42z"/>
<path d="M2570 4352 c6 -13 14 -21 18 -18 3 4 -2 14 -12 24 -18 16 -18 16 -6
-6z"/>
<path d="M2600 4298 c0 -7 9 -26 20 -43 23 -35 27 -17 5 25 -17 32 -25 38 -25
18z"/>
<path d="M1216 5665 c-3 -8 -1 -15 4 -15 6 0 10 7 10 15 0 8 -2 15 -4 15 -2 0
-6 -7 -10 -15z"/>
<path d="M1157 5473 c-8 -15 -29 -144 -24 -149 3 -3 8 14 12 38 3 24 11 58 17
76 9 31 6 54 -5 35z"/>
<path d="M6065 3820 c-4 -12 -5 -24 -2 -27 3 -2 8 5 12 17 4 12 5 24 2 27 -3
2 -8 -5 -12 -17z"/>
<path d="M6018 3233 c-20 -24 -102 -212 -95 -219 3 -3 13 9 23 28 9 18 31 53
49 78 27 37 65 111 65 126 0 11 -29 2 -42 -13z"/>
<path d="M5622 3140 c0 -14 2 -19 5 -12 2 6 2 18 0 25 -3 6 -5 1 -5 -13z"/>
<path d="M5612 3070 c0 -14 2 -19 5 -12 2 6 2 18 0 25 -3 6 -5 1 -5 -13z"/>
<path d="M5602 2950 c0 -14 2 -19 5 -12 2 6 2 18 0 25 -3 6 -5 1 -5 -13z"/>
<path d="M6070 2493 c-55 -68 -110 -145 -110 -155 0 -22 35 14 92 95 77 111
81 117 71 116 -4 0 -28 -25 -53 -56z"/>
<path d="M4130 342 c0 -14 43 -23 54 -12 7 7 4 10 -6 10 -9 0 -23 3 -32 6 -9
3 -16 2 -16 -4z"/>
<path d="M4787 12626 c-41 -38 -113 -155 -164 -268 -43 -96 -145 -442 -159
-543 -3 -22 -14 -80 -24 -130 -10 -49 -26 -139 -35 -200 -10 -64 -39 -180 -70
-275 -29 -91 -62 -199 -74 -240 -25 -86 -46 -134 -187 -430 -56 -118 -125
-273 -153 -345 -33 -84 -60 -137 -76 -150 -19 -16 -27 -35 -33 -83 -5 -34 -6
-62 -3 -62 8 0 47 75 65 125 27 75 93 240 123 306 17 36 34 75 38 88 4 12 31
59 61 103 30 45 54 86 54 92 0 6 15 42 34 81 47 97 221 637 245 760 7 33 19
89 27 125 8 36 19 101 24 145 12 104 30 189 73 355 41 155 50 183 77 219 10
15 22 39 25 54 4 14 13 31 21 37 11 10 12 7 4 -17 -20 -63 -29 -102 -45 -183
-10 -47 -21 -94 -26 -105 -23 -51 -49 -156 -55 -215 -3 -36 -12 -85 -19 -110
-13 -44 -28 -176 -19 -167 3 3 21 81 39 173 44 215 44 216 54 209 5 -3 6 -19
1 -38 -4 -17 -18 -106 -30 -197 -37 -287 -69 -472 -100 -585 -17 -60 -44 -162
-61 -225 -17 -63 -37 -122 -45 -131 -8 -8 -14 -23 -14 -31 0 -48 -135 -438
-236 -683 -161 -390 -263 -723 -320 -1037 -35 -199 -47 -329 -31 -346 10 -10
17 22 36 165 13 98 34 230 47 293 55 265 192 697 263 835 12 21 21 46 21 55 0
8 25 65 55 127 30 61 57 124 61 140 4 15 20 60 35 98 15 39 48 139 74 224 26
85 58 179 71 210 14 30 31 89 38 130 8 42 30 144 49 226 19 83 40 191 46 242
6 50 22 149 35 220 13 70 27 160 30 198 23 249 75 433 181 638 25 48 45 93 45
101 0 12 -31 46 -42 46 -3 0 -17 -11 -31 -24z m-50 -123 c-2 -5 -12 -25 -22
-45 -9 -21 -21 -35 -26 -33 -9 6 5 51 23 72 11 14 32 18 25 6z m-107 -460 c0
-5 -5 -15 -10 -23 -8 -12 -10 -11 -10 8 0 12 5 22 10 22 6 0 10 -3 10 -7z"/>
<path d="M7966 12381 c-4 -7 -5 -15 -2 -18 9 -9 19 4 14 18 -4 11 -6 11 -12 0z"/>
<path d="M7770 12312 c-30 -44 -37 -62 -19 -44 24 23 28 12 24 -63 -4 -79 -1
-91 15 -49 6 14 14 22 20 19 13 -8 -21 -97 -55 -141 -29 -38 -65 -46 -65 -15
0 11 5 42 12 70 10 46 10 53 -7 65 -18 13 -17 15 6 52 l24 39 -29 -22 c-37
-30 -50 -29 -66 5 -15 30 -13 40 -38 -180 -5 -47 -18 -106 -29 -130 -56 -121
-76 -193 -38 -135 9 14 24 27 35 30 11 3 33 35 55 81 31 64 40 76 61 76 15 0
24 -6 24 -15 0 -24 -47 -111 -80 -149 -30 -34 -123 -226 -114 -235 7 -7 32 29
65 97 16 34 33 62 37 62 22 -1 34 -20 28 -45 -16 -62 49 37 69 105 6 24 6 24
-19 -5 -14 -16 -26 -25 -26 -20 0 6 39 88 87 183 82 163 87 176 85 230 -1 31
-7 59 -13 62 -5 4 -7 14 -3 23 7 20 -3 87 -14 87 -4 0 -18 -17 -32 -38z"/>
<path d="M7949 12303 c-7 -21 -38 -91 -70 -157 -33 -65 -56 -123 -53 -128 10
-16 20 1 69 112 26 58 60 122 76 142 17 22 26 43 23 52 -11 28 -32 17 -45 -21z"/>
<path d="M8056 12286 c-14 -32 -26 -64 -26 -70 1 -18 39 36 51 72 20 59 2 58
-25 -2z"/>
<path d="M7564 12295 c11 -8 22 -12 25 -9 6 6 -19 24 -34 24 -5 -1 -1 -7 9
-15z"/>
<path d="M8078 12130 c-65 -82 -80 -131 -20 -63 61 68 84 102 80 119 -2 11
-22 -8 -60 -56z"/>
<path d="M7497 12173 c-8 -13 -20 -83 -13 -83 7 0 29 81 23 87 -3 2 -7 1 -10
-4z"/>
<path d="M7970 12155 c-7 -9 -8 -15 -2 -15 5 0 12 7 16 15 3 8 4 15 2 15 -2 0
-9 -7 -16 -15z"/>
<path d="M7546 12098 c-9 -36 -7 -48 8 -42 18 7 27 29 20 49 -9 22 -21 18 -28
-7z"/>
<path d="M7772 11958 c-24 -38 -56 -117 -51 -123 2 -2 23 32 46 76 42 77 45
112 5 47z"/>
<path d="M7206 11964 c-4 -10 -2 -22 3 -27 7 -7 13 -5 17 7 4 10 2 22 -3 27
-7 7 -13 5 -17 -7z"/>
<path d="M7391 11966 c-10 -12 -17 -14 -27 -5 -12 10 -14 0 -14 -57 0 -105
-49 -272 -87 -301 -21 -16 -14 -24 14 -17 23 6 70 101 97 194 8 30 32 81 52
113 20 32 33 61 29 65 -4 4 -13 -1 -20 -11 -12 -17 -14 -16 -22 9 -8 23 -10
25 -22 10z"/>
<path d="M8066 11929 c-63 -33 -71 -50 -12 -25 31 13 36 13 36 0 0 -20 24 -18
44 5 15 16 13 52 -3 51 -3 -1 -32 -15 -65 -31z"/>
<path d="M7253 11923 c-3 -10 -12 -25 -19 -33 -17 -21 -19 -77 -5 -129 9 -32
10 -55 2 -85 -5 -22 -8 -42 -6 -44 9 -9 25 12 35 46 14 51 13 82 -5 116 -19
35 -19 45 -1 65 19 22 31 81 16 81 -6 0 -13 -8 -17 -17z"/>
<path d="M7900 11840 c-8 -5 -12 -12 -9 -15 4 -3 12 1 19 10 14 17 11 19 -10
5z"/>
<path d="M7990 11765 c-7 -8 -8 -15 -2 -15 5 0 15 7 22 15 7 8 8 15 2 15 -5 0
-15 -7 -22 -15z"/>
<path d="M7502 11707 c-12 -18 -32 -57 -44 -87 -13 -30 -31 -66 -40 -81 -22
-31 -35 -89 -20 -89 6 0 20 26 32 58 12 31 30 71 40 87 20 33 62 136 58 141
-2 1 -13 -12 -26 -29z"/>
<path d="M7393 11660 c-5 -14 -13 -43 -17 -65 -4 -22 -10 -48 -13 -59 -3 -11
-1 -16 5 -12 16 10 44 102 40 133 l-4 28 -11 -25z"/>
<path d="M7834 11664 c-18 -14 -18 -15 4 -4 12 6 22 13 22 15 0 8 -5 6 -26
-11z"/>
<path d="M7066 11642 c-4 -10 -19 -31 -36 -47 l-29 -28 25 -36 c13 -19 24 -44
24 -55 0 -15 3 -17 11 -9 9 9 9 19 0 41 -9 21 -9 36 -1 57 l11 29 24 -29 c25
-31 45 -84 45 -120 0 -31 33 -155 42 -155 13 0 20 68 10 102 -37 127 -66 207
-85 235 -25 38 -33 40 -41 15z"/>
<path d="M7830 11543 c-146 -81 -251 -145 -247 -149 2 -3 51 18 107 46 57 27
110 50 117 50 28 0 -1 -23 -66 -52 -83 -38 -105 -56 -90 -75 8 -9 15 -10 24
-3 7 6 55 28 106 48 80 32 94 41 100 66 4 15 15 36 24 46 17 19 17 51 0 57 -5
1 -39 -14 -75 -34z"/>
<path d="M6830 11552 c0 -7 5 -34 11 -59 10 -36 14 -42 21 -28 9 15 11 15 22
-1 14 -19 36 -12 36 12 0 21 47 17 60 -5 5 -11 10 -33 10 -50 0 -27 4 -31 26
-31 22 0 25 3 20 23 -3 12 -6 34 -6 49 0 23 -7 31 -37 43 -21 9 -46 26 -55 38
-15 20 -18 20 -35 6 -29 -26 -47 -28 -60 -5 -7 12 -12 15 -13 8z"/>
<path d="M7211 11433 c0 -36 3 -43 9 -28 12 28 12 75 0 75 -5 0 -10 -21 -9
-47z"/>
<path d="M6703 11381 c1 -49 6 -76 15 -79 16 -5 15 40 -3 103 l-14 50 2 -74z"/>
<path d="M6936 11415 c-3 -8 -8 -37 -12 -65 -7 -57 -21 -66 -27 -17 -3 22 -4
16 -5 -20 -1 -28 3 -55 8 -58 6 -3 10 -15 10 -26 0 -11 9 -37 20 -58 17 -34
18 -52 13 -160 -4 -88 -3 -121 5 -121 7 0 12 5 12 11 0 5 13 22 29 37 22 22
30 41 40 99 6 39 11 89 11 109 l0 37 -25 -23 c-51 -48 -75 3 -57 123 14 94 -1
185 -22 132z m54 -331 c0 -8 -4 -12 -10 -9 -5 3 -10 13 -10 21 0 8 5 12 10 9
6 -3 10 -13 10 -21z"/>
<path d="M7070 11366 c0 -20 5 -36 10 -36 6 0 10 13 10 29 0 17 -4 33 -10 36
-6 4 -10 -8 -10 -29z"/>
<path d="M6856 11340 c-12 -78 -31 -121 -50 -114 -12 5 -16 0 -16 -19 0 -14 7
-27 15 -31 8 -3 15 -12 15 -21 0 -8 7 -15 15 -15 13 0 15 7 10 33 -4 20 0 53
10 84 9 27 15 70 13 94 l-3 44 -9 -55z"/>
<path d="M7740 11343 c-80 -14 -129 -33 -84 -33 47 1 229 31 238 40 14 14 -51
11 -154 -7z"/>
<path d="M7590 11191 c-47 -20 -125 -50 -173 -65 -49 -16 -86 -31 -83 -34 6
-5 94 12 150 29 40 12 46 11 46 -7 0 -23 58 -11 121 27 27 16 54 29 59 29 6 0
10 5 10 11 0 7 -9 9 -22 5 -13 -3 -41 -8 -63 -11 l-40 -5 45 15 c24 8 51 22
59 30 27 26 -16 17 -109 -24z"/>
<path d="M6523 11108 c18 -37 35 -67 39 -67 13 -2 -17 70 -43 101 l-28 33 32
-67z"/>
<path d="M3831 11083 c-13 -47 -7 -54 13 -14 18 34 20 51 6 51 -5 0 -14 -17
-19 -37z"/>
<path d="M6860 11088 c0 -13 5 -30 10 -38 7 -11 10 -5 10 23 0 20 -4 37 -10
37 -5 0 -10 -10 -10 -22z"/>
<path d="M6692 11038 c-6 -13 -14 -38 -18 -57 -3 -19 -13 -41 -21 -49 -10 -11
-11 -17 -2 -28 8 -10 9 -38 4 -90 -5 -60 -4 -75 6 -69 9 6 11 -5 6 -49 -6 -62
7 -69 17 -9 11 61 16 71 36 76 12 3 20 14 20 27 0 17 -4 20 -21 15 -19 -6 -20
-5 -9 16 9 16 10 42 5 88 -5 36 -8 85 -8 109 0 23 0 42 -2 42 -1 0 -7 -10 -13
-22z"/>
<path d="M6752 11030 c-14 -23 -16 -33 -3 -26 5 4 23 -13 40 -36 27 -36 31
-51 32 -107 1 -85 17 -44 18 47 1 56 -2 65 -19 69 -20 5 -35 36 -26 52 5 7
-14 21 -27 21 -1 0 -8 -9 -15 -20z"/>
<path d="M7555 11030 c-3 -5 3 -10 14 -10 12 0 21 5 21 10 0 6 -6 10 -14 10
-8 0 -18 -4 -21 -10z"/>
<path d="M3775 10913 c-15 -49 -38 -114 -51 -145 -13 -32 -24 -64 -24 -73 0
-28 28 -15 39 18 6 17 32 85 58 150 38 98 44 120 32 128 -8 5 -17 9 -21 9 -4
0 -19 -39 -33 -87z"/>
<path d="M7485 10983 c-11 -3 -29 -12 -40 -19 -19 -13 -18 -14 7 -14 14 0 36
9 49 20 24 19 21 22 -16 13z"/>
<path d="M7399 10877 c-24 -13 -62 -30 -84 -37 -59 -19 -69 -34 -18 -27 25 3
55 16 74 31 17 14 38 26 48 26 9 0 26 7 37 15 32 24 -6 19 -57 -8z"/>
<path d="M3470 10822 c0 -12 19 -26 26 -19 2 2 -2 10 -11 17 -9 8 -15 8 -15 2z"/>
<path d="M7044 10727 c-54 -21 -60 -24 -51 -33 4 -4 14 -1 23 7 12 9 41 13 93
12 199 -5 236 -2 228 20 -7 21 -234 16 -293 -6z"/>
<path d="M7053 10673 c-35 -8 -63 -19 -63 -24 0 -5 42 -9 93 -9 51 0 116 -6
147 -14 57 -16 95 -6 49 13 -13 5 -46 19 -73 30 -55 24 -67 24 -153 4z"/>
<path d="M3676 10619 c-26 -76 -33 -145 -15 -133 6 3 8 15 6 26 -3 11 1 40 8
66 8 25 12 48 10 50 -3 3 -7 -1 -9 -9z"/>
<path d="M7051 10585 c45 -9 82 -11 115 -6 l49 9 -60 1 c-33 1 -85 3 -115 6
l-55 4 66 -14z"/>
<path d="M2412 10566 c-29 -7 -60 -20 -70 -28 -9 -9 -42 -28 -73 -42 -54 -25
-93 -56 -72 -56 5 0 48 23 94 51 46 28 104 54 127 59 24 4 49 13 55 19 13 13
7 13 -61 -3z"/>
<path d="M3740 10511 c-14 -28 -41 -161 -34 -172 12 -20 22 4 28 70 4 37 13
77 21 87 17 22 19 34 5 34 -5 0 -14 -9 -20 -19z"/>
<path d="M2443 10483 c15 -2 39 -2 55 0 15 2 2 4 -28 4 -30 0 -43 -2 -27 -4z"/>
<path d="M3830 10439 c0 -17 4 -28 10 -24 6 3 10 17 10 31 0 13 -4 24 -10 24
-5 0 -10 -14 -10 -31z"/>
<path d="M7230 10425 c13 -14 26 -25 28 -25 3 0 -5 11 -18 25 -13 14 -26 25
-28 25 -3 0 5 -11 18 -25z"/>
<path d="M3780 10361 c0 -17 5 -31 10 -31 6 0 10 11 10 24 0 14 -4 28 -10 31
-6 4 -10 -7 -10 -24z"/>
<path d="M3828 10370 c-4 -14 -9 -49 -10 -79 -3 -61 -21 -77 -39 -37 -7 14
-16 23 -21 20 -5 -3 -18 2 -28 11 -10 9 -21 12 -24 7 -3 -5 1 -15 9 -22 8 -7
15 -18 15 -25 0 -7 7 -18 15 -25 19 -16 19 -46 0 -62 -9 -7 -23 -19 -31 -27
-12 -11 -17 -12 -24 -2 -9 15 -20 -19 -20 -61 0 -39 18 -44 22 -6 l3 33 19
-28 c15 -22 17 -33 9 -46 -12 -19 -9 -82 5 -107 8 -14 12 -2 17 52 4 38 17 92
30 120 20 46 21 52 6 61 -14 9 -11 15 22 46 l38 36 -3 83 c-2 56 -5 75 -10 58z"/>
<path d="M2028 10343 c-29 -34 -30 -48 -2 -21 15 15 26 30 23 33 -3 3 -13 -3
-21 -12z"/>
<path d="M3886 10332 c-5 -18 -5 -36 -2 -39 7 -7 19 43 13 59 -2 7 -7 -2 -11
-20z"/>
<path d="M1955 10260 c-10 -11 -13 -20 -8 -20 13 0 38 29 31 35 -3 3 -13 -4
-23 -15z"/>
<path d="M2959 10236 c14 -14 27 -26 29 -26 10 0 -26 44 -39 48 -8 3 -3 -7 10
-22z"/>
<path d="M3931 9964 c0 -11 3 -14 6 -6 3 7 2 16 -1 19 -3 4 -6 -2 -5 -13z"/>
<path d="M3130 9921 c0 -14 58 -131 65 -131 2 0 0 11 -5 24 -5 13 -7 32 -4 42
4 19 -8 38 -38 63 -12 9 -18 10 -18 2z"/>
<path d="M3231 9880 c9 -14 35 -63 58 -109 23 -46 45 -81 48 -78 7 8 -87 185
-106 200 -13 10 -13 8 0 -13z"/>
<path d="M3895 9840 c-4 -17 -5 -34 -2 -36 3 -3 8 9 12 26 4 17 5 34 2 36 -3
3 -8 -9 -12 -26z"/>
<path d="M6432 9815 c-1 -5 -7 -39 -12 -75 -6 -36 -13 -73 -16 -82 -3 -10 -1
-18 5 -18 13 0 33 101 28 147 -2 21 -4 34 -5 28z"/>
<path d="M1511 9776 c-6 -7 -52 -35 -102 -62 -79 -41 -109 -66 -220 -179 -71
-71 -146 -153 -166 -182 -21 -29 -90 -118 -153 -199 -181 -231 -222 -286 -208
-282 7 2 59 62 116 134 57 71 127 158 156 194 29 36 59 76 66 90 7 14 84 100
170 193 132 141 170 175 241 218 95 57 139 88 123 89 -6 0 -17 -6 -23 -14z"/>
<path d="M3837 9664 c-4 -4 -7 -14 -7 -23 0 -11 3 -12 11 -4 6 6 10 16 7 23
-2 6 -7 8 -11 4z"/>
<path d="M3737 9641 c-4 -17 -3 -21 5 -13 5 5 8 16 6 23 -3 8 -7 3 -11 -10z"/>
<path d="M6443 9625 c-3 -9 -3 -18 -1 -21 9 -9 38 8 38 22 0 19 -29 18 -37 -1z"/>
<path d="M1670 9604 c0 -8 5 -12 10 -9 6 3 10 10 10 16 0 5 -4 9 -10 9 -5 0
-10 -7 -10 -16z"/>
<path d="M2930 9616 c0 -2 8 -10 18 -17 15 -13 16 -12 3 4 -13 16 -21 21 -21
13z"/>
<path d="M6450 9548 c0 -19 2 -20 10 -8 13 19 13 30 0 30 -5 0 -10 -10 -10
-22z"/>
<path d="M6427 9494 c-4 -4 -7 -14 -7 -23 0 -11 3 -12 11 -4 6 6 10 16 7 23
-2 6 -7 8 -11 4z"/>
<path d="M1616 9435 c-3 -8 -1 -15 4 -15 6 0 10 7 10 15 0 8 -2 15 -4 15 -2 0
-6 -7 -10 -15z"/>
<path d="M3474 9245 c-4 -9 6 -34 21 -56 24 -37 29 -40 42 -26 16 16 8 42 -25
80 -19 21 -31 22 -38 2z"/>
<path d="M6147 9083 c-25 -38 -27 -51 -8 -38 15 8 44 65 37 72 -2 3 -16 -12
-29 -34z"/>
<path d="M3560 9055 c0 -11 31 -67 35 -63 8 8 -11 62 -23 66 -7 2 -12 1 -12
-3z"/>
<path d="M3731 8914 c0 -11 3 -14 6 -6 3 7 2 16 -1 19 -3 4 -6 -2 -5 -13z"/>
<path d="M6427 8755 c-9 -19 -15 -35 -12 -35 7 0 37 61 33 66 -3 2 -12 -12
-21 -31z"/>
<path d="M3550 8590 c0 -29 44 -128 85 -194 36 -57 51 -73 66 -69 20 6 21 -3
-11 148 -10 50 -19 79 -19 65 -3 -61 -41 -64 -41 -4 0 24 -5 36 -17 40 -10 3
-26 10 -35 15 -23 12 -28 11 -28 -1z"/>
<path d="M3510 8516 c0 -8 5 -18 10 -21 6 -3 10 3 10 14 0 12 -4 21 -10 21 -5
0 -10 -6 -10 -14z"/>
<path d="M3725 8501 c-3 -6 -1 -30 6 -53 11 -41 12 -42 21 -18 5 13 8 35 6 49
-3 26 -22 39 -33 22z"/>
<path d="M5975 8381 c-15 -25 -34 -92 -24 -89 15 5 49 87 39 93 -5 3 -11 1
-15 -4z"/>
<path d="M6095 8175 c-10 -25 -16 -48 -13 -50 3 -3 13 15 23 40 9 26 15 48 12
51 -3 3 -13 -15 -22 -41z"/>
<path d="M5782 7363 c-24 -62 -74 -235 -69 -240 3 -3 13 21 23 53 9 33 27 92
41 133 23 71 27 111 5 54z"/>
<path d="M5876 7085 c-9 -26 -7 -32 5 -12 6 10 9 21 6 23 -2 3 -7 -2 -11 -11z"/>
<path d="M3135 5200 c-20 -34 -35 -63 -33 -66 3 -2 22 23 43 57 20 33 35 63
32 65 -3 3 -22 -22 -42 -56z"/>
<path d="M2880 4405 c0 -8 2 -15 4 -15 2 0 6 7 10 15 3 8 1 15 -4 15 -6 0 -10
-7 -10 -15z"/>
<path d="M2852 4335 c-7 -14 -12 -36 -11 -48 0 -17 5 -13 19 18 21 46 23 55
12 55 -5 0 -14 -11 -20 -25z"/>
<path d="M6598 3371 c-18 -21 -48 -61 -67 -87 l-34 -49 37 35 c32 30 67 75
100 128 15 25 -3 11 -36 -27z"/>
<path d="M6419 3152 c-19 -20 -44 -48 -54 -61 l-20 -24 21 11 c23 12 99 101
92 107 -2 3 -20 -12 -39 -33z"/>
<path d="M6102 2833 c-28 -38 -61 -80 -74 -95 -12 -15 -19 -30 -16 -33 4 -4
118 143 142 183 19 32 -7 5 -52 -55z"/>
<path d="M6478 433 c6 -2 18 -2 25 0 6 3 1 5 -13 5 -14 0 -19 -2 -12 -5z"/>
<path d="M6815 428 c-38 -5 -114 -8 -167 -6 -54 2 -94 0 -89 -5 12 -12 259
-20 305 -10 22 5 41 14 44 21 4 13 6 13 -93 0z"/>
<path d="M5580 372 c0 -25 297 -51 423 -38 109 12 77 21 -60 18 -111 -3 -196
3 -330 24 -18 3 -33 1 -33 -4z"/>
<path d="M3896 321 c13 -12 134 -24 134 -13 0 5 -24 12 -52 16 -73 8 -94 8
-82 -3z"/>
<path d="M6325 279 c-44 -13 -258 -30 -293 -23 -16 3 -32 2 -36 -4 -17 -28
270 -21 362 9 62 20 32 38 -33 18z"/>
<path d="M843 231 c-86 -17 -107 -26 -79 -37 15 -6 174 25 236 46 46 15 -69 9
-157 -9z"/>
<path d="M5274 192 c3 -5 27 -15 53 -22 67 -17 286 -39 296 -30 10 9 -31 16
-138 25 -38 4 -83 10 -100 15 -55 16 -118 23 -111 12z"/>
<path d="M5020 161 c-49 -5 -60 -8 -43 -14 27 -10 113 1 113 14 0 5 -1 8 -2 7
-2 -1 -32 -4 -68 -7z"/>
<path d="M4888 153 c6 -2 18 -2 25 0 6 3 1 5 -13 5 -14 0 -19 -2 -12 -5z"/>
<path d="M5675 140 c-3 -6 1 -7 9 -4 18 7 21 14 7 14 -6 0 -13 -4 -16 -10z"/>
<path d="M5848 139 c42 -16 282 -15 282 0 0 6 -62 9 -149 8 -82 -1 -142 -5
-133 -8z"/>
<path d="M4495 103 c-128 -19 100 -32 268 -16 119 11 72 23 -85 22 -84 -1
-166 -4 -183 -6z"/>
<path d="M2530 90 c-27 -17 0 -24 33 -7 30 15 31 16 7 16 -14 0 -32 -3 -40 -9z"/>
<path d="M6420 90 c0 -12 54 -12 90 0 19 6 11 8 -32 9 -33 1 -58 -3 -58 -9z"/>
<path d="M4225 80 c-4 -6 8 -10 29 -10 20 0 36 5 36 10 0 6 -13 10 -29 10 -17
0 -33 -4 -36 -10z"/>
<path d="M3575 40 c-8 -13 15 -13 35 0 12 8 11 10 -7 10 -12 0 -25 -4 -28 -10z"/>
<path d="M2565 30 c3 -5 13 -10 21 -10 8 0 14 5 14 10 0 6 -9 10 -21 10 -11 0
-17 -4 -14 -10z"/>
<path d="M2630 31 c0 -15 122 -31 243 -31 64 0 117 4 117 8 0 5 -66 14 -147
20 -176 14 -213 15 -213 3z"/>
</g>
</svg>
